{"glyphs":{"0":{"ha":833,"x_min":113,"x_max":721,"o":"m 417 -17 q 192 105 271 -17 q 113 447 113 226 q 192 787 113 669 q 417 904 271 904 q 642 787 563 904 q 721 447 721 669 q 642 105 721 226 q 417 -17 563 -17 m 417 36 q 592 140 525 36 q 660 447 660 244 q 592 751 660 650 q 417 851 525 851 q 241 751 308 851 q 174 447 174 650 q 241 140 174 244 q 417 36 308 36 m 417 376 q 364 398 388 376 q 340 460 340 419 q 364 522 340 500 q 417 543 388 543 q 469 522 446 543 q 493 460 493 500 q 469 398 493 419 q 417 376 446 376 z "},"1":{"ha":833,"x_min":150,"x_max":726,"o":"m 150 0 l 150 54 l 415 54 l 415 790 l 217 790 l 217 832 q 340 856 288 842 q 431 888 392 869 l 476 888 l 476 54 l 726 54 l 726 0 l 150 0 z "},"2":{"ha":833,"x_min":110,"x_max":714,"o":"m 114 0 l 114 39 q 328 238 236 150 q 481 398 421 325 q 572 533 542 471 q 603 654 603 594 q 590 732 603 696 q 551 794 578 768 q 482 836 524 821 q 383 851 440 851 q 256 818 315 851 q 150 735 196 785 l 110 774 q 232 867 165 829 q 389 904 299 904 q 592 836 519 904 q 664 656 664 768 q 632 523 664 589 q 541 384 600 457 q 397 228 482 311 q 207 49 313 146 q 291 53 250 51 q 374 56 332 56 l 714 56 l 714 0 l 114 0 z "},"3":{"ha":833,"x_min":93,"x_max":710,"o":"m 406 -17 q 300 -6 347 -17 q 215 24 253 6 q 146 64 176 42 q 93 108 115 86 l 128 151 q 239 72 172 107 q 406 38 306 38 q 501 51 457 38 q 576 91 544 65 q 627 153 608 117 q 646 233 646 189 q 561 382 646 325 q 292 439 476 439 l 292 493 q 440 508 379 493 q 539 549 500 524 q 595 610 578 575 q 613 686 613 646 q 554 806 613 761 q 401 851 496 851 q 270 823 332 851 q 167 754 208 794 l 129 796 q 248 872 179 840 q 403 904 317 904 q 510 890 460 904 q 597 848 560 875 q 655 781 633 821 q 676 690 676 742 q 661 611 676 646 q 619 549 646 576 q 555 503 592 522 q 475 471 518 483 l 475 465 q 564 437 521 457 q 639 388 607 417 q 690 320 671 358 q 710 235 710 282 q 686 130 710 176 q 622 51 663 83 q 525 1 581 18 q 406 -17 469 -17 z "},"4":{"ha":833,"x_min":58,"x_max":747,"o":"m 533 0 l 533 265 l 58 265 l 58 303 l 544 889 l 593 889 l 593 319 l 747 319 l 747 265 l 593 265 l 593 0 l 533 0 m 142 319 l 533 319 l 533 668 q 537 735 536 700 q 540 803 538 769 l 532 803 q 490 744 511 774 q 446 685 468 715 l 142 319 z "},"5":{"ha":833,"x_min":86,"x_max":717,"o":"m 399 -17 q 291 -6 338 -17 q 207 22 244 4 q 140 60 169 39 q 86 103 111 82 l 121 146 q 169 106 143 125 q 229 71 196 86 q 304 47 263 56 q 399 38 346 38 q 497 55 450 38 q 578 103 543 72 q 633 178 613 135 q 653 276 653 222 q 586 445 653 385 q 401 506 519 506 q 296 489 340 506 q 203 446 251 472 l 160 472 l 193 888 l 671 888 l 671 833 l 249 833 l 219 513 q 306 547 263 533 q 411 560 350 560 q 532 543 476 560 q 628 492 588 526 q 693 405 669 458 q 717 279 717 351 q 690 153 717 208 q 618 60 663 99 q 517 3 574 22 q 399 -17 460 -17 z "},"6":{"ha":833,"x_min":119,"x_max":732,"o":"m 449 -17 q 313 11 374 -17 q 209 92 251 39 q 143 224 167 146 q 119 403 119 301 q 150 638 119 542 q 231 793 181 733 q 348 878 282 853 q 486 904 414 904 q 615 881 561 904 q 713 818 669 857 l 675 776 q 589 831 638 813 q 486 850 540 850 q 370 827 425 850 q 274 752 315 804 q 207 617 232 700 q 182 411 182 533 q 308 503 240 469 q 454 536 376 536 q 657 466 582 536 q 732 261 732 396 q 709 149 732 200 q 647 62 686 99 q 557 4 608 25 q 449 -17 506 -17 m 451 36 q 538 53 499 36 q 607 101 578 71 q 653 173 636 132 q 669 261 669 214 q 614 425 669 367 q 446 483 558 483 q 319 453 389 483 q 183 349 250 422 q 208 220 189 278 q 259 122 226 163 q 340 58 292 81 q 451 36 388 36 z "},"7":{"ha":833,"x_min":103,"x_max":733,"o":"m 340 0 q 365 246 346 135 q 423 455 385 357 q 518 644 461 553 q 656 833 575 736 l 103 833 l 103 888 l 733 888 l 733 851 q 581 649 642 746 q 484 451 521 551 q 430 241 447 351 q 408 0 413 131 l 340 0 z "},"8":{"ha":833,"x_min":100,"x_max":731,"o":"m 422 -17 q 289 2 349 -17 q 188 53 229 21 q 123 131 146 86 q 100 228 100 175 q 118 315 100 276 q 165 384 136 354 q 231 437 194 414 q 306 476 268 460 l 306 482 q 208 565 250 514 q 167 688 167 617 q 186 775 167 735 q 240 844 206 815 q 321 888 274 872 q 424 904 368 904 q 538 887 488 904 q 622 838 588 869 q 674 765 657 807 q 692 672 692 722 q 651 550 692 608 q 550 450 610 492 l 550 444 q 621 406 588 425 q 678 360 654 386 q 717 299 703 333 q 731 215 731 264 q 710 124 731 167 q 649 51 689 82 q 553 1 610 19 q 422 -17 496 -17 m 496 465 q 632 671 632 557 q 619 741 632 708 q 579 799 606 774 q 514 838 553 824 q 424 853 475 853 q 281 806 335 853 q 226 688 226 760 q 248 606 226 640 q 306 547 269 572 q 392 501 343 521 q 496 465 440 482 m 424 35 q 529 49 483 35 q 606 88 575 63 q 652 146 636 113 q 668 217 668 179 q 643 308 668 272 q 575 370 618 344 q 474 415 532 396 q 353 454 417 433 q 276 413 311 435 q 216 364 242 390 q 176 305 190 338 q 161 231 161 272 q 179 153 161 189 q 231 92 197 118 q 314 50 265 65 q 424 35 363 35 z "},"9":{"ha":833,"x_min":104,"x_max":715,"o":"m 389 404 q 520 436 450 404 q 653 540 590 468 q 628 668 647 611 q 577 766 610 725 q 497 829 544 807 q 385 851 449 851 q 297 834 338 851 q 228 787 257 817 q 182 716 199 757 q 165 628 165 675 q 221 463 165 522 q 389 404 276 404 m 350 -17 q 221 7 275 -17 q 122 69 167 31 l 160 111 q 350 38 238 38 q 465 60 410 38 q 563 135 521 83 q 629 271 604 188 q 654 476 654 354 q 528 386 596 419 q 382 353 460 353 q 178 423 253 353 q 104 628 104 493 q 127 739 104 688 q 189 826 150 790 q 278 883 228 863 q 386 904 329 904 q 626 797 538 904 q 715 486 715 689 q 685 250 715 346 q 603 95 654 154 q 487 10 553 36 q 350 -17 421 -17 z "}," ":{"ha":833,"x_min":0,"x_max":0,"o":""},"A":{"ha":833,"x_min":63,"x_max":771,"o":"m 313 539 l 254 368 l 579 368 l 521 539 q 468 696 493 621 q 419 856 443 771 l 414 856 q 365 696 390 771 q 313 539 340 621 m 63 0 l 385 915 l 449 915 l 771 0 l 703 0 l 597 314 l 235 314 l 126 0 l 63 0 z "},"B":{"ha":833,"x_min":158,"x_max":747,"o":"m 158 0 l 158 915 l 390 915 q 612 862 533 915 q 690 693 690 808 q 650 567 690 621 q 528 493 610 514 l 528 488 q 689 417 631 472 q 747 267 747 363 q 658 67 747 133 q 408 0 568 0 l 158 0 m 222 514 l 365 514 q 566 558 506 514 q 626 690 626 603 q 565 822 626 782 q 372 861 503 861 l 222 861 l 222 514 m 222 54 l 392 54 q 608 105 532 54 q 683 267 683 156 q 608 412 683 365 q 392 458 533 458 l 222 458 l 222 54 z "},"C":{"ha":833,"x_min":100,"x_max":757,"o":"m 483 -17 q 328 17 399 -17 q 208 112 258 50 q 128 262 157 174 q 100 460 100 350 q 128 656 100 568 q 208 805 157 743 q 333 899 260 867 q 493 932 406 932 q 633 899 572 932 q 731 822 694 865 l 692 781 q 606 848 656 822 q 493 874 556 874 q 358 844 418 874 q 255 762 297 815 q 190 632 213 708 q 167 460 167 556 q 190 287 167 364 q 254 156 213 210 q 356 72 296 101 q 489 42 415 42 q 614 69 560 42 q 718 154 668 97 l 757 114 q 639 18 704 53 q 483 -17 574 -17 z "},"D":{"ha":833,"x_min":133,"x_max":758,"o":"m 133 0 l 133 915 l 344 915 q 528 883 450 915 q 657 792 606 851 q 733 649 708 732 q 758 461 758 565 q 733 272 758 357 q 657 126 708 186 q 528 33 606 65 q 346 0 451 0 l 133 0 m 197 54 l 339 54 q 497 84 431 54 q 607 168 564 114 q 671 297 650 222 q 692 461 692 371 q 671 624 692 550 q 607 750 650 697 q 497 832 564 803 q 339 861 431 861 l 197 861 l 197 54 z "},"E":{"ha":833,"x_min":176,"x_max":732,"o":"m 176 0 l 176 915 l 718 915 l 718 860 l 240 860 l 240 514 l 643 514 l 643 458 l 240 458 l 240 56 l 732 56 l 732 0 l 176 0 z "},"F":{"ha":833,"x_min":208,"x_max":743,"o":"m 208 0 l 208 915 l 743 915 l 743 860 l 272 860 l 272 496 l 668 496 l 668 440 l 272 440 l 272 0 l 208 0 z "},"G":{"ha":833,"x_min":82,"x_max":729,"o":"m 464 -17 q 308 17 378 -17 q 188 112 238 50 q 110 262 138 174 q 82 460 82 350 q 110 656 82 568 q 191 805 139 743 q 315 899 243 867 q 476 932 388 932 q 559 922 522 932 q 626 897 596 913 q 678 861 656 881 q 719 822 701 842 l 682 781 q 599 847 647 819 q 476 874 550 874 q 340 844 401 874 q 237 762 279 815 q 172 632 194 708 q 149 460 149 556 q 170 287 149 364 q 233 156 192 210 q 334 72 275 101 q 468 42 393 42 q 582 60 529 42 q 667 111 635 78 l 667 396 l 456 396 l 456 450 l 729 450 l 729 88 q 620 13 688 42 q 464 -17 553 -17 z "},"H":{"ha":833,"x_min":124,"x_max":710,"o":"m 124 0 l 124 915 l 188 915 l 188 514 l 646 514 l 646 915 l 710 915 l 710 0 l 646 0 l 646 458 l 188 458 l 188 0 l 124 0 z "},"I":{"ha":833,"x_min":149,"x_max":685,"o":"m 149 0 l 149 56 l 385 56 l 385 860 l 149 860 l 149 915 l 685 915 l 685 860 l 449 860 l 449 56 l 685 56 l 685 0 l 149 0 z "},"J":{"ha":833,"x_min":129,"x_max":667,"o":"m 385 -17 q 239 22 308 -17 q 129 136 169 60 l 175 174 q 271 73 215 104 q 385 42 326 42 q 551 102 500 42 q 603 289 603 163 l 603 863 l 204 863 l 204 917 l 667 917 l 667 283 q 653 166 667 221 q 606 71 639 111 q 518 7 572 31 q 385 -17 464 -17 z "},"K":{"ha":833,"x_min":160,"x_max":793,"o":"m 160 0 l 160 915 l 225 915 l 225 407 l 228 407 l 679 915 l 756 915 l 457 578 l 793 0 l 719 0 l 414 529 l 225 315 l 225 0 l 160 0 z "},"L":{"ha":833,"x_min":208,"x_max":749,"o":"m 208 0 l 208 915 l 269 915 l 269 56 l 749 56 l 749 0 l 208 0 z "},"M":{"ha":833,"x_min":113,"x_max":721,"o":"m 113 0 l 113 915 l 197 915 l 357 486 l 414 326 l 419 326 l 474 486 l 636 915 l 721 915 l 721 0 l 658 0 l 658 625 q 661 734 658 674 q 667 842 664 794 l 663 842 l 613 685 l 440 243 l 390 243 l 221 685 l 167 842 l 164 842 q 169 734 165 794 q 174 625 174 674 l 174 0 l 113 0 z "},"N":{"ha":833,"x_min":128,"x_max":706,"o":"m 128 0 l 128 915 l 196 915 l 553 268 l 650 88 l 653 88 q 648 220 651 154 q 644 353 644 286 l 644 915 l 706 915 l 706 0 l 638 0 l 281 647 l 183 828 l 181 828 q 185 698 182 761 q 189 568 189 635 l 189 0 l 128 0 z "},"O":{"ha":833,"x_min":75,"x_max":758,"o":"m 417 -17 q 279 17 342 -17 q 171 113 217 50 q 100 263 125 175 q 75 461 75 351 q 100 657 75 569 q 171 806 125 744 q 279 899 217 867 q 417 932 342 932 q 554 899 492 932 q 663 806 617 867 q 733 657 708 744 q 758 461 758 569 q 733 263 758 351 q 663 113 708 175 q 554 17 617 50 q 417 -17 492 -17 m 417 42 q 528 72 478 42 q 615 156 579 101 q 672 288 651 210 q 692 461 692 365 q 672 633 692 557 q 615 763 651 710 q 528 845 579 817 q 417 874 478 874 q 305 845 356 874 q 218 763 254 817 q 162 633 182 710 q 142 461 142 557 q 162 288 142 365 q 218 156 182 210 q 305 72 254 101 q 417 42 356 42 z "},"P":{"ha":833,"x_min":164,"x_max":739,"o":"m 164 0 l 164 915 l 413 915 q 549 902 489 915 q 652 858 610 889 q 717 779 694 828 q 739 660 739 731 q 653 459 739 525 q 413 393 567 393 l 228 393 l 228 0 l 164 0 m 228 447 l 397 447 q 606 497 538 447 q 674 660 674 547 q 656 756 674 718 q 605 818 639 794 q 519 851 571 842 q 397 861 467 861 l 228 861 l 228 447 z "},"Q":{"ha":833,"x_min":79,"x_max":754,"o":"m 417 38 q 529 67 479 38 q 615 153 579 97 q 669 287 650 208 q 689 461 689 365 q 669 634 689 557 q 615 765 650 711 q 529 849 579 819 q 417 878 479 878 q 303 849 354 878 q 217 765 253 819 q 163 634 182 711 q 144 461 144 557 q 163 287 144 365 q 217 153 182 208 q 303 67 253 97 q 417 38 354 38 m 663 -212 q 560 -197 606 -212 q 481 -156 515 -182 q 422 -93 446 -129 q 382 -15 397 -57 q 258 30 314 -7 q 163 128 203 67 q 101 274 124 190 q 79 461 79 358 q 103 657 79 569 q 173 806 128 744 q 280 901 218 868 q 417 933 342 933 q 554 901 492 933 q 661 806 617 868 q 730 657 706 744 q 754 461 754 569 q 733 274 754 358 q 672 129 711 190 q 576 31 632 68 q 453 -14 521 -6 q 531 -117 476 -81 q 669 -153 585 -153 q 735 -142 710 -153 l 747 -200 q 663 -212 703 -212 z "},"R":{"ha":833,"x_min":163,"x_max":743,"o":"m 163 0 l 163 915 l 424 915 q 547 902 492 915 q 642 860 603 889 q 703 785 682 831 q 725 674 725 739 q 662 502 725 564 q 490 425 599 440 l 743 0 l 668 0 l 421 421 l 226 421 l 226 0 l 163 0 m 226 474 l 407 474 q 594 523 529 474 q 660 674 660 572 q 594 819 660 776 q 407 861 529 861 l 226 861 l 226 474 z "},"S":{"ha":833,"x_min":106,"x_max":735,"o":"m 429 -17 q 244 22 324 -17 q 106 121 164 60 l 147 165 q 272 75 200 108 q 431 42 344 42 q 606 92 542 42 q 671 224 671 143 q 656 297 671 267 q 617 348 642 326 q 560 385 593 369 q 492 417 528 401 l 354 479 q 287 510 322 492 q 222 555 251 528 q 174 619 193 582 q 154 707 154 656 q 175 798 154 757 q 233 869 196 839 q 322 915 271 899 q 433 932 374 932 q 590 899 521 932 q 703 822 658 867 l 665 781 q 565 848 622 822 q 432 874 507 874 q 277 829 336 874 q 218 710 218 785 q 235 642 218 669 q 277 594 251 614 q 333 559 303 574 q 390 533 363 544 l 528 472 q 607 435 569 456 q 673 386 644 414 q 718 320 701 358 q 735 229 735 282 q 713 131 735 176 q 651 53 692 86 q 555 2 611 21 q 429 -17 499 -17 z "},"T":{"ha":833,"x_min":67,"x_max":767,"o":"m 385 0 l 385 860 l 67 860 l 67 915 l 767 915 l 767 860 l 449 860 l 449 0 l 385 0 z "},"U":{"ha":833,"x_min":124,"x_max":710,"o":"m 417 -17 q 306 1 360 -17 q 213 59 253 18 q 148 169 172 100 q 124 343 124 239 l 124 915 l 188 915 l 188 350 q 206 202 188 261 q 256 108 225 143 q 329 57 288 72 q 417 42 371 42 q 506 57 464 42 q 581 108 549 72 q 631 202 613 143 q 650 350 650 261 l 650 915 l 710 915 l 710 343 q 685 169 710 239 q 621 59 661 100 q 528 1 581 18 q 417 -17 475 -17 z "},"V":{"ha":833,"x_min":82,"x_max":751,"o":"m 383 0 l 82 915 l 150 915 l 319 381 q 344 301 332 339 q 367 227 356 264 q 390 153 378 190 q 415 74 401 115 l 421 74 q 470 227 449 157 q 518 381 492 297 l 688 915 l 751 915 l 453 0 l 383 0 z "},"W":{"ha":833,"x_min":19,"x_max":814,"o":"m 169 0 l 19 917 l 83 917 l 181 290 q 195 183 188 235 q 208 74 203 132 l 213 74 q 242 183 228 132 q 272 290 257 235 l 386 678 l 451 678 l 565 290 q 595 183 581 235 q 625 74 610 132 l 631 74 q 644 183 638 132 q 658 290 651 235 l 751 917 l 814 917 l 667 0 l 585 0 l 458 435 q 439 515 447 475 q 419 594 431 554 l 415 594 q 395 515 404 554 q 374 435 386 475 l 251 0 l 169 0 z "},"X":{"ha":833,"x_min":104,"x_max":729,"o":"m 104 0 l 381 474 l 124 915 l 193 915 l 344 646 q 380 586 364 614 q 419 521 396 558 l 425 521 q 460 586 444 558 q 493 646 475 614 l 644 915 l 710 915 l 453 471 l 729 0 l 660 0 l 499 281 q 459 350 479 315 q 415 426 439 385 l 410 426 q 368 350 386 385 q 331 281 350 315 l 169 0 l 104 0 z "},"Y":{"ha":833,"x_min":71,"x_max":763,"o":"m 385 0 l 385 336 l 71 915 l 136 915 l 299 613 q 358 506 331 560 q 417 397 385 453 l 422 397 q 484 507 454 453 q 542 614 514 561 l 700 915 l 763 915 l 449 336 l 449 0 l 385 0 z "},"Z":{"ha":833,"x_min":97,"x_max":743,"o":"m 97 0 l 97 39 l 657 863 l 144 863 l 144 917 l 733 917 l 733 878 l 174 56 l 743 56 l 743 0 l 97 0 z "},"a":{"ha":833,"x_min":128,"x_max":700,"o":"m 360 -17 q 273 -6 315 -17 q 199 28 231 6 q 147 85 167 50 q 128 167 128 119 q 157 264 128 222 q 248 336 186 306 q 406 386 310 367 q 639 418 503 406 q 629 498 639 460 q 597 565 619 536 q 535 612 574 594 q 440 629 497 629 q 367 621 403 629 q 297 599 331 613 q 236 569 264 585 q 188 539 208 553 l 160 585 q 210 616 179 599 q 279 648 242 633 q 360 673 317 663 q 447 683 403 683 q 562 663 514 683 q 640 608 610 643 q 685 527 671 574 q 700 426 700 481 l 700 0 l 649 0 l 642 100 l 639 100 q 508 19 581 54 q 360 -17 435 -17 m 371 36 q 639 157 497 36 l 639 371 q 426 342 511 360 q 288 299 340 324 q 213 242 235 274 q 190 169 190 210 q 206 108 190 133 q 247 67 221 83 q 305 44 272 51 q 371 36 338 36 z "},"b":{"ha":833,"x_min":146,"x_max":740,"o":"m 431 -17 q 318 8 379 -17 q 207 75 257 33 l 204 75 l 197 0 l 146 0 l 146 999 l 208 999 l 208 710 l 204 567 l 207 567 q 325 651 258 619 q 457 683 392 683 q 669 591 599 683 q 740 343 740 499 q 715 192 740 258 q 647 78 689 125 q 548 8 604 32 q 431 -17 492 -17 m 428 38 q 527 60 482 38 q 605 122 572 82 q 656 219 638 163 q 675 343 675 275 q 663 457 675 404 q 623 548 650 510 q 552 608 596 586 q 447 629 508 629 q 333 599 394 629 q 208 507 271 569 l 208 136 q 326 60 267 83 q 428 38 386 38 z "},"c":{"ha":833,"x_min":121,"x_max":742,"o":"m 482 -17 q 338 7 404 -17 q 224 75 272 31 q 148 184 175 119 q 121 332 121 249 q 149 481 121 415 q 228 592 178 547 q 344 660 278 636 q 485 683 410 683 q 626 653 568 683 q 725 582 683 622 l 689 540 q 597 605 646 581 q 486 629 549 629 q 364 608 419 629 q 269 547 308 586 q 208 453 229 507 q 186 332 186 399 q 208 213 186 267 q 268 119 229 158 q 363 59 307 81 q 485 38 418 38 q 609 65 553 38 q 710 133 665 92 l 742 90 q 625 13 689 42 q 482 -17 561 -17 z "},"d":{"ha":833,"x_min":93,"x_max":688,"o":"m 388 -17 q 268 6 322 -17 q 175 74 214 29 q 115 183 136 118 q 93 332 93 247 q 119 478 93 413 q 188 589 144 543 q 288 659 232 635 q 407 683 344 683 q 524 658 471 683 q 626 589 576 633 l 629 589 l 625 724 l 625 999 l 688 999 l 688 0 l 635 0 l 628 99 l 625 99 q 519 18 581 53 q 388 -17 458 -17 m 396 38 q 512 69 454 38 q 625 160 569 101 l 625 531 q 516 607 568 585 q 411 629 464 629 q 313 606 358 629 q 232 544 267 583 q 178 449 197 504 q 158 332 158 394 q 174 211 158 265 q 221 119 190 157 q 296 59 251 81 q 396 38 340 38 z "},"e":{"ha":833,"x_min":107,"x_max":739,"o":"m 458 -17 q 322 7 386 -17 q 210 76 258 31 q 135 186 163 121 q 107 333 107 251 q 135 479 107 414 q 208 590 163 544 q 315 659 254 635 q 440 683 375 683 q 564 662 508 683 q 658 601 619 640 q 718 504 697 561 q 739 375 739 447 q 739 349 739 363 q 736 324 739 336 l 169 324 q 195 200 171 254 q 260 110 219 146 q 352 55 300 74 q 463 36 404 36 q 585 56 531 36 q 686 108 639 76 l 711 63 q 607 8 667 32 q 458 -17 547 -17 m 442 631 q 348 614 393 631 q 266 565 303 597 q 204 485 229 532 q 172 376 179 438 l 683 376 q 610 568 676 506 q 442 631 543 631 z "},"f":{"ha":833,"x_min":160,"x_max":797,"o":"m 361 0 l 361 614 l 160 614 l 160 661 l 361 667 l 361 747 q 422 944 361 874 q 610 1015 483 1015 q 700 1007 654 1015 q 797 975 746 999 l 778 928 q 696 956 731 949 q 614 963 661 963 q 524 947 561 963 q 464 904 488 932 q 430 838 440 876 q 419 753 419 800 l 419 667 l 729 667 l 729 614 l 419 614 l 419 0 l 361 0 z "},"g":{"ha":833,"x_min":117,"x_max":781,"o":"m 428 -321 q 194 -268 271 -321 q 117 -128 117 -215 q 146 -46 117 -87 q 229 29 175 -4 l 229 35 q 182 74 204 47 q 160 142 160 100 q 180 207 160 174 q 240 268 200 240 l 240 274 q 185 342 208 300 q 161 446 161 385 q 181 541 161 497 q 234 616 200 585 q 313 665 268 647 q 410 683 358 683 q 501 667 461 683 l 779 667 l 779 614 l 578 614 q 632 540 608 583 q 656 444 656 497 q 636 351 656 393 q 583 278 617 308 q 506 230 550 247 q 410 213 461 213 q 347 220 379 213 q 283 243 314 228 q 236 201 254 225 q 218 150 218 178 q 260 79 218 101 q 372 57 301 57 l 538 57 q 723 23 665 57 q 781 -93 781 -11 q 756 -177 781 -136 q 685 -250 731 -218 q 574 -301 639 -282 q 428 -321 508 -321 m 410 261 q 481 274 447 261 q 540 312 515 288 q 580 370 565 336 q 594 446 594 404 q 580 520 594 486 q 540 579 565 554 q 481 618 515 604 q 410 632 447 632 q 337 618 371 632 q 278 579 303 604 q 238 520 253 554 q 224 446 224 486 q 238 370 224 404 q 278 312 253 336 q 337 274 303 288 q 410 261 371 261 m 424 -271 q 547 -256 492 -271 q 639 -217 601 -240 q 697 -162 676 -193 q 717 -100 717 -132 q 674 -22 717 -43 q 543 -1 631 -1 l 385 -1 q 333 1 360 -1 q 283 11 307 4 q 199 -57 222 -21 q 175 -129 175 -93 q 236 -231 175 -190 q 424 -271 297 -271 z "},"h":{"ha":833,"x_min":146,"x_max":714,"o":"m 146 0 l 146 999 l 208 999 l 208 710 l 204 535 l 207 535 q 331 642 267 600 q 474 683 394 683 q 714 415 714 683 l 714 0 l 651 0 l 651 407 q 608 574 651 519 q 464 628 564 628 q 397 619 428 628 q 337 591 367 610 q 276 544 307 572 q 208 478 244 515 l 208 0 l 146 0 z "},"i":{"ha":833,"x_min":135,"x_max":550,"o":"m 469 0 l 469 614 l 135 614 l 135 667 l 531 667 l 531 0 l 469 0 m 485 829 q 438 847 457 829 q 419 896 419 864 q 438 944 419 926 q 485 963 457 963 q 531 944 513 963 q 550 896 550 926 q 531 847 550 864 q 485 829 513 829 z "},"j":{"ha":833,"x_min":88,"x_max":550,"o":"m 269 -318 q 174 -306 222 -318 q 88 -274 125 -293 l 113 -225 q 188 -253 146 -242 q 274 -265 231 -265 q 370 -251 332 -265 q 430 -209 408 -236 q 460 -144 451 -182 q 469 -60 469 -106 l 469 614 l 135 614 l 135 667 l 531 667 l 531 -51 q 517 -162 531 -112 q 474 -246 504 -211 q 394 -299 444 -281 q 269 -318 344 -318 m 485 829 q 438 847 457 829 q 419 896 419 864 q 438 944 419 926 q 485 963 457 963 q 531 944 513 963 q 550 896 550 926 q 531 847 550 864 q 485 829 513 829 z "},"k":{"ha":833,"x_min":171,"x_max":788,"o":"m 171 0 l 171 999 l 233 999 l 233 265 l 239 265 l 667 667 l 743 667 l 469 410 l 788 0 l 717 0 l 428 371 l 233 189 l 233 0 l 171 0 z "},"l":{"ha":833,"x_min":124,"x_max":740,"o":"m 575 -17 q 428 35 479 -17 q 376 201 376 88 l 376 946 l 124 946 l 124 999 l 438 999 l 438 193 q 475 76 438 114 q 583 38 513 38 q 721 72 650 38 l 740 25 q 660 -6 697 4 q 575 -17 624 -17 z "},"m":{"ha":833,"x_min":103,"x_max":758,"o":"m 103 0 l 103 667 l 154 667 l 161 576 l 164 576 q 227 654 193 625 q 318 683 261 683 q 450 565 424 683 q 522 653 486 622 q 614 683 557 683 q 722 633 685 683 q 758 483 758 583 l 758 0 l 697 0 l 697 476 q 601 628 697 628 q 525 597 557 628 q 460 503 493 565 l 460 0 l 401 0 l 401 476 q 307 628 401 628 q 228 597 261 628 q 164 503 196 565 l 164 0 l 103 0 z "},"n":{"ha":833,"x_min":146,"x_max":714,"o":"m 146 0 l 146 667 l 199 667 l 206 539 l 211 539 q 331 642 269 601 q 474 683 393 683 q 714 415 714 683 l 714 0 l 651 0 l 651 407 q 608 574 651 519 q 464 628 564 628 q 397 619 428 628 q 337 591 367 610 q 276 544 307 572 q 208 478 244 515 l 208 0 l 146 0 z "},"o":{"ha":833,"x_min":93,"x_max":740,"o":"m 417 -17 q 292 7 351 -17 q 189 75 233 31 q 119 184 144 119 q 93 332 93 249 q 119 481 93 415 q 189 592 144 547 q 292 660 233 636 q 417 683 351 683 q 541 660 482 683 q 644 592 600 636 q 715 481 689 547 q 740 332 740 415 q 715 184 740 249 q 644 75 689 119 q 541 7 600 31 q 417 -17 482 -17 m 417 38 q 520 59 472 38 q 602 119 568 81 q 656 213 636 158 q 675 332 675 267 q 656 453 675 399 q 602 547 636 507 q 520 608 568 586 q 417 629 472 629 q 313 608 360 629 q 231 547 265 586 q 178 453 197 507 q 158 332 158 399 q 178 213 158 267 q 231 119 197 158 q 313 59 265 81 q 417 38 360 38 z "},"p":{"ha":833,"x_min":146,"x_max":740,"o":"m 146 -301 l 146 667 l 199 667 l 206 571 l 208 571 q 325 651 258 619 q 457 683 392 683 q 669 591 599 683 q 740 343 740 499 q 715 192 740 258 q 647 78 689 125 q 547 8 604 32 q 428 -17 490 -17 q 318 8 379 -17 q 207 78 257 33 l 204 78 l 208 -58 l 208 -301 l 146 -301 m 425 38 q 525 60 479 38 q 604 122 571 82 q 656 219 638 163 q 675 343 675 275 q 663 457 675 404 q 623 548 650 510 q 552 608 596 586 q 447 629 508 629 q 333 599 394 629 q 208 507 271 569 l 208 136 q 326 60 267 83 q 425 38 385 38 z "},"q":{"ha":833,"x_min":93,"x_max":688,"o":"m 625 -301 l 625 -33 l 629 100 l 626 100 q 519 17 579 51 q 388 -17 458 -17 q 268 6 322 -17 q 175 74 214 29 q 115 183 136 118 q 93 332 93 247 q 119 478 93 413 q 188 589 144 543 q 288 659 232 635 q 407 683 344 683 q 524 659 472 683 q 626 590 576 635 l 629 590 l 636 667 l 688 667 l 688 -301 l 625 -301 m 396 38 q 512 69 454 38 q 625 160 569 101 l 625 531 q 516 607 568 585 q 411 629 464 629 q 313 606 358 629 q 232 544 267 583 q 178 449 197 504 q 158 332 158 394 q 174 211 158 265 q 221 119 190 157 q 296 59 251 81 q 396 38 340 38 z "},"r":{"ha":833,"x_min":226,"x_max":736,"o":"m 226 0 l 226 667 l 279 667 l 286 503 l 289 503 q 423 633 343 582 q 603 683 503 683 q 670 678 636 683 q 736 656 704 672 l 719 601 q 658 619 683 614 q 593 625 632 625 q 434 578 510 625 q 289 417 358 531 l 289 0 l 226 0 z "},"s":{"ha":833,"x_min":114,"x_max":718,"o":"m 443 -17 q 256 15 339 -17 q 114 89 174 47 l 146 133 q 273 63 203 90 q 449 36 343 36 q 603 76 551 36 q 654 168 654 115 q 647 210 654 190 q 616 249 640 231 q 545 285 592 268 q 419 319 499 303 q 222 388 292 344 q 153 506 153 432 q 168 574 153 542 q 216 631 183 607 q 298 669 249 656 q 414 683 347 683 q 551 660 481 683 q 669 601 621 636 l 636 557 q 535 610 592 590 q 410 631 478 631 q 318 620 356 631 q 258 593 281 610 q 226 555 236 576 q 217 510 217 533 q 270 426 217 457 q 436 372 324 396 q 577 335 522 354 q 663 291 632 315 q 706 238 694 267 q 718 171 718 208 q 700 99 718 133 q 647 40 682 65 q 560 -1 611 14 q 443 -17 508 -17 z "},"t":{"ha":833,"x_min":111,"x_max":754,"o":"m 551 -17 q 436 3 482 -17 q 363 57 390 22 q 324 141 336 92 q 313 250 313 190 l 313 614 l 111 614 l 111 661 l 314 667 l 322 888 l 374 888 l 374 667 l 729 667 l 729 614 l 374 614 l 374 244 q 382 158 374 196 q 411 92 390 119 q 468 51 432 65 q 560 38 504 38 q 655 47 613 38 q 738 72 697 56 l 754 25 q 661 -6 708 6 q 551 -17 614 -17 z "},"u":{"ha":833,"x_min":121,"x_max":686,"o":"m 360 -17 q 121 251 121 -17 l 121 667 l 182 667 l 182 260 q 226 93 182 147 q 369 39 269 39 q 436 48 404 39 q 499 76 468 57 q 560 123 529 94 q 625 190 590 151 l 625 667 l 686 667 l 686 0 l 635 0 l 628 129 l 622 129 q 504 24 568 65 q 360 -17 440 -17 z "},"v":{"ha":833,"x_min":86,"x_max":747,"o":"m 386 0 l 86 667 l 150 667 l 333 249 q 417 57 379 149 l 422 57 q 461 151 442 103 q 503 249 481 199 l 688 667 l 747 667 l 451 0 l 386 0 z "},"w":{"ha":833,"x_min":15,"x_max":818,"o":"m 186 0 l 15 667 l 81 667 l 186 235 q 208 145 197 189 q 226 57 218 101 l 232 57 q 253 145 242 101 q 275 235 264 189 l 382 656 l 456 656 l 561 235 q 584 145 572 189 q 606 57 596 101 l 611 57 q 632 145 622 101 q 653 235 642 189 l 757 667 l 818 667 l 650 0 l 567 0 l 463 403 q 442 494 451 447 q 419 594 432 542 l 414 594 q 393 494 403 542 q 371 401 383 446 l 269 0 l 186 0 z "},"x":{"ha":833,"x_min":111,"x_max":722,"o":"m 111 0 l 378 346 l 133 667 l 203 667 l 332 497 q 372 441 351 469 q 415 385 393 413 l 421 385 q 466 442 443 413 q 508 500 489 472 l 633 667 l 701 667 l 453 343 l 722 0 l 651 0 l 510 181 q 463 242 488 208 q 415 304 439 275 l 410 304 q 363 242 386 272 q 317 179 340 213 l 179 0 l 111 0 z "},"y":{"ha":833,"x_min":83,"x_max":750,"o":"m 174 -304 q 131 -301 153 -304 q 93 -290 108 -297 l 110 -236 q 140 -244 122 -240 q 175 -247 157 -247 q 303 -197 253 -247 q 383 -71 353 -147 l 407 -12 l 83 667 l 147 667 l 342 247 q 385 155 361 206 q 433 60 410 104 l 439 60 q 478 154 458 104 q 517 247 499 204 l 690 667 l 750 667 l 436 -83 q 398 -165 421 -125 q 343 -236 375 -206 q 269 -285 311 -267 q 174 -304 226 -304 z "},"z":{"ha":833,"x_min":100,"x_max":731,"o":"m 100 0 l 100 33 l 622 614 l 156 614 l 156 667 l 715 667 l 715 635 l 193 54 l 731 54 l 731 0 l 100 0 z "},"À":{"ha":833,"x_min":63,"x_max":771,"o":"m 313 539 l 254 368 l 579 368 l 521 539 q 468 696 493 621 q 419 856 443 771 l 414 856 q 365 696 390 771 q 313 539 340 621 m 63 0 l 385 915 l 449 915 l 771 0 l 703 0 l 597 314 l 235 314 l 126 0 l 63 0 m 450 981 l 265 1138 l 306 1183 l 478 1013 l 450 981 z "},"Á":{"ha":833,"x_min":63,"x_max":771,"o":"m 313 539 l 254 368 l 579 368 l 521 539 q 468 696 493 621 q 419 856 443 771 l 414 856 q 365 696 390 771 q 313 539 340 621 m 63 0 l 385 915 l 449 915 l 771 0 l 703 0 l 597 314 l 235 314 l 126 0 l 63 0 m 383 981 l 356 1013 l 528 1183 l 568 1138 l 383 981 z "},"Â":{"ha":833,"x_min":63,"x_max":771,"o":"m 313 539 l 254 368 l 579 368 l 521 539 q 468 696 493 621 q 419 856 443 771 l 414 856 q 365 696 390 771 q 313 539 340 621 m 63 0 l 385 915 l 449 915 l 771 0 l 703 0 l 597 314 l 235 314 l 126 0 l 63 0 m 257 982 l 229 1008 l 386 1165 l 447 1165 l 604 1008 l 576 982 l 419 1118 l 414 1118 l 257 982 z "},"Ã":{"ha":833,"x_min":63,"x_max":771,"o":"m 313 539 l 254 368 l 579 368 l 521 539 q 468 696 493 621 q 419 856 443 771 l 414 856 q 365 696 390 771 q 313 539 340 621 m 63 0 l 385 915 l 449 915 l 771 0 l 703 0 l 597 314 l 235 314 l 126 0 l 63 0 m 524 997 q 456 1015 483 997 q 405 1052 428 1032 q 360 1090 382 1072 q 310 1107 339 1107 q 258 1078 279 1107 q 233 1001 238 1050 l 188 1006 q 222 1115 190 1071 q 310 1158 253 1158 q 378 1141 350 1158 q 428 1103 406 1124 q 473 1066 451 1083 q 524 1049 494 1049 q 574 1078 554 1049 q 600 1156 593 1107 l 646 1151 q 612 1042 643 1086 q 524 997 581 997 z "},"Ä":{"ha":833,"x_min":63,"x_max":771,"o":"m 313 539 l 254 368 l 579 368 l 521 539 q 468 696 493 621 q 419 856 443 771 l 414 856 q 365 696 390 771 q 313 539 340 621 m 63 0 l 385 915 l 449 915 l 771 0 l 703 0 l 597 314 l 235 314 l 126 0 l 63 0 m 306 1007 q 269 1021 283 1007 q 254 1058 254 1035 q 269 1096 254 1082 q 306 1110 283 1110 q 342 1096 328 1110 q 357 1058 357 1082 q 342 1021 357 1035 q 306 1007 328 1007 m 528 1007 q 491 1021 506 1007 q 476 1058 476 1035 q 491 1096 476 1082 q 528 1110 506 1110 q 565 1096 550 1110 q 579 1058 579 1082 q 565 1021 579 1035 q 528 1007 550 1007 z "},"Ā":{"ha":833,"x_min":63,"x_max":771,"o":"m 313 539 l 254 368 l 579 368 l 521 539 q 468 696 493 621 q 419 856 443 771 l 414 856 q 365 696 390 771 q 313 539 340 621 m 63 0 l 385 915 l 449 915 l 771 0 l 703 0 l 597 314 l 235 314 l 126 0 l 63 0 m 244 1032 l 244 1082 l 589 1082 l 589 1032 l 244 1032 z "},"Ă":{"ha":833,"x_min":63,"x_max":771,"o":"m 313 539 l 254 368 l 579 368 l 521 539 q 468 696 493 621 q 419 856 443 771 l 414 856 q 365 696 390 771 q 313 539 340 621 m 63 0 l 385 915 l 449 915 l 771 0 l 703 0 l 597 314 l 235 314 l 126 0 l 63 0 m 417 986 q 337 1001 371 986 q 280 1042 303 1017 q 244 1097 257 1067 q 228 1158 232 1128 l 274 1165 q 288 1115 278 1139 q 315 1073 297 1092 q 358 1043 333 1054 q 417 1032 383 1032 q 475 1043 450 1032 q 518 1073 500 1054 q 546 1115 536 1092 q 560 1165 556 1139 l 606 1158 q 589 1097 601 1128 q 553 1042 576 1067 q 497 1001 531 1017 q 417 986 463 986 z "},"Å":{"ha":833,"x_min":63,"x_max":771,"o":"m 313 539 l 254 368 l 579 368 l 521 539 q 468 696 493 621 q 419 856 443 771 l 414 856 q 365 696 390 771 q 313 539 340 621 m 63 0 l 385 915 l 449 915 l 771 0 l 703 0 l 597 314 l 235 314 l 126 0 l 63 0 m 417 972 q 330 1005 365 972 q 294 1090 294 1038 q 330 1178 294 1146 q 417 1210 365 1210 q 503 1178 467 1210 q 539 1090 539 1146 q 503 1005 539 1038 q 417 972 467 972 m 417 1008 q 472 1029 449 1008 q 494 1090 494 1050 q 472 1152 494 1131 q 417 1174 449 1174 q 360 1152 383 1174 q 336 1090 336 1131 q 360 1029 336 1050 q 417 1008 383 1008 z "},"Ǻ":{"ha":833,"x_min":63,"x_max":771,"o":"m 313 539 l 254 368 l 579 368 l 521 539 q 468 696 493 621 q 419 856 443 771 l 414 856 q 365 696 390 771 q 313 539 340 621 m 63 0 l 385 915 l 449 915 l 771 0 l 703 0 l 597 314 l 235 314 l 126 0 l 63 0 m 417 972 q 330 1005 365 972 q 294 1090 294 1038 q 310 1152 294 1126 q 350 1193 325 1178 l 515 1313 l 547 1269 l 442 1207 q 510 1169 482 1200 q 539 1090 539 1139 q 503 1005 539 1038 q 417 972 467 972 m 417 1008 q 472 1029 449 1008 q 494 1090 494 1050 q 472 1152 494 1131 q 417 1174 449 1174 q 360 1152 383 1174 q 336 1090 336 1131 q 360 1029 336 1050 q 417 1008 383 1008 z "},"Ǎ":{"ha":833,"x_min":63,"x_max":771,"o":"m 313 539 l 254 368 l 579 368 l 521 539 q 468 696 493 621 q 419 856 443 771 l 414 856 q 365 696 390 771 q 313 539 340 621 m 63 0 l 385 915 l 449 915 l 771 0 l 703 0 l 597 314 l 235 314 l 126 0 l 63 0 m 386 985 l 229 1143 l 257 1168 l 414 1032 l 419 1032 l 576 1168 l 604 1143 l 447 985 l 386 985 z "},"Ą":{"ha":833,"x_min":63,"x_max":836,"o":"m 722 -311 q 628 -281 665 -311 q 590 -187 590 -251 q 601 -129 590 -157 q 628 -78 611 -101 q 668 -36 646 -56 q 713 0 690 -17 l 703 0 l 597 314 l 235 314 l 126 0 l 63 0 l 385 915 l 449 915 l 771 0 q 683 -78 719 -33 q 646 -179 646 -124 q 672 -241 646 -221 q 731 -261 697 -261 q 775 -251 757 -261 q 808 -226 793 -242 l 836 -261 q 788 -297 814 -282 q 722 -311 763 -311 m 313 539 l 254 368 l 579 368 l 521 539 q 468 696 493 621 q 419 856 443 771 l 414 856 q 365 696 390 771 q 313 539 340 621 z "},"Ạ":{"ha":833,"x_min":63,"x_max":771,"o":"m 313 539 l 254 368 l 579 368 l 521 539 q 468 696 493 621 q 419 856 443 771 l 414 856 q 365 696 390 771 q 313 539 340 621 m 63 0 l 385 915 l 449 915 l 771 0 l 703 0 l 597 314 l 235 314 l 126 0 l 63 0 m 417 -272 q 370 -255 389 -272 q 351 -206 351 -237 q 370 -157 351 -175 q 417 -139 389 -139 q 463 -157 444 -139 q 482 -206 482 -175 q 463 -255 482 -237 q 417 -272 444 -272 z "},"Ả":{"ha":833,"x_min":63,"x_max":771,"o":"m 313 539 l 254 368 l 579 368 l 521 539 q 468 696 493 621 q 419 856 443 771 l 414 856 q 365 696 390 771 q 313 539 340 621 m 63 0 l 385 915 l 449 915 l 771 0 l 703 0 l 597 314 l 235 314 l 126 0 l 63 0 m 382 975 l 371 1013 q 433 1041 408 1024 q 458 1088 458 1058 q 340 1154 458 1150 l 346 1199 q 411 1191 381 1197 q 465 1172 442 1185 q 501 1141 488 1160 q 514 1096 514 1122 q 503 1049 514 1068 q 473 1015 492 1029 q 431 992 454 1001 q 382 975 407 982 z "},"Ấ":{"ha":833,"x_min":63,"x_max":771,"o":"m 313 539 l 254 368 l 579 368 l 521 539 q 468 696 493 621 q 419 856 443 771 l 414 856 q 365 696 390 771 q 313 539 340 621 m 63 0 l 385 915 l 449 915 l 771 0 l 703 0 l 597 314 l 235 314 l 126 0 l 63 0 m 283 982 l 257 1008 l 389 1125 l 444 1125 l 576 1008 l 550 982 l 419 1076 l 414 1076 l 283 982 m 560 1063 l 531 1093 l 661 1228 l 699 1190 l 560 1063 z "},"Ầ":{"ha":833,"x_min":63,"x_max":771,"o":"m 313 539 l 254 368 l 579 368 l 521 539 q 468 696 493 621 q 419 856 443 771 l 414 856 q 365 696 390 771 q 313 539 340 621 m 63 0 l 385 915 l 449 915 l 771 0 l 703 0 l 597 314 l 235 314 l 126 0 l 63 0 m 283 982 l 257 1008 l 389 1125 l 444 1125 l 576 1008 l 550 982 l 419 1076 l 414 1076 l 283 982 m 274 1063 l 160 1196 l 197 1228 l 303 1088 l 274 1063 z "},"Ẩ":{"ha":833,"x_min":63,"x_max":771,"o":"m 313 539 l 254 368 l 579 368 l 521 539 q 468 696 493 621 q 419 856 443 771 l 414 856 q 365 696 390 771 q 313 539 340 621 m 63 0 l 385 915 l 449 915 l 771 0 l 703 0 l 597 314 l 235 314 l 126 0 l 63 0 m 283 982 l 257 1008 l 389 1125 l 444 1125 l 576 1008 l 550 982 l 419 1076 l 414 1076 l 283 982 m 558 1051 l 544 1089 q 594 1110 574 1096 q 615 1147 615 1124 q 590 1191 615 1179 q 514 1206 564 1203 l 521 1249 q 626 1224 583 1246 q 668 1154 668 1203 q 658 1113 668 1131 q 633 1083 649 1096 q 597 1063 617 1071 q 558 1051 578 1056 z "},"Ẫ":{"ha":833,"x_min":63,"x_max":771,"o":"m 313 539 l 254 368 l 579 368 l 521 539 q 468 696 493 621 q 419 856 443 771 l 414 856 q 365 696 390 771 q 313 539 340 621 m 63 0 l 385 915 l 449 915 l 771 0 l 703 0 l 597 314 l 235 314 l 126 0 l 63 0 m 283 982 l 257 1008 l 389 1124 l 444 1124 l 576 1008 l 550 982 l 419 1075 l 414 1075 l 283 982 m 513 1167 q 452 1178 476 1167 q 407 1203 428 1190 q 366 1228 386 1217 q 321 1240 346 1240 q 281 1221 293 1240 q 264 1169 268 1201 l 222 1174 q 228 1213 224 1193 q 244 1248 233 1232 q 274 1274 256 1264 q 321 1285 293 1285 q 381 1273 356 1285 q 426 1248 406 1261 q 467 1223 447 1235 q 513 1211 488 1211 q 553 1231 540 1211 q 569 1282 565 1250 l 611 1278 q 605 1239 610 1258 q 589 1203 600 1219 q 559 1177 578 1188 q 513 1167 540 1167 z "},"Ậ":{"ha":833,"x_min":63,"x_max":771,"o":"m 313 539 l 254 368 l 579 368 l 521 539 q 468 696 493 621 q 419 856 443 771 l 414 856 q 365 696 390 771 q 313 539 340 621 m 63 0 l 385 915 l 449 915 l 771 0 l 703 0 l 597 314 l 235 314 l 126 0 l 63 0 m 257 982 l 229 1008 l 386 1165 l 447 1165 l 604 1008 l 576 982 l 419 1118 l 414 1118 l 257 982 m 417 -272 q 370 -255 389 -272 q 351 -206 351 -237 q 370 -157 351 -175 q 417 -139 389 -139 q 463 -157 444 -139 q 482 -206 482 -175 q 463 -255 482 -237 q 417 -272 444 -272 z "},"Ắ":{"ha":833,"x_min":63,"x_max":771,"o":"m 313 539 l 254 368 l 579 368 l 521 539 q 468 696 493 621 q 419 856 443 771 l 414 856 q 365 696 390 771 q 313 539 340 621 m 63 0 l 385 915 l 449 915 l 771 0 l 703 0 l 597 314 l 235 314 l 126 0 l 63 0 m 417 986 q 337 1001 371 986 q 280 1042 303 1017 q 244 1097 257 1067 q 228 1158 232 1128 l 272 1165 q 286 1115 276 1139 q 314 1072 296 1090 q 358 1042 332 1053 q 417 1031 383 1031 q 476 1042 450 1031 q 519 1072 501 1053 q 547 1115 536 1090 q 561 1165 557 1139 l 606 1158 q 589 1097 601 1128 q 553 1042 576 1067 q 497 1001 531 1017 q 417 986 463 986 m 410 1114 l 378 1139 l 508 1285 l 551 1250 l 410 1114 z "},"Ằ":{"ha":833,"x_min":63,"x_max":771,"o":"m 313 539 l 254 368 l 579 368 l 521 539 q 468 696 493 621 q 419 856 443 771 l 414 856 q 365 696 390 771 q 313 539 340 621 m 63 0 l 385 915 l 449 915 l 771 0 l 703 0 l 597 314 l 235 314 l 126 0 l 63 0 m 417 986 q 337 1001 371 986 q 280 1042 303 1017 q 244 1097 257 1067 q 228 1158 232 1128 l 272 1165 q 286 1115 276 1139 q 314 1072 296 1090 q 358 1042 332 1053 q 417 1031 383 1031 q 476 1042 450 1031 q 519 1072 501 1053 q 547 1115 536 1090 q 561 1165 557 1139 l 606 1158 q 589 1097 601 1128 q 553 1042 576 1067 q 497 1001 531 1017 q 417 986 463 986 m 424 1114 l 282 1250 l 325 1285 l 456 1139 l 424 1114 z "},"Ẳ":{"ha":833,"x_min":63,"x_max":771,"o":"m 313 539 l 254 368 l 579 368 l 521 539 q 468 696 493 621 q 419 856 443 771 l 414 856 q 365 696 390 771 q 313 539 340 621 m 63 0 l 385 915 l 449 915 l 771 0 l 703 0 l 597 314 l 235 314 l 126 0 l 63 0 m 417 986 q 337 1001 371 986 q 280 1042 303 1017 q 244 1097 257 1067 q 228 1158 232 1128 l 272 1165 q 286 1115 276 1139 q 314 1072 296 1090 q 358 1042 332 1053 q 417 1031 383 1031 q 476 1042 450 1031 q 519 1072 501 1053 q 547 1115 536 1090 q 561 1165 557 1139 l 606 1158 q 589 1097 601 1128 q 553 1042 576 1067 q 497 1001 531 1017 q 417 986 463 986 m 393 1107 l 379 1144 q 429 1166 408 1153 q 450 1203 450 1179 q 424 1247 450 1235 q 349 1263 399 1260 l 356 1304 q 460 1281 418 1301 q 503 1210 503 1260 q 493 1169 503 1186 q 467 1140 483 1151 q 432 1120 451 1128 q 393 1107 413 1113 z "},"Ẵ":{"ha":833,"x_min":63,"x_max":771,"o":"m 313 539 l 254 368 l 579 368 l 521 539 q 468 696 493 621 q 419 856 443 771 l 414 856 q 365 696 390 771 q 313 539 340 621 m 63 0 l 385 915 l 449 915 l 771 0 l 703 0 l 597 314 l 235 314 l 126 0 l 63 0 m 417 988 q 337 1000 371 988 q 280 1033 303 1013 q 244 1080 257 1054 q 229 1131 232 1106 l 272 1138 q 314 1063 279 1096 q 417 1031 349 1031 q 520 1063 486 1031 q 561 1138 554 1096 l 604 1131 q 589 1080 601 1106 q 553 1033 576 1054 q 497 1000 531 1013 q 417 988 463 988 m 513 1168 q 452 1180 476 1168 q 407 1205 428 1192 q 366 1230 386 1218 q 321 1242 346 1242 q 281 1222 293 1242 q 264 1171 268 1203 l 222 1175 q 228 1214 224 1194 q 244 1249 233 1233 q 274 1276 256 1265 q 321 1286 293 1286 q 381 1274 356 1286 q 426 1249 406 1263 q 467 1224 447 1236 q 513 1213 488 1213 q 553 1232 540 1213 q 569 1283 565 1251 l 611 1279 q 605 1240 610 1260 q 589 1205 600 1221 q 559 1178 578 1189 q 513 1168 540 1168 z "},"Ặ":{"ha":833,"x_min":63,"x_max":771,"o":"m 313 539 l 254 368 l 579 368 l 521 539 q 468 696 493 621 q 419 856 443 771 l 414 856 q 365 696 390 771 q 313 539 340 621 m 63 0 l 385 915 l 449 915 l 771 0 l 703 0 l 597 314 l 235 314 l 126 0 l 63 0 m 417 986 q 337 1001 371 986 q 280 1042 303 1017 q 244 1097 257 1067 q 228 1158 232 1128 l 274 1165 q 288 1115 278 1139 q 315 1073 297 1092 q 358 1043 333 1054 q 417 1032 383 1032 q 475 1043 450 1032 q 518 1073 500 1054 q 546 1115 536 1092 q 560 1165 556 1139 l 606 1158 q 589 1097 601 1128 q 553 1042 576 1067 q 497 1001 531 1017 q 417 986 463 986 m 417 -272 q 370 -255 389 -272 q 351 -206 351 -237 q 370 -157 351 -175 q 417 -139 389 -139 q 463 -157 444 -139 q 482 -206 482 -175 q 463 -255 482 -237 q 417 -272 444 -272 z "},"Æ":{"ha":833,"x_min":0,"x_max":818,"o":"m 301 540 l 221 354 l 446 354 l 446 860 l 440 860 q 372 702 407 781 q 301 540 338 624 m 0 0 l 404 915 l 804 915 l 804 860 l 507 860 l 507 514 l 733 514 l 733 458 l 507 458 l 507 56 l 818 56 l 818 0 l 446 0 l 446 301 l 199 301 l 69 0 l 0 0 z "},"Ǽ":{"ha":833,"x_min":0,"x_max":818,"o":"m 301 540 l 221 354 l 446 354 l 446 860 l 440 860 q 372 702 407 781 q 301 540 338 624 m 0 0 l 404 915 l 804 915 l 804 860 l 507 860 l 507 514 l 733 514 l 733 458 l 507 458 l 507 56 l 818 56 l 818 0 l 446 0 l 446 301 l 199 301 l 69 0 l 0 0 m 574 981 l 546 1013 l 718 1183 l 758 1138 l 574 981 z "},"Ǣ":{"ha":833,"x_min":0,"x_max":818,"o":"m 301 540 l 221 354 l 446 354 l 446 860 l 440 860 q 372 702 407 781 q 301 540 338 624 m 0 0 l 404 915 l 804 915 l 804 860 l 507 860 l 507 514 l 733 514 l 733 458 l 507 458 l 507 56 l 818 56 l 818 0 l 446 0 l 446 301 l 199 301 l 69 0 l 0 0 m 435 1032 l 435 1082 l 779 1082 l 779 1032 l 435 1032 z "},"Ƀ":{"ha":833,"x_min":53,"x_max":749,"o":"m 161 0 l 161 242 l 53 242 l 53 286 l 161 293 l 161 915 l 393 915 q 614 862 535 915 q 693 693 693 808 q 653 567 693 621 q 531 493 613 514 l 531 488 q 691 417 633 472 q 749 267 749 363 q 660 67 749 133 q 411 0 571 0 l 161 0 m 225 54 l 394 54 q 610 105 535 54 q 686 267 686 156 q 610 412 686 365 q 394 458 535 458 l 225 458 l 225 293 l 453 293 l 453 242 l 225 242 l 225 54 m 225 514 l 368 514 q 569 558 508 514 q 629 690 629 603 q 567 822 629 782 q 375 861 506 861 l 225 861 l 225 514 z "},"Ḇ":{"ha":833,"x_min":158,"x_max":747,"o":"m 158 0 l 158 915 l 390 915 q 612 862 533 915 q 690 693 690 808 q 650 567 690 621 q 528 493 610 514 l 528 488 q 689 417 631 472 q 747 267 747 363 q 658 67 747 133 q 408 0 568 0 l 158 0 m 222 514 l 365 514 q 566 558 506 514 q 626 690 626 603 q 565 822 626 782 q 372 861 503 861 l 222 861 l 222 514 m 222 54 l 392 54 q 608 105 532 54 q 683 267 683 156 q 608 412 683 365 q 392 458 533 458 l 222 458 l 222 54 m 254 -221 l 254 -171 l 596 -171 l 596 -221 l 254 -221 z "},"Ç":{"ha":833,"x_min":100,"x_max":757,"o":"m 483 -17 q 328 17 399 -17 q 208 112 258 50 q 128 262 157 174 q 100 460 100 350 q 128 656 100 568 q 208 805 157 743 q 333 899 260 867 q 493 932 406 932 q 633 899 572 932 q 731 822 694 865 l 692 781 q 606 848 656 822 q 493 874 556 874 q 358 844 418 874 q 255 762 297 815 q 190 632 213 708 q 167 460 167 556 q 190 287 167 364 q 254 156 213 210 q 356 72 296 101 q 489 42 415 42 q 614 69 560 42 q 718 154 668 97 l 757 114 q 639 18 704 53 q 483 -17 574 -17 m 385 -304 l 375 -262 q 499 -239 465 -257 q 532 -189 532 -221 q 507 -142 532 -158 q 424 -118 482 -126 l 471 10 l 519 10 l 488 -90 q 559 -123 532 -101 q 586 -186 586 -144 q 535 -269 586 -240 q 385 -304 483 -297 z "},"Ć":{"ha":833,"x_min":100,"x_max":757,"o":"m 483 -17 q 328 17 399 -17 q 208 112 258 50 q 128 262 157 174 q 100 460 100 350 q 128 656 100 568 q 208 805 157 743 q 333 899 260 867 q 493 932 406 932 q 633 899 572 932 q 731 822 694 865 l 692 781 q 606 848 656 822 q 493 874 556 874 q 358 844 418 874 q 255 762 297 815 q 190 632 213 708 q 167 460 167 556 q 190 287 167 364 q 254 156 213 210 q 356 72 296 101 q 489 42 415 42 q 614 69 560 42 q 718 154 668 97 l 757 114 q 639 18 704 53 q 483 -17 574 -17 m 442 981 l 414 1013 l 586 1183 l 626 1138 l 442 981 z "},"Ĉ":{"ha":833,"x_min":100,"x_max":757,"o":"m 483 -17 q 328 17 399 -17 q 208 112 258 50 q 128 262 157 174 q 100 460 100 350 q 128 656 100 568 q 208 805 157 743 q 333 899 260 867 q 493 932 406 932 q 633 899 572 932 q 731 822 694 865 l 692 781 q 606 848 656 822 q 493 874 556 874 q 358 844 418 874 q 255 762 297 815 q 190 632 213 708 q 167 460 167 556 q 190 287 167 364 q 254 156 213 210 q 356 72 296 101 q 489 42 415 42 q 614 69 560 42 q 718 154 668 97 l 757 114 q 639 18 704 53 q 483 -17 574 -17 m 315 982 l 288 1008 l 444 1165 l 506 1165 l 663 1008 l 635 982 l 478 1118 l 472 1118 l 315 982 z "},"Č":{"ha":833,"x_min":100,"x_max":757,"o":"m 483 -17 q 328 17 399 -17 q 208 112 258 50 q 128 262 157 174 q 100 460 100 350 q 128 656 100 568 q 208 805 157 743 q 333 899 260 867 q 493 932 406 932 q 633 899 572 932 q 731 822 694 865 l 692 781 q 606 848 656 822 q 493 874 556 874 q 358 844 418 874 q 255 762 297 815 q 190 632 213 708 q 167 460 167 556 q 190 287 167 364 q 254 156 213 210 q 356 72 296 101 q 489 42 415 42 q 614 69 560 42 q 718 154 668 97 l 757 114 q 639 18 704 53 q 483 -17 574 -17 m 444 985 l 288 1143 l 315 1168 l 472 1032 l 478 1032 l 635 1168 l 663 1143 l 506 985 l 444 985 z "},"Ċ":{"ha":833,"x_min":100,"x_max":757,"o":"m 483 -17 q 328 17 399 -17 q 208 112 258 50 q 128 262 157 174 q 100 460 100 350 q 128 656 100 568 q 208 805 157 743 q 333 899 260 867 q 493 932 406 932 q 633 899 572 932 q 731 822 694 865 l 692 781 q 606 848 656 822 q 493 874 556 874 q 358 844 418 874 q 255 762 297 815 q 190 632 213 708 q 167 460 167 556 q 190 287 167 364 q 254 156 213 210 q 356 72 296 101 q 489 42 415 42 q 614 69 560 42 q 718 154 668 97 l 757 114 q 639 18 704 53 q 483 -17 574 -17 m 475 1001 q 435 1017 451 1001 q 418 1060 418 1033 q 435 1100 418 1085 q 475 1115 451 1115 q 515 1100 499 1115 q 532 1060 532 1085 q 515 1017 532 1033 q 475 1001 499 1001 z "},"Ď":{"ha":833,"x_min":133,"x_max":758,"o":"m 133 0 l 133 915 l 344 915 q 528 883 450 915 q 657 792 606 851 q 733 649 708 732 q 758 461 758 565 q 733 272 758 357 q 657 126 708 186 q 528 33 606 65 q 346 0 451 0 l 133 0 m 197 54 l 339 54 q 497 84 431 54 q 607 168 564 114 q 671 297 650 222 q 692 461 692 371 q 671 624 692 550 q 607 750 650 697 q 497 832 564 803 q 339 861 431 861 l 197 861 l 197 54 m 386 985 l 229 1143 l 257 1168 l 414 1032 l 419 1032 l 576 1168 l 604 1143 l 447 985 l 386 985 z "},"Ḍ":{"ha":833,"x_min":133,"x_max":758,"o":"m 133 0 l 133 915 l 344 915 q 528 883 450 915 q 657 792 606 851 q 733 649 708 732 q 758 461 758 565 q 733 272 758 357 q 657 126 708 186 q 528 33 606 65 q 346 0 451 0 l 133 0 m 197 54 l 339 54 q 497 84 431 54 q 607 168 564 114 q 671 297 650 222 q 692 461 692 371 q 671 624 692 550 q 607 750 650 697 q 497 832 564 803 q 339 861 431 861 l 197 861 l 197 54 m 406 -272 q 359 -255 378 -272 q 340 -206 340 -237 q 359 -157 340 -175 q 406 -139 378 -139 q 452 -157 433 -139 q 471 -206 471 -175 q 452 -255 471 -237 q 406 -272 433 -272 z "},"Ḏ":{"ha":833,"x_min":133,"x_max":758,"o":"m 133 0 l 133 915 l 344 915 q 528 883 450 915 q 657 792 606 851 q 733 649 708 732 q 758 461 758 565 q 733 272 758 357 q 657 126 708 186 q 528 33 606 65 q 346 0 451 0 l 133 0 m 197 54 l 339 54 q 497 84 431 54 q 607 168 564 114 q 671 297 650 222 q 692 461 692 371 q 671 624 692 550 q 607 750 650 697 q 497 832 564 803 q 339 861 431 861 l 197 861 l 197 54 m 235 -221 l 235 -171 l 576 -171 l 576 -221 l 235 -221 z "},"Ḑ":{"ha":833,"x_min":133,"x_max":758,"o":"m 133 0 l 133 915 l 344 915 q 528 883 450 915 q 657 792 606 851 q 733 649 708 732 q 758 461 758 565 q 733 272 758 357 q 657 126 708 186 q 528 33 606 65 q 346 0 451 0 l 133 0 m 197 54 l 339 54 q 497 84 431 54 q 607 168 564 114 q 671 297 650 222 q 692 461 692 371 q 671 624 692 550 q 607 750 650 697 q 497 832 564 803 q 339 861 431 861 l 197 861 l 197 54 m 296 -304 l 286 -262 q 410 -239 376 -257 q 443 -189 443 -221 q 418 -142 443 -158 q 335 -118 393 -126 l 382 10 l 431 10 l 399 -90 q 470 -123 443 -101 q 497 -186 497 -144 q 446 -269 497 -240 q 296 -304 394 -297 z "},"Đ":{"ha":833,"x_min":26,"x_max":758,"o":"m 133 0 l 133 460 l 26 460 l 26 506 l 133 513 l 133 915 l 344 915 q 528 883 450 915 q 657 792 606 851 q 733 649 708 732 q 758 461 758 565 q 733 272 758 357 q 657 126 708 186 q 528 33 606 65 q 346 0 450 0 l 133 0 m 197 54 l 339 54 q 497 84 431 54 q 607 168 564 114 q 671 297 650 222 q 692 461 692 371 q 671 624 692 550 q 607 750 650 697 q 497 832 564 803 q 339 861 431 861 l 197 861 l 197 513 l 426 513 l 426 460 l 197 460 l 197 54 z "},"Ɗ":{"ha":833,"x_min":49,"x_max":776,"o":"m 314 0 l 314 872 q 226 845 264 865 q 163 793 189 825 q 123 719 136 761 q 110 631 110 678 q 140 505 110 553 q 232 421 169 457 l 199 372 q 88 470 128 408 q 49 629 49 532 q 69 751 49 696 q 128 847 89 807 q 227 910 168 888 q 364 932 286 932 q 550 899 472 932 q 678 807 628 867 q 752 662 728 747 q 776 471 776 576 q 753 277 776 364 q 683 128 729 190 q 568 33 636 67 q 411 0 500 0 l 314 0 m 378 54 l 418 54 q 548 85 493 54 q 639 171 603 115 q 692 303 675 226 q 710 471 710 379 q 692 634 710 560 q 634 761 674 708 q 531 844 594 814 q 378 875 468 874 l 378 54 z "},"È":{"ha":833,"x_min":176,"x_max":732,"o":"m 176 0 l 176 915 l 718 915 l 718 860 l 240 860 l 240 514 l 643 514 l 643 458 l 240 458 l 240 56 l 732 56 l 732 0 l 176 0 m 500 981 l 315 1138 l 356 1183 l 528 1013 l 500 981 z "},"É":{"ha":833,"x_min":176,"x_max":732,"o":"m 176 0 l 176 915 l 718 915 l 718 860 l 240 860 l 240 514 l 643 514 l 643 458 l 240 458 l 240 56 l 732 56 l 732 0 l 176 0 m 433 981 l 406 1013 l 578 1183 l 618 1138 l 433 981 z "},"Ê":{"ha":833,"x_min":176,"x_max":732,"o":"m 176 0 l 176 915 l 718 915 l 718 860 l 240 860 l 240 514 l 643 514 l 643 458 l 240 458 l 240 56 l 732 56 l 732 0 l 176 0 m 307 982 l 279 1008 l 436 1165 l 497 1165 l 654 1008 l 626 982 l 469 1118 l 464 1118 l 307 982 z "},"Ě":{"ha":833,"x_min":176,"x_max":732,"o":"m 176 0 l 176 915 l 718 915 l 718 860 l 240 860 l 240 514 l 643 514 l 643 458 l 240 458 l 240 56 l 732 56 l 732 0 l 176 0 m 436 985 l 279 1143 l 307 1168 l 464 1032 l 469 1032 l 626 1168 l 654 1143 l 497 985 l 436 985 z "},"Ë":{"ha":833,"x_min":176,"x_max":732,"o":"m 176 0 l 176 915 l 718 915 l 718 860 l 240 860 l 240 514 l 643 514 l 643 458 l 240 458 l 240 56 l 732 56 l 732 0 l 176 0 m 356 1007 q 319 1021 333 1007 q 304 1058 304 1035 q 319 1096 304 1082 q 356 1110 333 1110 q 392 1096 378 1110 q 407 1058 407 1082 q 392 1021 407 1035 q 356 1007 378 1007 m 578 1007 q 541 1021 556 1007 q 526 1058 526 1035 q 541 1096 526 1082 q 578 1110 556 1110 q 615 1096 600 1110 q 629 1058 629 1082 q 615 1021 629 1035 q 578 1007 600 1007 z "},"Ē":{"ha":833,"x_min":176,"x_max":732,"o":"m 176 0 l 176 915 l 718 915 l 718 860 l 240 860 l 240 514 l 643 514 l 643 458 l 240 458 l 240 56 l 732 56 l 732 0 l 176 0 m 294 1032 l 294 1082 l 639 1082 l 639 1032 l 294 1032 z "},"Ĕ":{"ha":833,"x_min":176,"x_max":732,"o":"m 176 0 l 176 915 l 718 915 l 718 860 l 240 860 l 240 514 l 643 514 l 643 458 l 240 458 l 240 56 l 732 56 l 732 0 l 176 0 m 467 986 q 387 1001 421 986 q 330 1042 353 1017 q 294 1097 307 1067 q 278 1158 282 1128 l 324 1165 q 338 1115 328 1139 q 365 1073 347 1092 q 408 1043 383 1054 q 467 1032 433 1032 q 525 1043 500 1032 q 568 1073 550 1054 q 596 1115 586 1092 q 610 1165 606 1139 l 656 1158 q 639 1097 651 1128 q 603 1042 626 1067 q 547 1001 581 1017 q 467 986 513 986 z "},"Ė":{"ha":833,"x_min":176,"x_max":732,"o":"m 176 0 l 176 915 l 718 915 l 718 860 l 240 860 l 240 514 l 643 514 l 643 458 l 240 458 l 240 56 l 732 56 l 732 0 l 176 0 m 467 1001 q 426 1017 443 1001 q 410 1060 410 1033 q 426 1100 410 1085 q 467 1115 443 1115 q 507 1100 490 1115 q 524 1060 524 1085 q 507 1017 524 1033 q 467 1001 490 1001 z "},"Ę":{"ha":833,"x_min":176,"x_max":765,"o":"m 651 -311 q 557 -281 594 -311 q 519 -187 519 -251 q 556 -78 519 -126 q 643 0 593 -31 l 176 0 l 176 915 l 718 915 l 718 860 l 240 860 l 240 514 l 643 514 l 643 458 l 240 458 l 240 56 l 732 56 l 732 0 l 729 0 q 674 -23 701 -6 q 624 -65 646 -40 q 588 -119 601 -90 q 575 -179 575 -149 q 601 -241 575 -221 q 660 -261 628 -261 q 704 -251 686 -261 q 738 -226 722 -242 l 765 -261 q 717 -297 743 -282 q 651 -311 692 -311 z "},"Ẹ":{"ha":833,"x_min":176,"x_max":732,"o":"m 176 0 l 176 915 l 718 915 l 718 860 l 240 860 l 240 514 l 643 514 l 643 458 l 240 458 l 240 56 l 732 56 l 732 0 l 176 0 m 469 -272 q 423 -255 442 -272 q 404 -206 404 -237 q 423 -157 404 -175 q 469 -139 442 -139 q 516 -157 497 -139 q 535 -206 535 -175 q 516 -255 535 -237 q 469 -272 497 -272 z "},"Ẻ":{"ha":833,"x_min":176,"x_max":732,"o":"m 176 0 l 176 915 l 718 915 l 718 860 l 240 860 l 240 514 l 643 514 l 643 458 l 240 458 l 240 56 l 732 56 l 732 0 l 176 0 m 432 975 l 421 1013 q 483 1041 458 1024 q 508 1088 508 1058 q 390 1154 508 1150 l 396 1199 q 461 1191 431 1197 q 515 1172 492 1185 q 551 1141 538 1160 q 564 1096 564 1122 q 553 1049 564 1068 q 523 1015 542 1029 q 481 992 504 1001 q 432 975 457 982 z "},"Ẽ":{"ha":833,"x_min":176,"x_max":732,"o":"m 176 0 l 176 915 l 718 915 l 718 860 l 240 860 l 240 514 l 643 514 l 643 458 l 240 458 l 240 56 l 732 56 l 732 0 l 176 0 m 574 997 q 506 1015 533 997 q 455 1052 478 1032 q 410 1090 432 1072 q 360 1107 389 1107 q 308 1078 329 1107 q 283 1001 288 1050 l 238 1006 q 272 1115 240 1071 q 360 1158 303 1158 q 428 1141 400 1158 q 478 1103 456 1124 q 523 1066 501 1083 q 574 1049 544 1049 q 624 1078 604 1049 q 650 1156 643 1107 l 696 1151 q 662 1042 693 1086 q 574 997 631 997 z "},"Ế":{"ha":833,"x_min":176,"x_max":749,"o":"m 176 0 l 176 915 l 718 915 l 718 860 l 240 860 l 240 514 l 643 514 l 643 458 l 240 458 l 240 56 l 732 56 l 732 0 l 176 0 m 333 982 l 307 1008 l 439 1125 l 494 1125 l 626 1008 l 600 982 l 469 1076 l 464 1076 l 333 982 m 610 1063 l 581 1093 l 711 1228 l 749 1190 l 610 1063 z "},"Ề":{"ha":833,"x_min":176,"x_max":732,"o":"m 176 0 l 176 915 l 718 915 l 718 860 l 240 860 l 240 514 l 643 514 l 643 458 l 240 458 l 240 56 l 732 56 l 732 0 l 176 0 m 333 982 l 307 1008 l 439 1125 l 494 1125 l 626 1008 l 600 982 l 469 1076 l 464 1076 l 333 982 m 324 1063 l 210 1196 l 247 1228 l 353 1088 l 324 1063 z "},"Ể":{"ha":833,"x_min":176,"x_max":732,"o":"m 176 0 l 176 915 l 718 915 l 718 860 l 240 860 l 240 514 l 643 514 l 643 458 l 240 458 l 240 56 l 732 56 l 732 0 l 176 0 m 333 982 l 307 1008 l 439 1125 l 494 1125 l 626 1008 l 600 982 l 469 1076 l 464 1076 l 333 982 m 608 1051 l 594 1089 q 644 1110 624 1096 q 665 1147 665 1124 q 640 1191 665 1179 q 564 1206 614 1203 l 571 1249 q 676 1224 633 1246 q 718 1154 718 1203 q 708 1113 718 1131 q 683 1083 699 1096 q 647 1063 667 1071 q 608 1051 628 1056 z "},"Ễ":{"ha":833,"x_min":176,"x_max":732,"o":"m 176 0 l 176 915 l 718 915 l 718 860 l 240 860 l 240 514 l 643 514 l 643 458 l 240 458 l 240 56 l 732 56 l 732 0 l 176 0 m 333 982 l 307 1008 l 439 1124 l 494 1124 l 626 1008 l 600 982 l 469 1075 l 464 1075 l 333 982 m 563 1167 q 502 1178 526 1167 q 457 1203 478 1190 q 416 1228 436 1217 q 371 1240 396 1240 q 331 1221 343 1240 q 314 1169 318 1201 l 272 1174 q 278 1213 274 1193 q 294 1248 283 1232 q 324 1274 306 1264 q 371 1285 343 1285 q 431 1273 406 1285 q 476 1248 456 1261 q 517 1223 497 1235 q 563 1211 538 1211 q 603 1231 590 1211 q 619 1282 615 1250 l 661 1278 q 655 1239 660 1258 q 639 1203 650 1219 q 609 1177 628 1188 q 563 1167 590 1167 z "},"Ệ":{"ha":833,"x_min":176,"x_max":732,"o":"m 176 0 l 176 915 l 718 915 l 718 860 l 240 860 l 240 514 l 643 514 l 643 458 l 240 458 l 240 56 l 732 56 l 732 0 l 176 0 m 307 982 l 279 1008 l 436 1165 l 497 1165 l 654 1008 l 626 982 l 469 1118 l 464 1118 l 307 982 m 469 -272 q 423 -255 442 -272 q 404 -206 404 -237 q 423 -157 404 -175 q 469 -139 442 -139 q 516 -157 497 -139 q 535 -206 535 -175 q 516 -255 535 -237 q 469 -272 497 -272 z "},"Ḗ":{"ha":833,"x_min":176,"x_max":732,"o":"m 176 0 l 176 915 l 718 915 l 718 860 l 240 860 l 240 514 l 643 514 l 643 458 l 240 458 l 240 56 l 732 56 l 732 0 l 176 0 m 294 1032 l 294 1082 l 639 1082 l 639 1032 l 294 1032 m 451 1143 l 424 1172 l 565 1313 l 601 1274 l 451 1143 z "},"Ǵ":{"ha":833,"x_min":82,"x_max":729,"o":"m 464 -17 q 308 17 378 -17 q 188 112 238 50 q 110 262 138 174 q 82 460 82 350 q 110 656 82 568 q 191 805 139 743 q 315 899 243 867 q 476 932 388 932 q 559 922 522 932 q 626 897 596 913 q 678 861 656 881 q 719 822 701 842 l 682 781 q 599 847 647 819 q 476 874 550 874 q 340 844 401 874 q 237 762 279 815 q 172 632 194 708 q 149 460 149 556 q 170 287 149 364 q 233 156 192 210 q 334 72 275 101 q 468 42 393 42 q 582 60 529 42 q 667 111 635 78 l 667 396 l 456 396 l 456 450 l 729 450 l 729 88 q 620 13 688 42 q 464 -17 553 -17 m 425 981 l 397 1013 l 569 1183 l 610 1138 l 425 981 z "},"Ĝ":{"ha":833,"x_min":82,"x_max":729,"o":"m 464 -17 q 308 17 378 -17 q 188 112 238 50 q 110 262 138 174 q 82 460 82 350 q 110 656 82 568 q 191 805 139 743 q 315 899 243 867 q 476 932 388 932 q 559 922 522 932 q 626 897 596 913 q 678 861 656 881 q 719 822 701 842 l 682 781 q 599 847 647 819 q 476 874 550 874 q 340 844 401 874 q 237 762 279 815 q 172 632 194 708 q 149 460 149 556 q 170 287 149 364 q 233 156 192 210 q 334 72 275 101 q 468 42 393 42 q 582 60 529 42 q 667 111 635 78 l 667 396 l 456 396 l 456 450 l 729 450 l 729 88 q 620 13 688 42 q 464 -17 553 -17 m 299 982 l 271 1008 l 428 1165 l 489 1165 l 646 1008 l 618 982 l 461 1118 l 456 1118 l 299 982 z "},"Ğ":{"ha":833,"x_min":82,"x_max":729,"o":"m 464 -17 q 308 17 378 -17 q 188 112 238 50 q 110 262 138 174 q 82 460 82 350 q 110 656 82 568 q 191 805 139 743 q 315 899 243 867 q 476 932 388 932 q 559 922 522 932 q 626 897 596 913 q 678 861 656 881 q 719 822 701 842 l 682 781 q 599 847 647 819 q 476 874 550 874 q 340 844 401 874 q 237 762 279 815 q 172 632 194 708 q 149 460 149 556 q 170 287 149 364 q 233 156 192 210 q 334 72 275 101 q 468 42 393 42 q 582 60 529 42 q 667 111 635 78 l 667 396 l 456 396 l 456 450 l 729 450 l 729 88 q 620 13 688 42 q 464 -17 553 -17 m 458 986 q 378 1001 413 986 q 322 1042 344 1017 q 286 1097 299 1067 q 269 1158 274 1128 l 315 1165 q 329 1115 319 1139 q 357 1073 339 1092 q 400 1043 375 1054 q 458 1032 425 1032 q 517 1043 492 1032 q 560 1073 542 1054 q 588 1115 578 1092 q 601 1165 597 1139 l 647 1158 q 631 1097 643 1128 q 595 1042 618 1067 q 538 1001 572 1017 q 458 986 504 986 z "},"Ġ":{"ha":833,"x_min":82,"x_max":729,"o":"m 464 -17 q 308 17 378 -17 q 188 112 238 50 q 110 262 138 174 q 82 460 82 350 q 110 656 82 568 q 191 805 139 743 q 315 899 243 867 q 476 932 388 932 q 559 922 522 932 q 626 897 596 913 q 678 861 656 881 q 719 822 701 842 l 682 781 q 599 847 647 819 q 476 874 550 874 q 340 844 401 874 q 237 762 279 815 q 172 632 194 708 q 149 460 149 556 q 170 287 149 364 q 233 156 192 210 q 334 72 275 101 q 468 42 393 42 q 582 60 529 42 q 667 111 635 78 l 667 396 l 456 396 l 456 450 l 729 450 l 729 88 q 620 13 688 42 q 464 -17 553 -17 m 458 1001 q 418 1017 435 1001 q 401 1060 401 1033 q 418 1100 401 1085 q 458 1115 435 1115 q 499 1100 482 1115 q 515 1060 515 1085 q 499 1017 515 1033 q 458 1001 482 1001 z "},"Ģ":{"ha":833,"x_min":82,"x_max":729,"o":"m 464 -17 q 308 17 378 -17 q 188 112 238 50 q 110 262 138 174 q 82 460 82 350 q 110 656 82 568 q 191 805 139 743 q 315 899 243 867 q 476 932 388 932 q 559 922 522 932 q 626 897 596 913 q 678 861 656 881 q 719 822 701 842 l 682 781 q 599 847 647 819 q 476 874 550 874 q 340 844 401 874 q 237 762 279 815 q 172 632 194 708 q 149 460 149 556 q 170 287 149 364 q 233 156 192 210 q 334 72 275 101 q 468 42 393 42 q 582 60 529 42 q 667 111 635 78 l 667 396 l 456 396 l 456 450 l 729 450 l 729 88 q 620 13 688 42 q 464 -17 553 -17 m 357 -304 l 347 -262 q 471 -239 438 -257 q 504 -190 504 -221 q 476 -144 504 -158 q 397 -125 447 -129 l 415 -85 q 526 -119 494 -96 q 558 -186 558 -142 q 507 -269 558 -240 q 357 -304 456 -297 z "},"Ǧ":{"ha":833,"x_min":82,"x_max":729,"o":"m 464 -17 q 308 17 378 -17 q 188 112 238 50 q 110 262 138 174 q 82 460 82 350 q 110 656 82 568 q 191 805 139 743 q 315 899 243 867 q 476 932 388 932 q 559 922 522 932 q 626 897 596 913 q 678 861 656 881 q 719 822 701 842 l 682 781 q 599 847 647 819 q 476 874 550 874 q 340 844 401 874 q 237 762 279 815 q 172 632 194 708 q 149 460 149 556 q 170 287 149 364 q 233 156 192 210 q 334 72 275 101 q 468 42 393 42 q 582 60 529 42 q 667 111 635 78 l 667 396 l 456 396 l 456 450 l 729 450 l 729 88 q 620 13 688 42 q 464 -17 553 -17 m 428 985 l 271 1143 l 299 1168 l 456 1032 l 461 1032 l 618 1168 l 646 1143 l 489 985 l 428 985 z "},"Ḡ":{"ha":833,"x_min":82,"x_max":729,"o":"m 464 -17 q 308 17 378 -17 q 188 112 238 50 q 110 262 138 174 q 82 460 82 350 q 110 656 82 568 q 191 805 139 743 q 315 899 243 867 q 476 932 388 932 q 559 922 522 932 q 626 897 596 913 q 678 861 656 881 q 719 822 701 842 l 682 781 q 599 847 647 819 q 476 874 550 874 q 340 844 401 874 q 237 762 279 815 q 172 632 194 708 q 149 460 149 556 q 170 287 149 364 q 233 156 192 210 q 334 72 275 101 q 468 42 393 42 q 582 60 529 42 q 667 111 635 78 l 667 396 l 456 396 l 456 450 l 729 450 l 729 88 q 620 13 688 42 q 464 -17 553 -17 m 286 1032 l 286 1082 l 631 1082 l 631 1032 l 286 1032 z "},"Ɠ":{"ha":833,"x_min":82,"x_max":801,"o":"m 719 822 l 682 781 q 599 847 647 819 q 476 874 550 874 q 340 844 401 874 q 237 762 279 815 q 172 632 194 708 q 149 460 149 556 q 170 287 149 364 q 233 156 192 210 q 334 72 275 101 q 468 42 393 42 q 582 60 529 42 q 667 111 635 78 l 667 396 l 456 396 l 456 450 l 729 450 l 729 88 q 620 13 688 42 q 464 -17 553 -17 q 308 17 378 -17 q 188 112 238 50 q 110 262 138 174 q 82 460 82 350 q 110 656 82 568 q 191 805 139 743 q 315 899 243 867 q 476 932 388 932 q 557 923 521 932 q 622 899 593 914 q 603 982 603 938 q 640 1072 603 1040 q 733 1104 678 1104 q 769 1099 753 1104 q 801 1088 786 1094 l 788 1038 q 765 1047 776 1042 q 736 1051 753 1051 q 678 1027 697 1051 q 660 972 660 1003 q 663 935 660 951 q 674 901 667 918 q 692 866 681 885 q 719 822 703 847 z "},"Ĥ":{"ha":833,"x_min":124,"x_max":710,"o":"m 124 0 l 124 915 l 188 915 l 188 514 l 646 514 l 646 915 l 710 915 l 710 0 l 646 0 l 646 458 l 188 458 l 188 0 l 124 0 m 257 982 l 229 1008 l 386 1165 l 447 1165 l 604 1008 l 576 982 l 419 1118 l 414 1118 l 257 982 z "},"Ḧ":{"ha":833,"x_min":124,"x_max":710,"o":"m 124 0 l 124 915 l 188 915 l 188 514 l 646 514 l 646 915 l 710 915 l 710 0 l 646 0 l 646 458 l 188 458 l 188 0 l 124 0 m 306 1007 q 269 1021 283 1007 q 254 1058 254 1035 q 269 1096 254 1082 q 306 1110 283 1110 q 342 1096 328 1110 q 357 1058 357 1082 q 342 1021 357 1035 q 306 1007 328 1007 m 528 1007 q 491 1021 506 1007 q 476 1058 476 1035 q 491 1096 476 1082 q 528 1110 506 1110 q 565 1096 550 1110 q 579 1058 579 1082 q 565 1021 579 1035 q 528 1007 550 1007 z "},"Ḥ":{"ha":833,"x_min":124,"x_max":710,"o":"m 124 0 l 124 915 l 188 915 l 188 514 l 646 514 l 646 915 l 710 915 l 710 0 l 646 0 l 646 458 l 188 458 l 188 0 l 124 0 m 417 -272 q 370 -255 389 -272 q 351 -206 351 -237 q 370 -157 351 -175 q 417 -139 389 -139 q 463 -157 444 -139 q 482 -206 482 -175 q 463 -255 482 -237 q 417 -272 444 -272 z "},"Ḩ":{"ha":833,"x_min":40,"x_max":710,"o":"m 124 0 l 124 915 l 188 915 l 188 514 l 646 514 l 646 915 l 710 915 l 710 0 l 646 0 l 646 458 l 188 458 l 188 0 l 124 0 m 50 -304 l 40 -262 q 164 -239 131 -257 q 197 -189 197 -221 q 172 -142 197 -158 q 89 -118 147 -126 l 136 10 l 185 10 l 153 -90 q 224 -123 197 -101 q 251 -186 251 -144 q 200 -269 251 -240 q 50 -304 149 -297 z "},"Ḫ":{"ha":833,"x_min":124,"x_max":710,"o":"m 124 0 l 124 915 l 188 915 l 188 514 l 646 514 l 646 915 l 710 915 l 710 0 l 646 0 l 646 458 l 188 458 l 188 0 l 124 0 m 417 -319 q 325 -300 363 -319 q 263 -251 288 -281 q 226 -185 239 -221 q 210 -114 214 -149 l 256 -107 q 272 -165 260 -136 q 303 -219 283 -194 q 351 -258 322 -243 q 417 -272 379 -272 q 483 -258 454 -272 q 531 -219 511 -243 q 562 -165 550 -194 q 578 -107 574 -136 l 624 -114 q 607 -185 619 -149 q 570 -251 594 -221 q 508 -300 546 -281 q 417 -319 471 -319 z "},"Ħ":{"ha":833,"x_min":19,"x_max":814,"o":"m 19 685 l 19 729 l 124 736 l 124 915 l 188 915 l 188 736 l 646 736 l 646 915 l 710 915 l 710 736 l 814 736 l 814 685 l 710 685 l 710 0 l 646 0 l 646 458 l 188 458 l 188 0 l 124 0 l 124 685 l 19 685 m 188 514 l 646 514 l 646 685 l 188 685 l 188 514 z "},"Ì":{"ha":833,"x_min":149,"x_max":685,"o":"m 149 0 l 149 56 l 385 56 l 385 860 l 149 860 l 149 915 l 685 915 l 685 860 l 449 860 l 449 56 l 685 56 l 685 0 l 149 0 m 450 981 l 265 1138 l 306 1183 l 478 1013 l 450 981 z "},"Í":{"ha":833,"x_min":149,"x_max":685,"o":"m 149 0 l 149 56 l 385 56 l 385 860 l 149 860 l 149 915 l 685 915 l 685 860 l 449 860 l 449 56 l 685 56 l 685 0 l 149 0 m 383 981 l 356 1013 l 528 1183 l 568 1138 l 383 981 z "},"Î":{"ha":833,"x_min":149,"x_max":685,"o":"m 149 0 l 149 56 l 385 56 l 385 860 l 149 860 l 149 915 l 685 915 l 685 860 l 449 860 l 449 56 l 685 56 l 685 0 l 149 0 m 257 982 l 229 1008 l 386 1165 l 447 1165 l 604 1008 l 576 982 l 419 1118 l 414 1118 l 257 982 z "},"Ĩ":{"ha":833,"x_min":149,"x_max":685,"o":"m 149 0 l 149 56 l 385 56 l 385 860 l 149 860 l 149 915 l 685 915 l 685 860 l 449 860 l 449 56 l 685 56 l 685 0 l 149 0 m 524 997 q 456 1015 483 997 q 405 1052 428 1032 q 360 1090 382 1072 q 310 1107 339 1107 q 258 1078 279 1107 q 233 1001 238 1050 l 188 1006 q 222 1115 190 1071 q 310 1158 253 1158 q 378 1141 350 1158 q 428 1103 406 1124 q 473 1066 451 1083 q 524 1049 494 1049 q 574 1078 554 1049 q 600 1156 593 1107 l 646 1151 q 612 1042 643 1086 q 524 997 581 997 z "},"Ï":{"ha":833,"x_min":149,"x_max":685,"o":"m 149 0 l 149 56 l 385 56 l 385 860 l 149 860 l 149 915 l 685 915 l 685 860 l 449 860 l 449 56 l 685 56 l 685 0 l 149 0 m 306 1007 q 269 1021 283 1007 q 254 1058 254 1035 q 269 1096 254 1082 q 306 1110 283 1110 q 342 1096 328 1110 q 357 1058 357 1082 q 342 1021 357 1035 q 306 1007 328 1007 m 528 1007 q 491 1021 506 1007 q 476 1058 476 1035 q 491 1096 476 1082 q 528 1110 506 1110 q 565 1096 550 1110 q 579 1058 579 1082 q 565 1021 579 1035 q 528 1007 550 1007 z "},"Ī":{"ha":833,"x_min":149,"x_max":685,"o":"m 149 0 l 149 56 l 385 56 l 385 860 l 149 860 l 149 915 l 685 915 l 685 860 l 449 860 l 449 56 l 685 56 l 685 0 l 149 0 m 244 1032 l 244 1082 l 589 1082 l 589 1032 l 244 1032 z "},"İ":{"ha":833,"x_min":149,"x_max":685,"o":"m 149 0 l 149 56 l 385 56 l 385 860 l 149 860 l 149 915 l 685 915 l 685 860 l 449 860 l 449 56 l 685 56 l 685 0 l 149 0 m 417 1001 q 376 1017 393 1001 q 360 1060 360 1033 q 376 1100 360 1085 q 417 1115 393 1115 q 457 1100 440 1115 q 474 1060 474 1085 q 457 1017 474 1033 q 417 1001 440 1001 z "},"Ǐ":{"ha":833,"x_min":149,"x_max":685,"o":"m 149 0 l 149 56 l 385 56 l 385 860 l 149 860 l 149 915 l 685 915 l 685 860 l 449 860 l 449 56 l 685 56 l 685 0 l 149 0 m 386 985 l 229 1143 l 257 1168 l 414 1032 l 419 1032 l 576 1168 l 604 1143 l 447 985 l 386 985 z "},"Į":{"ha":833,"x_min":149,"x_max":685,"o":"m 435 -311 q 340 -281 378 -311 q 303 -187 303 -251 q 333 -87 303 -135 q 399 0 363 -40 l 149 0 l 149 56 l 385 56 l 385 860 l 149 860 l 149 915 l 685 915 l 685 860 l 449 860 l 449 56 l 685 56 l 685 0 l 458 0 q 358 -179 358 -100 q 385 -241 358 -221 q 443 -261 411 -261 q 488 -251 469 -261 q 521 -226 506 -242 l 549 -261 q 501 -297 526 -282 q 435 -311 475 -311 z "},"Ỉ":{"ha":833,"x_min":149,"x_max":685,"o":"m 149 0 l 149 56 l 385 56 l 385 860 l 149 860 l 149 915 l 685 915 l 685 860 l 449 860 l 449 56 l 685 56 l 685 0 l 149 0 m 382 975 l 371 1013 q 433 1041 408 1024 q 458 1088 458 1058 q 340 1154 458 1150 l 346 1199 q 411 1191 381 1197 q 465 1172 442 1185 q 501 1141 488 1160 q 514 1096 514 1122 q 503 1049 514 1068 q 473 1015 492 1029 q 431 992 454 1001 q 382 975 407 982 z "},"Ị":{"ha":833,"x_min":149,"x_max":685,"o":"m 149 0 l 149 56 l 385 56 l 385 860 l 149 860 l 149 915 l 685 915 l 685 860 l 449 860 l 449 56 l 685 56 l 685 0 l 149 0 m 417 -272 q 370 -255 389 -272 q 351 -206 351 -237 q 370 -157 351 -175 q 417 -139 389 -139 q 463 -157 444 -139 q 482 -206 482 -175 q 463 -255 482 -237 q 417 -272 444 -272 z "},"Ĭ":{"ha":833,"x_min":149,"x_max":685,"o":"m 149 0 l 149 56 l 385 56 l 385 860 l 149 860 l 149 915 l 685 915 l 685 860 l 449 860 l 449 56 l 685 56 l 685 0 l 149 0 m 417 986 q 337 1001 371 986 q 280 1042 303 1017 q 244 1097 257 1067 q 228 1158 232 1128 l 274 1165 q 288 1115 278 1139 q 315 1073 297 1092 q 358 1043 333 1054 q 417 1032 383 1032 q 475 1043 450 1032 q 518 1073 500 1054 q 546 1115 536 1092 q 560 1165 556 1139 l 606 1158 q 589 1097 601 1128 q 553 1042 576 1067 q 497 1001 531 1017 q 417 986 463 986 z "},"Ĵ":{"ha":833,"x_min":129,"x_max":667,"o":"m 385 -17 q 239 22 308 -17 q 129 136 169 60 l 175 174 q 271 73 215 104 q 385 42 326 42 q 551 102 500 42 q 603 289 603 163 l 603 863 l 204 863 l 204 917 l 667 917 l 667 283 q 653 166 667 221 q 606 71 639 111 q 518 7 572 31 q 385 -17 464 -17 m 286 982 l 258 1008 l 415 1165 l 476 1165 l 633 1008 l 606 982 l 449 1118 l 443 1118 l 286 982 z "},"Ķ":{"ha":833,"x_min":160,"x_max":793,"o":"m 160 0 l 160 915 l 225 915 l 225 407 l 228 407 l 679 915 l 756 915 l 457 578 l 793 0 l 719 0 l 414 529 l 225 315 l 225 0 l 160 0 m 374 -304 l 364 -262 q 488 -239 454 -257 q 521 -190 521 -221 q 492 -144 521 -158 q 414 -125 464 -129 l 432 -85 q 543 -119 511 -96 q 575 -186 575 -142 q 524 -269 575 -240 q 374 -304 472 -297 z "},"Ḳ":{"ha":833,"x_min":160,"x_max":793,"o":"m 160 0 l 160 915 l 225 915 l 225 407 l 228 407 l 679 915 l 756 915 l 457 578 l 793 0 l 719 0 l 414 529 l 225 315 l 225 0 l 160 0 m 481 -272 q 434 -255 453 -272 q 415 -206 415 -237 q 434 -157 415 -175 q 481 -139 453 -139 q 527 -157 508 -139 q 546 -206 546 -175 q 527 -255 546 -237 q 481 -272 508 -272 z "},"Ḵ":{"ha":833,"x_min":160,"x_max":793,"o":"m 160 0 l 160 915 l 225 915 l 225 407 l 228 407 l 679 915 l 756 915 l 457 578 l 793 0 l 719 0 l 414 529 l 225 315 l 225 0 l 160 0 m 310 -221 l 310 -171 l 651 -171 l 651 -221 l 310 -221 z "},"Ĺ":{"ha":833,"x_min":200,"x_max":749,"o":"m 208 0 l 208 915 l 269 915 l 269 56 l 749 56 l 749 0 l 208 0 m 228 981 l 200 1013 l 372 1183 l 413 1138 l 228 981 z "},"Ľ":{"ha":833,"x_min":208,"x_max":749,"o":"m 208 0 l 208 915 l 269 915 l 269 56 l 749 56 l 749 0 l 208 0 m 540 719 l 538 1088 l 596 1088 l 596 989 l 585 719 l 540 719 z "},"Ļ":{"ha":833,"x_min":208,"x_max":749,"o":"m 208 0 l 208 915 l 269 915 l 269 56 l 749 56 l 749 0 l 208 0 m 389 -304 l 379 -262 q 503 -239 469 -257 q 536 -190 536 -221 q 508 -144 536 -158 q 429 -125 479 -129 l 447 -85 q 558 -119 526 -96 q 590 -186 590 -142 q 539 -269 590 -240 q 389 -304 488 -297 z "},"Ḷ":{"ha":833,"x_min":208,"x_max":749,"o":"m 208 0 l 208 915 l 269 915 l 269 56 l 749 56 l 749 0 l 208 0 m 496 -272 q 449 -255 468 -272 q 431 -206 431 -237 q 449 -157 431 -175 q 496 -139 468 -139 q 542 -157 524 -139 q 561 -206 561 -175 q 542 -255 561 -237 q 496 -272 524 -272 z "},"Ḹ":{"ha":833,"x_min":89,"x_max":749,"o":"m 208 0 l 208 915 l 269 915 l 269 56 l 749 56 l 749 0 l 208 0 m 89 1032 l 89 1082 l 433 1082 l 433 1032 l 89 1032 m 496 -272 q 449 -255 468 -272 q 431 -206 431 -237 q 449 -157 431 -175 q 496 -139 468 -139 q 542 -157 524 -139 q 561 -206 561 -175 q 542 -255 561 -237 q 496 -272 524 -272 z "},"Ḻ":{"ha":833,"x_min":208,"x_max":749,"o":"m 208 0 l 208 915 l 269 915 l 269 56 l 749 56 l 749 0 l 208 0 m 325 -221 l 325 -171 l 667 -171 l 667 -221 l 325 -221 z "},"Ł":{"ha":833,"x_min":28,"x_max":749,"o":"m 51 261 l 28 304 l 208 397 l 208 915 l 269 915 l 269 426 l 588 593 l 611 549 l 269 369 l 269 56 l 749 56 l 749 0 l 208 0 l 208 342 l 51 261 z "},"Ŀ":{"ha":833,"x_min":208,"x_max":749,"o":"m 208 0 l 208 915 l 269 915 l 269 56 l 749 56 l 749 0 l 208 0 m 642 413 q 595 430 614 413 q 576 479 576 447 q 595 528 576 510 q 642 546 614 546 q 688 528 669 546 q 707 479 707 510 q 688 430 707 447 q 642 413 669 413 z "},"Ḿ":{"ha":833,"x_min":113,"x_max":721,"o":"m 113 0 l 113 915 l 197 915 l 357 486 l 414 326 l 419 326 l 474 486 l 636 915 l 721 915 l 721 0 l 658 0 l 658 625 q 661 734 658 674 q 667 842 664 794 l 663 842 l 613 685 l 440 243 l 390 243 l 221 685 l 167 842 l 164 842 q 169 734 165 794 q 174 625 174 674 l 174 0 l 113 0 m 383 981 l 356 1013 l 528 1183 l 568 1138 l 383 981 z "},"Ṁ":{"ha":833,"x_min":113,"x_max":721,"o":"m 113 0 l 113 915 l 197 915 l 357 486 l 414 326 l 419 326 l 474 486 l 636 915 l 721 915 l 721 0 l 658 0 l 658 625 q 661 734 658 674 q 667 842 664 794 l 663 842 l 613 685 l 440 243 l 390 243 l 221 685 l 167 842 l 164 842 q 169 734 165 794 q 174 625 174 674 l 174 0 l 113 0 m 417 1001 q 376 1017 393 1001 q 360 1060 360 1033 q 376 1100 360 1085 q 417 1115 393 1115 q 457 1100 440 1115 q 474 1060 474 1085 q 457 1017 474 1033 q 417 1001 440 1001 z "},"Ṃ":{"ha":833,"x_min":113,"x_max":721,"o":"m 113 0 l 113 915 l 197 915 l 357 486 l 414 326 l 419 326 l 474 486 l 636 915 l 721 915 l 721 0 l 658 0 l 658 625 q 661 734 658 674 q 667 842 664 794 l 663 842 l 613 685 l 440 243 l 390 243 l 221 685 l 167 842 l 164 842 q 169 734 165 794 q 174 625 174 674 l 174 0 l 113 0 m 417 -272 q 370 -255 389 -272 q 351 -206 351 -237 q 370 -157 351 -175 q 417 -139 389 -139 q 463 -157 444 -139 q 482 -206 482 -175 q 463 -255 482 -237 q 417 -272 444 -272 z "},"Ń":{"ha":833,"x_min":128,"x_max":706,"o":"m 128 0 l 128 915 l 196 915 l 553 268 l 650 88 l 653 88 q 648 220 651 154 q 644 353 644 286 l 644 915 l 706 915 l 706 0 l 638 0 l 281 647 l 183 828 l 181 828 q 185 698 182 761 q 189 568 189 635 l 189 0 l 128 0 m 397 981 l 369 1013 l 542 1183 l 582 1138 l 397 981 z "},"Ǹ":{"ha":833,"x_min":128,"x_max":706,"o":"m 128 0 l 128 915 l 196 915 l 553 268 l 650 88 l 653 88 q 648 220 651 154 q 644 353 644 286 l 644 915 l 706 915 l 706 0 l 638 0 l 281 647 l 183 828 l 181 828 q 185 698 182 761 q 189 568 189 635 l 189 0 l 128 0 m 464 981 l 279 1138 l 319 1183 l 492 1013 l 464 981 z "},"Ň":{"ha":833,"x_min":128,"x_max":706,"o":"m 128 0 l 128 915 l 196 915 l 553 268 l 650 88 l 653 88 q 648 220 651 154 q 644 353 644 286 l 644 915 l 706 915 l 706 0 l 638 0 l 281 647 l 183 828 l 181 828 q 185 698 182 761 q 189 568 189 635 l 189 0 l 128 0 m 400 985 l 243 1143 l 271 1168 l 428 1032 l 433 1032 l 590 1168 l 618 1143 l 461 985 l 400 985 z "},"Ñ":{"ha":833,"x_min":128,"x_max":706,"o":"m 128 0 l 128 915 l 196 915 l 553 268 l 650 88 l 653 88 q 648 220 651 154 q 644 353 644 286 l 644 915 l 706 915 l 706 0 l 638 0 l 281 647 l 183 828 l 181 828 q 185 698 182 761 q 189 568 189 635 l 189 0 l 128 0 m 538 997 q 469 1015 497 997 q 419 1052 442 1032 q 374 1090 396 1072 q 324 1107 353 1107 q 272 1078 293 1107 q 247 1001 251 1050 l 201 1006 q 235 1115 204 1071 q 324 1158 267 1158 q 392 1141 364 1158 q 442 1103 419 1124 q 487 1066 465 1083 q 538 1049 508 1049 q 588 1078 568 1049 q 614 1156 607 1107 l 660 1151 q 626 1042 657 1086 q 538 997 594 997 z "},"Ņ":{"ha":833,"x_min":128,"x_max":706,"o":"m 128 0 l 128 915 l 196 915 l 553 268 l 650 88 l 653 88 q 648 220 651 154 q 644 353 644 286 l 644 915 l 706 915 l 706 0 l 638 0 l 281 647 l 183 828 l 181 828 q 185 698 182 761 q 189 568 189 635 l 189 0 l 128 0 m 310 -304 l 300 -262 q 424 -239 390 -257 q 457 -190 457 -221 q 428 -144 457 -158 q 350 -125 400 -129 l 368 -85 q 479 -119 447 -96 q 511 -186 511 -142 q 460 -269 511 -240 q 310 -304 408 -297 z "},"Ṅ":{"ha":833,"x_min":128,"x_max":706,"o":"m 128 0 l 128 915 l 196 915 l 553 268 l 650 88 l 653 88 q 648 220 651 154 q 644 353 644 286 l 644 915 l 706 915 l 706 0 l 638 0 l 281 647 l 183 828 l 181 828 q 185 698 182 761 q 189 568 189 635 l 189 0 l 128 0 m 431 1001 q 390 1017 407 1001 q 374 1060 374 1033 q 390 1100 374 1085 q 431 1115 407 1115 q 471 1100 454 1115 q 488 1060 488 1085 q 471 1017 488 1033 q 431 1001 454 1001 z "},"Ṇ":{"ha":833,"x_min":128,"x_max":706,"o":"m 128 0 l 128 915 l 196 915 l 553 268 l 650 88 l 653 88 q 648 220 651 154 q 644 353 644 286 l 644 915 l 706 915 l 706 0 l 638 0 l 281 647 l 183 828 l 181 828 q 185 698 182 761 q 189 568 189 635 l 189 0 l 128 0 m 417 -272 q 370 -255 389 -272 q 351 -206 351 -237 q 370 -157 351 -175 q 417 -139 389 -139 q 463 -157 444 -139 q 482 -206 482 -175 q 463 -255 482 -237 q 417 -272 444 -272 z "},"Ṉ":{"ha":833,"x_min":128,"x_max":706,"o":"m 128 0 l 128 915 l 196 915 l 553 268 l 650 88 l 653 88 q 648 220 651 154 q 644 353 644 286 l 644 915 l 706 915 l 706 0 l 638 0 l 281 647 l 183 828 l 181 828 q 185 698 182 761 q 189 568 189 635 l 189 0 l 128 0 m 246 -221 l 246 -171 l 588 -171 l 588 -221 l 246 -221 z "},"Ò":{"ha":833,"x_min":75,"x_max":758,"o":"m 417 -17 q 279 17 342 -17 q 171 113 217 50 q 100 263 125 175 q 75 461 75 351 q 100 657 75 569 q 171 806 125 744 q 279 899 217 867 q 417 932 342 932 q 554 899 492 932 q 663 806 617 867 q 733 657 708 744 q 758 461 758 569 q 733 263 758 351 q 663 113 708 175 q 554 17 617 50 q 417 -17 492 -17 m 417 42 q 528 72 478 42 q 615 156 579 101 q 672 288 651 210 q 692 461 692 365 q 672 633 692 557 q 615 763 651 710 q 528 845 579 817 q 417 874 478 874 q 305 845 356 874 q 218 763 254 817 q 162 633 182 710 q 142 461 142 557 q 162 288 142 365 q 218 156 182 210 q 305 72 254 101 q 417 42 356 42 m 450 981 l 265 1138 l 306 1183 l 478 1013 l 450 981 z "},"Ó":{"ha":833,"x_min":75,"x_max":758,"o":"m 417 -17 q 279 17 342 -17 q 171 113 217 50 q 100 263 125 175 q 75 461 75 351 q 100 657 75 569 q 171 806 125 744 q 279 899 217 867 q 417 932 342 932 q 554 899 492 932 q 663 806 617 867 q 733 657 708 744 q 758 461 758 569 q 733 263 758 351 q 663 113 708 175 q 554 17 617 50 q 417 -17 492 -17 m 417 42 q 528 72 478 42 q 615 156 579 101 q 672 288 651 210 q 692 461 692 365 q 672 633 692 557 q 615 763 651 710 q 528 845 579 817 q 417 874 478 874 q 305 845 356 874 q 218 763 254 817 q 162 633 182 710 q 142 461 142 557 q 162 288 142 365 q 218 156 182 210 q 305 72 254 101 q 417 42 356 42 m 383 981 l 356 1013 l 528 1183 l 568 1138 l 383 981 z "},"Ô":{"ha":833,"x_min":75,"x_max":758,"o":"m 417 -17 q 279 17 342 -17 q 171 113 217 50 q 100 263 125 175 q 75 461 75 351 q 100 657 75 569 q 171 806 125 744 q 279 899 217 867 q 417 932 342 932 q 554 899 492 932 q 663 806 617 867 q 733 657 708 744 q 758 461 758 569 q 733 263 758 351 q 663 113 708 175 q 554 17 617 50 q 417 -17 492 -17 m 417 42 q 528 72 478 42 q 615 156 579 101 q 672 288 651 210 q 692 461 692 365 q 672 633 692 557 q 615 763 651 710 q 528 845 579 817 q 417 874 478 874 q 305 845 356 874 q 218 763 254 817 q 162 633 182 710 q 142 461 142 557 q 162 288 142 365 q 218 156 182 210 q 305 72 254 101 q 417 42 356 42 m 257 982 l 229 1008 l 386 1165 l 447 1165 l 604 1008 l 576 982 l 419 1118 l 414 1118 l 257 982 z "},"Õ":{"ha":833,"x_min":75,"x_max":758,"o":"m 417 -17 q 279 17 342 -17 q 171 113 217 50 q 100 263 125 175 q 75 461 75 351 q 100 657 75 569 q 171 806 125 744 q 279 899 217 867 q 417 932 342 932 q 554 899 492 932 q 663 806 617 867 q 733 657 708 744 q 758 461 758 569 q 733 263 758 351 q 663 113 708 175 q 554 17 617 50 q 417 -17 492 -17 m 417 42 q 528 72 478 42 q 615 156 579 101 q 672 288 651 210 q 692 461 692 365 q 672 633 692 557 q 615 763 651 710 q 528 845 579 817 q 417 874 478 874 q 305 845 356 874 q 218 763 254 817 q 162 633 182 710 q 142 461 142 557 q 162 288 142 365 q 218 156 182 210 q 305 72 254 101 q 417 42 356 42 m 524 997 q 456 1015 483 997 q 405 1052 428 1032 q 360 1090 382 1072 q 310 1107 339 1107 q 258 1078 279 1107 q 233 1001 238 1050 l 188 1006 q 222 1115 190 1071 q 310 1158 253 1158 q 378 1141 350 1158 q 428 1103 406 1124 q 473 1066 451 1083 q 524 1049 494 1049 q 574 1078 554 1049 q 600 1156 593 1107 l 646 1151 q 612 1042 643 1086 q 524 997 581 997 z "},"Ö":{"ha":833,"x_min":75,"x_max":758,"o":"m 417 -17 q 279 17 342 -17 q 171 113 217 50 q 100 263 125 175 q 75 461 75 351 q 100 657 75 569 q 171 806 125 744 q 279 899 217 867 q 417 932 342 932 q 554 899 492 932 q 663 806 617 867 q 733 657 708 744 q 758 461 758 569 q 733 263 758 351 q 663 113 708 175 q 554 17 617 50 q 417 -17 492 -17 m 417 42 q 528 72 478 42 q 615 156 579 101 q 672 288 651 210 q 692 461 692 365 q 672 633 692 557 q 615 763 651 710 q 528 845 579 817 q 417 874 478 874 q 305 845 356 874 q 218 763 254 817 q 162 633 182 710 q 142 461 142 557 q 162 288 142 365 q 218 156 182 210 q 305 72 254 101 q 417 42 356 42 m 306 1007 q 269 1021 283 1007 q 254 1058 254 1035 q 269 1096 254 1082 q 306 1110 283 1110 q 342 1096 328 1110 q 357 1058 357 1082 q 342 1021 357 1035 q 306 1007 328 1007 m 528 1007 q 491 1021 506 1007 q 476 1058 476 1035 q 491 1096 476 1082 q 528 1110 506 1110 q 565 1096 550 1110 q 579 1058 579 1082 q 565 1021 579 1035 q 528 1007 550 1007 z "},"Ō":{"ha":833,"x_min":75,"x_max":758,"o":"m 417 -17 q 279 17 342 -17 q 171 113 217 50 q 100 263 125 175 q 75 461 75 351 q 100 657 75 569 q 171 806 125 744 q 279 899 217 867 q 417 932 342 932 q 554 899 492 932 q 663 806 617 867 q 733 657 708 744 q 758 461 758 569 q 733 263 758 351 q 663 113 708 175 q 554 17 617 50 q 417 -17 492 -17 m 417 42 q 528 72 478 42 q 615 156 579 101 q 672 288 651 210 q 692 461 692 365 q 672 633 692 557 q 615 763 651 710 q 528 845 579 817 q 417 874 478 874 q 305 845 356 874 q 218 763 254 817 q 162 633 182 710 q 142 461 142 557 q 162 288 142 365 q 218 156 182 210 q 305 72 254 101 q 417 42 356 42 m 244 1032 l 244 1082 l 589 1082 l 589 1032 l 244 1032 z "},"Ő":{"ha":833,"x_min":75,"x_max":758,"o":"m 417 -17 q 279 17 342 -17 q 171 113 217 50 q 100 263 125 175 q 75 461 75 351 q 100 657 75 569 q 171 806 125 744 q 279 899 217 867 q 417 932 342 932 q 554 899 492 932 q 663 806 617 867 q 733 657 708 744 q 758 461 758 569 q 733 263 758 351 q 663 113 708 175 q 554 17 617 50 q 417 -17 492 -17 m 417 42 q 528 72 478 42 q 615 156 579 101 q 672 288 651 210 q 692 461 692 365 q 672 633 692 557 q 615 763 651 710 q 528 845 579 817 q 417 874 478 874 q 305 845 356 874 q 218 763 254 817 q 162 633 182 710 q 142 461 142 557 q 162 288 142 365 q 218 156 182 210 q 305 72 254 101 q 417 42 356 42 m 313 983 l 276 1001 l 399 1207 l 446 1178 l 313 983 m 513 983 l 476 1001 l 599 1207 l 646 1178 l 513 983 z "},"Ŏ":{"ha":833,"x_min":75,"x_max":758,"o":"m 417 -17 q 279 17 342 -17 q 171 113 217 50 q 100 263 125 175 q 75 461 75 351 q 100 657 75 569 q 171 806 125 744 q 279 899 217 867 q 417 932 342 932 q 554 899 492 932 q 663 806 617 867 q 733 657 708 744 q 758 461 758 569 q 733 263 758 351 q 663 113 708 175 q 554 17 617 50 q 417 -17 492 -17 m 417 42 q 528 72 478 42 q 615 156 579 101 q 672 288 651 210 q 692 461 692 365 q 672 633 692 557 q 615 763 651 710 q 528 845 579 817 q 417 874 478 874 q 305 845 356 874 q 218 763 254 817 q 162 633 182 710 q 142 461 142 557 q 162 288 142 365 q 218 156 182 210 q 305 72 254 101 q 417 42 356 42 m 417 986 q 337 1001 371 986 q 280 1042 303 1017 q 244 1097 257 1067 q 228 1158 232 1128 l 274 1165 q 288 1115 278 1139 q 315 1073 297 1092 q 358 1043 333 1054 q 417 1032 383 1032 q 475 1043 450 1032 q 518 1073 500 1054 q 546 1115 536 1092 q 560 1165 556 1139 l 606 1158 q 589 1097 601 1128 q 553 1042 576 1067 q 497 1001 531 1017 q 417 986 463 986 z "},"Ǒ":{"ha":833,"x_min":75,"x_max":758,"o":"m 417 -17 q 279 17 342 -17 q 171 113 217 50 q 100 263 125 175 q 75 461 75 351 q 100 657 75 569 q 171 806 125 744 q 279 899 217 867 q 417 932 342 932 q 554 899 492 932 q 663 806 617 867 q 733 657 708 744 q 758 461 758 569 q 733 263 758 351 q 663 113 708 175 q 554 17 617 50 q 417 -17 492 -17 m 417 42 q 528 72 478 42 q 615 156 579 101 q 672 288 651 210 q 692 461 692 365 q 672 633 692 557 q 615 763 651 710 q 528 845 579 817 q 417 874 478 874 q 305 845 356 874 q 218 763 254 817 q 162 633 182 710 q 142 461 142 557 q 162 288 142 365 q 218 156 182 210 q 305 72 254 101 q 417 42 356 42 m 386 985 l 229 1143 l 257 1168 l 414 1032 l 419 1032 l 576 1168 l 604 1143 l 447 985 l 386 985 z "},"Ǫ":{"ha":833,"x_min":75,"x_max":758,"o":"m 438 -311 q 343 -281 381 -311 q 306 -187 306 -251 q 336 -92 306 -133 q 410 -17 367 -51 q 267 25 329 -12 q 162 126 204 63 q 97 274 119 189 q 75 461 75 360 q 100 656 75 569 q 171 805 125 743 q 279 899 217 867 q 417 932 342 932 q 554 899 492 932 q 663 805 617 867 q 733 656 708 743 q 758 461 758 569 q 501 -7 758 100 q 397 -83 435 -35 q 360 -179 360 -131 q 386 -241 360 -221 q 446 -261 413 -261 q 490 -251 472 -261 q 524 -226 508 -242 l 551 -261 q 503 -297 529 -282 q 438 -311 478 -311 m 417 40 q 528 70 478 40 q 615 155 579 100 q 672 288 651 210 q 692 461 692 365 q 672 633 692 557 q 615 763 651 710 q 528 845 579 817 q 417 874 478 874 q 305 845 356 874 q 218 763 254 817 q 162 633 182 710 q 142 461 142 557 q 162 288 142 365 q 218 155 182 210 q 305 70 254 100 q 417 40 356 40 z "},"Ọ":{"ha":833,"x_min":75,"x_max":758,"o":"m 417 -17 q 279 17 342 -17 q 171 113 217 50 q 100 263 125 175 q 75 461 75 351 q 100 657 75 569 q 171 806 125 744 q 279 899 217 867 q 417 932 342 932 q 554 899 492 932 q 663 806 617 867 q 733 657 708 744 q 758 461 758 569 q 733 263 758 351 q 663 113 708 175 q 554 17 617 50 q 417 -17 492 -17 m 417 42 q 528 72 478 42 q 615 156 579 101 q 672 288 651 210 q 692 461 692 365 q 672 633 692 557 q 615 763 651 710 q 528 845 579 817 q 417 874 478 874 q 305 845 356 874 q 218 763 254 817 q 162 633 182 710 q 142 461 142 557 q 162 288 142 365 q 218 156 182 210 q 305 72 254 101 q 417 42 356 42 m 417 -272 q 370 -255 389 -272 q 351 -206 351 -237 q 370 -157 351 -175 q 417 -139 389 -139 q 463 -157 444 -139 q 482 -206 482 -175 q 463 -255 482 -237 q 417 -272 444 -272 z "},"Ỏ":{"ha":833,"x_min":75,"x_max":758,"o":"m 417 -17 q 279 17 342 -17 q 171 113 217 50 q 100 263 125 175 q 75 461 75 351 q 100 657 75 569 q 171 806 125 744 q 279 899 217 867 q 417 932 342 932 q 554 899 492 932 q 663 806 617 867 q 733 657 708 744 q 758 461 758 569 q 733 263 758 351 q 663 113 708 175 q 554 17 617 50 q 417 -17 492 -17 m 417 42 q 528 72 478 42 q 615 156 579 101 q 672 288 651 210 q 692 461 692 365 q 672 633 692 557 q 615 763 651 710 q 528 845 579 817 q 417 874 478 874 q 305 845 356 874 q 218 763 254 817 q 162 633 182 710 q 142 461 142 557 q 162 288 142 365 q 218 156 182 210 q 305 72 254 101 q 417 42 356 42 m 382 975 l 371 1013 q 433 1041 408 1024 q 458 1088 458 1058 q 340 1154 458 1150 l 346 1199 q 411 1191 381 1197 q 465 1172 442 1185 q 501 1141 488 1160 q 514 1096 514 1122 q 503 1049 514 1068 q 473 1015 492 1029 q 431 992 454 1001 q 382 975 407 982 z "},"Ố":{"ha":833,"x_min":75,"x_max":758,"o":"m 417 -17 q 279 17 342 -17 q 171 113 217 50 q 100 263 125 175 q 75 461 75 351 q 100 657 75 569 q 171 806 125 744 q 279 899 217 867 q 417 932 342 932 q 554 899 492 932 q 663 806 617 867 q 733 657 708 744 q 758 461 758 569 q 733 263 758 351 q 663 113 708 175 q 554 17 617 50 q 417 -17 492 -17 m 417 42 q 528 72 478 42 q 615 156 579 101 q 672 288 651 210 q 692 461 692 365 q 672 633 692 557 q 615 763 651 710 q 528 845 579 817 q 417 874 478 874 q 305 845 356 874 q 218 763 254 817 q 162 633 182 710 q 142 461 142 557 q 162 288 142 365 q 218 156 182 210 q 305 72 254 101 q 417 42 356 42 m 283 982 l 257 1008 l 389 1125 l 444 1125 l 576 1008 l 550 982 l 419 1076 l 414 1076 l 283 982 m 560 1063 l 531 1093 l 661 1228 l 699 1190 l 560 1063 z "},"Ồ":{"ha":833,"x_min":75,"x_max":758,"o":"m 417 -17 q 279 17 342 -17 q 171 113 217 50 q 100 263 125 175 q 75 461 75 351 q 100 657 75 569 q 171 806 125 744 q 279 899 217 867 q 417 932 342 932 q 554 899 492 932 q 663 806 617 867 q 733 657 708 744 q 758 461 758 569 q 733 263 758 351 q 663 113 708 175 q 554 17 617 50 q 417 -17 492 -17 m 417 42 q 528 72 478 42 q 615 156 579 101 q 672 288 651 210 q 692 461 692 365 q 672 633 692 557 q 615 763 651 710 q 528 845 579 817 q 417 874 478 874 q 305 845 356 874 q 218 763 254 817 q 162 633 182 710 q 142 461 142 557 q 162 288 142 365 q 218 156 182 210 q 305 72 254 101 q 417 42 356 42 m 283 982 l 257 1008 l 389 1125 l 444 1125 l 576 1008 l 550 982 l 419 1076 l 414 1076 l 283 982 m 274 1063 l 160 1196 l 197 1228 l 303 1088 l 274 1063 z "},"Ổ":{"ha":833,"x_min":75,"x_max":758,"o":"m 417 -17 q 279 17 342 -17 q 171 113 217 50 q 100 263 125 175 q 75 461 75 351 q 100 657 75 569 q 171 806 125 744 q 279 899 217 867 q 417 932 342 932 q 554 899 492 932 q 663 806 617 867 q 733 657 708 744 q 758 461 758 569 q 733 263 758 351 q 663 113 708 175 q 554 17 617 50 q 417 -17 492 -17 m 417 42 q 528 72 478 42 q 615 156 579 101 q 672 288 651 210 q 692 461 692 365 q 672 633 692 557 q 615 763 651 710 q 528 845 579 817 q 417 874 478 874 q 305 845 356 874 q 218 763 254 817 q 162 633 182 710 q 142 461 142 557 q 162 288 142 365 q 218 156 182 210 q 305 72 254 101 q 417 42 356 42 m 283 982 l 257 1008 l 389 1125 l 444 1125 l 576 1008 l 550 982 l 419 1076 l 414 1076 l 283 982 m 558 1051 l 544 1089 q 594 1110 574 1096 q 615 1147 615 1124 q 590 1191 615 1179 q 514 1206 564 1203 l 521 1249 q 626 1224 583 1246 q 668 1154 668 1203 q 658 1113 668 1131 q 633 1083 649 1096 q 597 1063 617 1071 q 558 1051 578 1056 z "},"Ỗ":{"ha":833,"x_min":75,"x_max":758,"o":"m 417 -17 q 279 17 342 -17 q 171 113 217 50 q 100 263 125 175 q 75 461 75 351 q 100 657 75 569 q 171 806 125 744 q 279 899 217 867 q 417 932 342 932 q 554 899 492 932 q 663 806 617 867 q 733 657 708 744 q 758 461 758 569 q 733 263 758 351 q 663 113 708 175 q 554 17 617 50 q 417 -17 492 -17 m 417 42 q 528 72 478 42 q 615 156 579 101 q 672 288 651 210 q 692 461 692 365 q 672 633 692 557 q 615 763 651 710 q 528 845 579 817 q 417 874 478 874 q 305 845 356 874 q 218 763 254 817 q 162 633 182 710 q 142 461 142 557 q 162 288 142 365 q 218 156 182 210 q 305 72 254 101 q 417 42 356 42 m 283 982 l 257 1008 l 389 1124 l 444 1124 l 576 1008 l 550 982 l 419 1075 l 414 1075 l 283 982 m 513 1167 q 452 1178 476 1167 q 407 1203 428 1190 q 366 1228 386 1217 q 321 1240 346 1240 q 281 1221 293 1240 q 264 1169 268 1201 l 222 1174 q 228 1213 224 1193 q 244 1248 233 1232 q 274 1274 256 1264 q 321 1285 293 1285 q 381 1273 356 1285 q 426 1248 406 1261 q 467 1223 447 1235 q 513 1211 488 1211 q 553 1231 540 1211 q 569 1282 565 1250 l 611 1278 q 605 1239 610 1258 q 589 1203 600 1219 q 559 1177 578 1188 q 513 1167 540 1167 z "},"Ộ":{"ha":833,"x_min":75,"x_max":758,"o":"m 417 -17 q 279 17 342 -17 q 171 113 217 50 q 100 263 125 175 q 75 461 75 351 q 100 657 75 569 q 171 806 125 744 q 279 899 217 867 q 417 932 342 932 q 554 899 492 932 q 663 806 617 867 q 733 657 708 744 q 758 461 758 569 q 733 263 758 351 q 663 113 708 175 q 554 17 617 50 q 417 -17 492 -17 m 417 42 q 528 72 478 42 q 615 156 579 101 q 672 288 651 210 q 692 461 692 365 q 672 633 692 557 q 615 763 651 710 q 528 845 579 817 q 417 874 478 874 q 305 845 356 874 q 218 763 254 817 q 162 633 182 710 q 142 461 142 557 q 162 288 142 365 q 218 156 182 210 q 305 72 254 101 q 417 42 356 42 m 257 982 l 229 1008 l 386 1165 l 447 1165 l 604 1008 l 576 982 l 419 1118 l 414 1118 l 257 982 m 417 -272 q 370 -255 389 -272 q 351 -206 351 -237 q 370 -157 351 -175 q 417 -139 389 -139 q 463 -157 444 -139 q 482 -206 482 -175 q 463 -255 482 -237 q 417 -272 444 -272 z "},"Ơ":{"ha":833,"x_min":75,"x_max":758,"o":"m 417 -17 q 279 17 342 -17 q 171 113 217 50 q 100 263 125 175 q 75 461 75 351 q 100 657 75 569 q 171 806 125 744 q 279 899 217 867 q 417 932 342 932 q 569 890 500 932 q 663 933 633 903 q 692 1013 692 964 q 688 1049 692 1029 q 672 1088 683 1069 l 728 1114 q 754 1017 754 1065 q 717 913 754 951 q 617 856 679 874 q 721 696 683 796 q 758 461 758 596 q 733 263 758 351 q 663 113 708 175 q 554 17 617 50 q 417 -17 492 -17 m 417 42 q 528 72 478 42 q 615 156 579 101 q 672 288 651 210 q 692 461 692 365 q 672 633 692 557 q 615 763 651 710 q 528 845 579 817 q 417 874 478 874 q 305 845 356 874 q 218 763 254 817 q 162 633 182 710 q 142 461 142 557 q 162 288 142 365 q 218 156 182 210 q 305 72 254 101 q 417 42 356 42 z "},"Ớ":{"ha":833,"x_min":75,"x_max":758,"o":"m 417 -17 q 279 17 342 -17 q 171 113 217 50 q 100 263 125 175 q 75 461 75 351 q 100 657 75 569 q 171 806 125 744 q 279 899 217 867 q 417 932 342 932 q 569 890 500 932 q 663 933 633 903 q 692 1013 692 964 q 688 1049 692 1029 q 672 1088 683 1069 l 728 1114 q 754 1017 754 1065 q 717 913 754 951 q 617 856 679 874 q 721 696 683 796 q 758 461 758 596 q 733 263 758 351 q 663 113 708 175 q 554 17 617 50 q 417 -17 492 -17 m 417 42 q 528 72 478 42 q 615 156 579 101 q 672 288 651 210 q 692 461 692 365 q 672 633 692 557 q 615 763 651 710 q 528 845 579 817 q 417 874 478 874 q 305 845 356 874 q 218 763 254 817 q 162 633 182 710 q 142 461 142 557 q 162 288 142 365 q 218 156 182 210 q 305 72 254 101 q 417 42 356 42 m 383 981 l 356 1013 l 528 1183 l 568 1138 l 383 981 z "},"Ờ":{"ha":833,"x_min":75,"x_max":758,"o":"m 417 -17 q 279 17 342 -17 q 171 113 217 50 q 100 263 125 175 q 75 461 75 351 q 100 657 75 569 q 171 806 125 744 q 279 899 217 867 q 417 932 342 932 q 569 890 500 932 q 663 933 633 903 q 692 1013 692 964 q 688 1049 692 1029 q 672 1088 683 1069 l 728 1114 q 754 1017 754 1065 q 717 913 754 951 q 617 856 679 874 q 721 696 683 796 q 758 461 758 596 q 733 263 758 351 q 663 113 708 175 q 554 17 617 50 q 417 -17 492 -17 m 417 42 q 528 72 478 42 q 615 156 579 101 q 672 288 651 210 q 692 461 692 365 q 672 633 692 557 q 615 763 651 710 q 528 845 579 817 q 417 874 478 874 q 305 845 356 874 q 218 763 254 817 q 162 633 182 710 q 142 461 142 557 q 162 288 142 365 q 218 156 182 210 q 305 72 254 101 q 417 42 356 42 m 450 981 l 265 1138 l 306 1183 l 478 1013 l 450 981 z "},"Ở":{"ha":833,"x_min":75,"x_max":758,"o":"m 417 -17 q 279 17 342 -17 q 171 113 217 50 q 100 263 125 175 q 75 461 75 351 q 100 657 75 569 q 171 806 125 744 q 279 899 217 867 q 417 932 342 932 q 569 890 500 932 q 663 933 633 903 q 692 1013 692 964 q 688 1049 692 1029 q 672 1088 683 1069 l 728 1114 q 754 1017 754 1065 q 717 913 754 951 q 617 856 679 874 q 721 696 683 796 q 758 461 758 596 q 733 263 758 351 q 663 113 708 175 q 554 17 617 50 q 417 -17 492 -17 m 417 42 q 528 72 478 42 q 615 156 579 101 q 672 288 651 210 q 692 461 692 365 q 672 633 692 557 q 615 763 651 710 q 528 845 579 817 q 417 874 478 874 q 305 845 356 874 q 218 763 254 817 q 162 633 182 710 q 142 461 142 557 q 162 288 142 365 q 218 156 182 210 q 305 72 254 101 q 417 42 356 42 m 382 975 l 371 1013 q 433 1041 408 1024 q 458 1088 458 1058 q 340 1154 458 1150 l 346 1199 q 411 1191 381 1197 q 465 1172 442 1185 q 501 1141 488 1160 q 514 1096 514 1122 q 503 1049 514 1068 q 473 1015 492 1029 q 431 992 454 1001 q 382 975 407 982 z "},"Ỡ":{"ha":833,"x_min":75,"x_max":758,"o":"m 417 -17 q 279 17 342 -17 q 171 113 217 50 q 100 263 125 175 q 75 461 75 351 q 100 657 75 569 q 171 806 125 744 q 279 899 217 867 q 417 932 342 932 q 569 890 500 932 q 663 933 633 903 q 692 1013 692 964 q 688 1049 692 1029 q 672 1088 683 1069 l 728 1114 q 754 1017 754 1065 q 717 913 754 951 q 617 856 679 874 q 721 696 683 796 q 758 461 758 596 q 733 263 758 351 q 663 113 708 175 q 554 17 617 50 q 417 -17 492 -17 m 417 42 q 528 72 478 42 q 615 156 579 101 q 672 288 651 210 q 692 461 692 365 q 672 633 692 557 q 615 763 651 710 q 528 845 579 817 q 417 874 478 874 q 305 845 356 874 q 218 763 254 817 q 162 633 182 710 q 142 461 142 557 q 162 288 142 365 q 218 156 182 210 q 305 72 254 101 q 417 42 356 42 m 497 997 q 429 1015 457 997 q 378 1052 401 1032 q 334 1090 356 1072 q 283 1107 313 1107 q 232 1078 253 1107 q 207 1001 211 1050 l 161 1006 q 195 1115 164 1071 q 283 1158 226 1158 q 351 1141 324 1158 q 402 1103 379 1124 q 447 1066 425 1083 q 497 1049 468 1049 q 547 1078 528 1049 q 574 1156 567 1107 l 619 1151 q 585 1042 617 1086 q 497 997 554 997 z "},"Ợ":{"ha":833,"x_min":75,"x_max":758,"o":"m 417 -17 q 279 17 342 -17 q 171 113 217 50 q 100 263 125 175 q 75 461 75 351 q 100 657 75 569 q 171 806 125 744 q 279 899 217 867 q 417 932 342 932 q 569 890 500 932 q 663 933 633 903 q 692 1013 692 964 q 688 1049 692 1029 q 672 1088 683 1069 l 728 1114 q 754 1017 754 1065 q 717 913 754 951 q 617 856 679 874 q 721 696 683 796 q 758 461 758 596 q 733 263 758 351 q 663 113 708 175 q 554 17 617 50 q 417 -17 492 -17 m 417 42 q 528 72 478 42 q 615 156 579 101 q 672 288 651 210 q 692 461 692 365 q 672 633 692 557 q 615 763 651 710 q 528 845 579 817 q 417 874 478 874 q 305 845 356 874 q 218 763 254 817 q 162 633 182 710 q 142 461 142 557 q 162 288 142 365 q 218 156 182 210 q 305 72 254 101 q 417 42 356 42 m 417 -272 q 370 -255 389 -272 q 351 -206 351 -237 q 370 -157 351 -175 q 417 -139 389 -139 q 463 -157 444 -139 q 482 -206 482 -175 q 463 -255 482 -237 q 417 -272 444 -272 z "},"Ṓ":{"ha":833,"x_min":75,"x_max":758,"o":"m 417 -17 q 279 17 342 -17 q 171 113 217 50 q 100 263 125 175 q 75 461 75 351 q 100 657 75 569 q 171 806 125 744 q 279 899 217 867 q 417 932 342 932 q 554 899 492 932 q 663 806 617 867 q 733 657 708 744 q 758 461 758 569 q 733 263 758 351 q 663 113 708 175 q 554 17 617 50 q 417 -17 492 -17 m 417 42 q 528 72 478 42 q 615 156 579 101 q 672 288 651 210 q 692 461 692 365 q 672 633 692 557 q 615 763 651 710 q 528 845 579 817 q 417 874 478 874 q 305 845 356 874 q 218 763 254 817 q 162 633 182 710 q 142 461 142 557 q 162 288 142 365 q 218 156 182 210 q 305 72 254 101 q 417 42 356 42 m 244 1032 l 244 1082 l 589 1082 l 589 1032 l 244 1032 m 401 1143 l 374 1172 l 515 1313 l 551 1274 l 401 1143 z "},"Ø":{"ha":833,"x_min":72,"x_max":758,"o":"m 417 -17 q 294 10 350 -17 q 193 85 238 36 l 115 -32 l 72 -3 l 160 128 q 97 274 119 190 q 75 461 75 357 q 100 657 75 569 q 171 806 125 744 q 279 899 217 867 q 417 932 342 932 q 638 836 549 932 l 713 947 l 756 918 l 671 793 q 735 649 713 732 q 758 461 758 565 q 733 263 758 351 q 663 113 708 175 q 554 17 617 50 q 417 -17 492 -17 m 142 461 q 157 308 142 378 q 200 186 172 239 l 601 782 q 417 874 529 874 q 305 845 356 874 q 218 763 254 817 q 162 633 182 710 q 142 461 142 557 m 417 42 q 528 72 478 42 q 615 156 579 101 q 672 288 651 210 q 692 461 692 365 q 632 735 692 628 l 231 139 q 313 67 267 92 q 417 42 360 42 z "},"Ǿ":{"ha":833,"x_min":72,"x_max":758,"o":"m 417 -17 q 294 10 350 -17 q 193 85 238 36 l 115 -32 l 72 -3 l 160 128 q 97 274 119 190 q 75 461 75 357 q 100 657 75 569 q 171 806 125 744 q 279 899 217 867 q 417 932 342 932 q 638 836 549 932 l 713 947 l 756 918 l 671 793 q 735 649 713 732 q 758 461 758 565 q 733 263 758 351 q 663 113 708 175 q 554 17 617 50 q 417 -17 492 -17 m 142 461 q 157 308 142 378 q 200 186 172 239 l 601 782 q 417 874 529 874 q 305 845 356 874 q 218 763 254 817 q 162 633 182 710 q 142 461 142 557 m 417 42 q 528 72 478 42 q 615 156 579 101 q 672 288 651 210 q 692 461 692 365 q 632 735 692 628 l 231 139 q 313 67 267 92 q 417 42 360 42 m 383 981 l 356 1013 l 528 1183 l 568 1138 l 383 981 z "},"Œ":{"ha":833,"x_min":57,"x_max":818,"o":"m 418 0 q 262 33 329 0 q 149 126 194 65 q 80 272 103 186 q 57 461 57 357 q 80 649 57 565 q 149 792 103 733 q 262 884 194 851 q 418 917 329 917 l 804 917 l 804 863 l 506 863 l 506 514 l 733 514 l 733 458 l 506 458 l 506 56 l 818 56 l 818 0 l 418 0 m 411 54 l 444 54 l 444 863 l 411 863 q 282 833 336 863 q 192 751 228 804 q 140 624 157 699 q 124 461 124 550 q 140 297 124 371 q 192 168 157 222 q 282 84 228 114 q 411 54 336 54 z "},"Ŕ":{"ha":833,"x_min":163,"x_max":743,"o":"m 163 0 l 163 915 l 424 915 q 547 902 492 915 q 642 860 603 889 q 703 785 682 831 q 725 674 725 739 q 662 502 725 564 q 490 425 599 440 l 743 0 l 668 0 l 421 421 l 226 421 l 226 0 l 163 0 m 226 474 l 407 474 q 594 523 529 474 q 660 674 660 572 q 594 819 660 776 q 407 861 529 861 l 226 861 l 226 474 m 390 981 l 363 1013 l 535 1183 l 575 1138 l 390 981 z "},"Ř":{"ha":833,"x_min":163,"x_max":743,"o":"m 163 0 l 163 915 l 424 915 q 547 902 492 915 q 642 860 603 889 q 703 785 682 831 q 725 674 725 739 q 662 502 725 564 q 490 425 599 440 l 743 0 l 668 0 l 421 421 l 226 421 l 226 0 l 163 0 m 226 474 l 407 474 q 594 523 529 474 q 660 674 660 572 q 594 819 660 776 q 407 861 529 861 l 226 861 l 226 474 m 393 985 l 236 1143 l 264 1168 l 421 1032 l 426 1032 l 583 1168 l 611 1143 l 454 985 l 393 985 z "},"Ṙ":{"ha":833,"x_min":163,"x_max":743,"o":"m 163 0 l 163 915 l 424 915 q 547 902 492 915 q 642 860 603 889 q 703 785 682 831 q 725 674 725 739 q 662 502 725 564 q 490 425 599 440 l 743 0 l 668 0 l 421 421 l 226 421 l 226 0 l 163 0 m 226 474 l 407 474 q 594 523 529 474 q 660 674 660 572 q 594 819 660 776 q 407 861 529 861 l 226 861 l 226 474 m 424 1001 q 383 1017 400 1001 q 367 1060 367 1033 q 383 1100 367 1085 q 424 1115 400 1115 q 464 1100 447 1115 q 481 1060 481 1085 q 464 1017 481 1033 q 424 1001 447 1001 z "},"Ŗ":{"ha":833,"x_min":163,"x_max":743,"o":"m 163 0 l 163 915 l 424 915 q 547 902 492 915 q 642 860 603 889 q 703 785 682 831 q 725 674 725 739 q 662 502 725 564 q 490 425 599 440 l 743 0 l 668 0 l 421 421 l 226 421 l 226 0 l 163 0 m 226 474 l 407 474 q 594 523 529 474 q 660 674 660 572 q 594 819 660 776 q 407 861 529 861 l 226 861 l 226 474 m 338 -304 l 328 -262 q 451 -239 418 -257 q 485 -190 485 -221 q 456 -144 485 -158 q 378 -125 428 -129 l 396 -85 q 507 -119 475 -96 q 539 -186 539 -142 q 488 -269 539 -240 q 338 -304 436 -297 z "},"Ṛ":{"ha":833,"x_min":163,"x_max":743,"o":"m 163 0 l 163 915 l 424 915 q 547 902 492 915 q 642 860 603 889 q 703 785 682 831 q 725 674 725 739 q 662 502 725 564 q 490 425 599 440 l 743 0 l 668 0 l 421 421 l 226 421 l 226 0 l 163 0 m 226 474 l 407 474 q 594 523 529 474 q 660 674 660 572 q 594 819 660 776 q 407 861 529 861 l 226 861 l 226 474 m 444 -272 q 398 -255 417 -272 q 379 -206 379 -237 q 398 -157 379 -175 q 444 -139 417 -139 q 491 -157 472 -139 q 510 -206 510 -175 q 491 -255 510 -237 q 444 -272 472 -272 z "},"Ṝ":{"ha":833,"x_min":163,"x_max":743,"o":"m 163 0 l 163 915 l 424 915 q 547 902 492 915 q 642 860 603 889 q 703 785 682 831 q 725 674 725 739 q 662 502 725 564 q 490 425 599 440 l 743 0 l 668 0 l 421 421 l 226 421 l 226 0 l 163 0 m 226 474 l 407 474 q 594 523 529 474 q 660 674 660 572 q 594 819 660 776 q 407 861 529 861 l 226 861 l 226 474 m 251 1032 l 251 1082 l 596 1082 l 596 1032 l 251 1032 m 444 -272 q 398 -255 417 -272 q 379 -206 379 -237 q 398 -157 379 -175 q 444 -139 417 -139 q 491 -157 472 -139 q 510 -206 510 -175 q 491 -255 510 -237 q 444 -272 472 -272 z "},"Ṟ":{"ha":833,"x_min":163,"x_max":743,"o":"m 163 0 l 163 915 l 424 915 q 547 902 492 915 q 642 860 603 889 q 703 785 682 831 q 725 674 725 739 q 662 502 725 564 q 490 425 599 440 l 743 0 l 668 0 l 421 421 l 226 421 l 226 0 l 163 0 m 226 474 l 407 474 q 594 523 529 474 q 660 674 660 572 q 594 819 660 776 q 407 861 529 861 l 226 861 l 226 474 m 274 -221 l 274 -171 l 615 -171 l 615 -221 l 274 -221 z "},"Ś":{"ha":833,"x_min":106,"x_max":735,"o":"m 429 -17 q 244 22 324 -17 q 106 121 164 60 l 147 165 q 272 75 200 108 q 431 42 344 42 q 606 92 542 42 q 671 224 671 143 q 656 297 671 267 q 617 348 642 326 q 560 385 593 369 q 492 417 528 401 l 354 479 q 287 510 322 492 q 222 555 251 528 q 174 619 193 582 q 154 707 154 656 q 175 798 154 757 q 233 869 196 839 q 322 915 271 899 q 433 932 374 932 q 590 899 521 932 q 703 822 658 867 l 665 781 q 565 848 622 822 q 432 874 507 874 q 277 829 336 874 q 218 710 218 785 q 235 642 218 669 q 277 594 251 614 q 333 559 303 574 q 390 533 363 544 l 528 472 q 607 435 569 456 q 673 386 644 414 q 718 320 701 358 q 735 229 735 282 q 713 131 735 176 q 651 53 692 86 q 555 2 611 21 q 429 -17 499 -17 m 404 981 l 376 1013 l 549 1183 l 589 1138 l 404 981 z "},"Ŝ":{"ha":833,"x_min":106,"x_max":735,"o":"m 429 -17 q 244 22 324 -17 q 106 121 164 60 l 147 165 q 272 75 200 108 q 431 42 344 42 q 606 92 542 42 q 671 224 671 143 q 656 297 671 267 q 617 348 642 326 q 560 385 593 369 q 492 417 528 401 l 354 479 q 287 510 322 492 q 222 555 251 528 q 174 619 193 582 q 154 707 154 656 q 175 798 154 757 q 233 869 196 839 q 322 915 271 899 q 433 932 374 932 q 590 899 521 932 q 703 822 658 867 l 665 781 q 565 848 622 822 q 432 874 507 874 q 277 829 336 874 q 218 710 218 785 q 235 642 218 669 q 277 594 251 614 q 333 559 303 574 q 390 533 363 544 l 528 472 q 607 435 569 456 q 673 386 644 414 q 718 320 701 358 q 735 229 735 282 q 713 131 735 176 q 651 53 692 86 q 555 2 611 21 q 429 -17 499 -17 m 278 982 l 250 1008 l 407 1165 l 468 1165 l 625 1008 l 597 982 l 440 1118 l 435 1118 l 278 982 z "},"Š":{"ha":833,"x_min":106,"x_max":735,"o":"m 429 -17 q 244 22 324 -17 q 106 121 164 60 l 147 165 q 272 75 200 108 q 431 42 344 42 q 606 92 542 42 q 671 224 671 143 q 656 297 671 267 q 617 348 642 326 q 560 385 593 369 q 492 417 528 401 l 354 479 q 287 510 322 492 q 222 555 251 528 q 174 619 193 582 q 154 707 154 656 q 175 798 154 757 q 233 869 196 839 q 322 915 271 899 q 433 932 374 932 q 590 899 521 932 q 703 822 658 867 l 665 781 q 565 848 622 822 q 432 874 507 874 q 277 829 336 874 q 218 710 218 785 q 235 642 218 669 q 277 594 251 614 q 333 559 303 574 q 390 533 363 544 l 528 472 q 607 435 569 456 q 673 386 644 414 q 718 320 701 358 q 735 229 735 282 q 713 131 735 176 q 651 53 692 86 q 555 2 611 21 q 429 -17 499 -17 m 407 985 l 250 1143 l 278 1168 l 435 1032 l 440 1032 l 597 1168 l 625 1143 l 468 985 l 407 985 z "},"Ş":{"ha":833,"x_min":106,"x_max":735,"o":"m 429 -17 q 244 22 324 -17 q 106 121 164 60 l 147 165 q 272 75 200 108 q 431 42 344 42 q 606 92 542 42 q 671 224 671 143 q 656 297 671 267 q 617 348 642 326 q 560 385 593 369 q 492 417 528 401 l 354 479 q 287 510 322 492 q 222 555 251 528 q 174 619 193 582 q 154 707 154 656 q 175 798 154 757 q 233 869 196 839 q 322 915 271 899 q 433 932 374 932 q 590 899 521 932 q 703 822 658 867 l 665 781 q 565 848 622 822 q 432 874 507 874 q 277 829 336 874 q 218 710 218 785 q 235 642 218 669 q 277 594 251 614 q 333 559 303 574 q 390 533 363 544 l 528 472 q 607 435 569 456 q 673 386 644 414 q 718 320 701 358 q 735 229 735 282 q 713 131 735 176 q 651 53 692 86 q 555 2 611 21 q 429 -17 499 -17 m 347 -304 l 338 -262 q 461 -239 428 -257 q 494 -189 494 -221 q 469 -142 494 -158 q 386 -118 444 -126 l 433 10 l 482 10 l 450 -90 q 522 -123 494 -101 q 549 -186 549 -144 q 497 -269 549 -240 q 347 -304 446 -297 z "},"Ș":{"ha":833,"x_min":106,"x_max":735,"o":"m 429 -17 q 244 22 324 -17 q 106 121 164 60 l 147 165 q 272 75 200 108 q 431 42 344 42 q 606 92 542 42 q 671 224 671 143 q 656 297 671 267 q 617 348 642 326 q 560 385 593 369 q 492 417 528 401 l 354 479 q 287 510 322 492 q 222 555 251 528 q 174 619 193 582 q 154 707 154 656 q 175 798 154 757 q 233 869 196 839 q 322 915 271 899 q 433 932 374 932 q 590 899 521 932 q 703 822 658 867 l 665 781 q 565 848 622 822 q 432 874 507 874 q 277 829 336 874 q 218 710 218 785 q 235 642 218 669 q 277 594 251 614 q 333 559 303 574 q 390 533 363 544 l 528 472 q 607 435 569 456 q 673 386 644 414 q 718 320 701 358 q 735 229 735 282 q 713 131 735 176 q 651 53 692 86 q 555 2 611 21 q 429 -17 499 -17 m 335 -304 l 325 -262 q 449 -239 415 -257 q 482 -190 482 -221 q 453 -144 482 -158 q 375 -125 425 -129 l 393 -85 q 504 -119 472 -96 q 536 -186 536 -142 q 485 -269 536 -240 q 335 -304 433 -297 z "},"Ṡ":{"ha":833,"x_min":106,"x_max":735,"o":"m 429 -17 q 244 22 324 -17 q 106 121 164 60 l 147 165 q 272 75 200 108 q 431 42 344 42 q 606 92 542 42 q 671 224 671 143 q 656 297 671 267 q 617 348 642 326 q 560 385 593 369 q 492 417 528 401 l 354 479 q 287 510 322 492 q 222 555 251 528 q 174 619 193 582 q 154 707 154 656 q 175 798 154 757 q 233 869 196 839 q 322 915 271 899 q 433 932 374 932 q 590 899 521 932 q 703 822 658 867 l 665 781 q 565 848 622 822 q 432 874 507 874 q 277 829 336 874 q 218 710 218 785 q 235 642 218 669 q 277 594 251 614 q 333 559 303 574 q 390 533 363 544 l 528 472 q 607 435 569 456 q 673 386 644 414 q 718 320 701 358 q 735 229 735 282 q 713 131 735 176 q 651 53 692 86 q 555 2 611 21 q 429 -17 499 -17 m 438 1001 q 397 1017 414 1001 q 381 1060 381 1033 q 397 1100 381 1085 q 438 1115 414 1115 q 478 1100 461 1115 q 494 1060 494 1085 q 478 1017 494 1033 q 438 1001 461 1001 z "},"Ṣ":{"ha":833,"x_min":106,"x_max":735,"o":"m 429 -17 q 244 22 324 -17 q 106 121 164 60 l 147 165 q 272 75 200 108 q 431 42 344 42 q 606 92 542 42 q 671 224 671 143 q 656 297 671 267 q 617 348 642 326 q 560 385 593 369 q 492 417 528 401 l 354 479 q 287 510 322 492 q 222 555 251 528 q 174 619 193 582 q 154 707 154 656 q 175 798 154 757 q 233 869 196 839 q 322 915 271 899 q 433 932 374 932 q 590 899 521 932 q 703 822 658 867 l 665 781 q 565 848 622 822 q 432 874 507 874 q 277 829 336 874 q 218 710 218 785 q 235 642 218 669 q 277 594 251 614 q 333 559 303 574 q 390 533 363 544 l 528 472 q 607 435 569 456 q 673 386 644 414 q 718 320 701 358 q 735 229 735 282 q 713 131 735 176 q 651 53 692 86 q 555 2 611 21 q 429 -17 499 -17 m 442 -272 q 395 -255 414 -272 q 376 -206 376 -237 q 395 -157 376 -175 q 442 -139 414 -139 q 488 -157 469 -139 q 507 -206 507 -175 q 488 -255 507 -237 q 442 -272 469 -272 z "},"ẞ":{"ha":833,"x_min":121,"x_max":782,"o":"m 540 -17 q 411 11 472 -17 q 308 92 350 39 l 349 136 q 434 64 389 88 q 539 40 479 40 q 668 93 622 40 q 714 229 714 146 q 703 303 714 268 q 660 368 692 339 q 574 420 629 397 q 432 458 519 443 l 428 507 l 629 746 q 425 875 568 875 q 253 801 319 875 q 186 572 186 728 l 186 0 l 121 0 l 121 590 q 144 735 121 671 q 208 842 167 799 q 304 909 249 886 q 426 932 360 932 q 601 880 536 932 q 701 740 665 828 l 501 507 q 635 462 582 489 q 722 399 689 435 q 768 322 754 364 q 782 231 782 279 q 764 133 782 178 q 714 54 746 88 q 638 2 682 21 q 540 -17 593 -17 z "},"Ť":{"ha":833,"x_min":67,"x_max":767,"o":"m 385 0 l 385 860 l 67 860 l 67 915 l 767 915 l 767 860 l 449 860 l 449 0 l 385 0 m 386 985 l 229 1143 l 257 1168 l 414 1032 l 419 1032 l 576 1168 l 604 1143 l 447 985 l 386 985 z "},"Ţ":{"ha":833,"x_min":67,"x_max":767,"o":"m 385 0 l 385 860 l 67 860 l 67 915 l 767 915 l 767 860 l 449 860 l 449 0 l 385 0 m 310 -304 l 300 -262 q 424 -239 390 -257 q 457 -189 457 -221 q 432 -142 457 -158 q 349 -118 407 -126 l 396 10 l 444 10 l 413 -90 q 484 -123 457 -101 q 511 -186 511 -144 q 460 -269 511 -240 q 310 -304 408 -297 z "},"Ț":{"ha":833,"x_min":67,"x_max":767,"o":"m 385 0 l 385 860 l 67 860 l 67 915 l 767 915 l 767 860 l 449 860 l 449 0 l 385 0 m 310 -304 l 300 -262 q 424 -239 390 -257 q 457 -190 457 -221 q 428 -144 457 -158 q 350 -125 400 -129 l 368 -85 q 479 -119 447 -96 q 511 -186 511 -142 q 460 -269 511 -240 q 310 -304 408 -297 z "},"Ṭ":{"ha":833,"x_min":67,"x_max":767,"o":"m 385 0 l 385 860 l 67 860 l 67 915 l 767 915 l 767 860 l 449 860 l 449 0 l 385 0 m 417 -272 q 370 -255 389 -272 q 351 -206 351 -237 q 370 -157 351 -175 q 417 -139 389 -139 q 463 -157 444 -139 q 482 -206 482 -175 q 463 -255 482 -237 q 417 -272 444 -272 z "},"Ṯ":{"ha":833,"x_min":67,"x_max":767,"o":"m 385 0 l 385 860 l 67 860 l 67 915 l 767 915 l 767 860 l 449 860 l 449 0 l 385 0 m 246 -221 l 246 -171 l 588 -171 l 588 -221 l 246 -221 z "},"Ŧ":{"ha":833,"x_min":67,"x_max":767,"o":"m 182 456 l 182 504 l 300 507 l 385 507 l 385 860 l 67 860 l 67 915 l 767 915 l 767 860 l 449 860 l 449 507 l 651 507 l 651 456 l 449 456 l 449 0 l 385 0 l 385 456 l 182 456 z "},"Ù":{"ha":833,"x_min":124,"x_max":710,"o":"m 417 -17 q 306 1 360 -17 q 213 59 253 18 q 148 169 172 100 q 124 343 124 239 l 124 915 l 188 915 l 188 350 q 206 202 188 261 q 256 108 225 143 q 329 57 288 72 q 417 42 371 42 q 506 57 464 42 q 581 108 549 72 q 631 202 613 143 q 650 350 650 261 l 650 915 l 710 915 l 710 343 q 685 169 710 239 q 621 59 661 100 q 528 1 581 18 q 417 -17 475 -17 m 450 981 l 265 1138 l 306 1183 l 478 1013 l 450 981 z "},"Ú":{"ha":833,"x_min":124,"x_max":710,"o":"m 417 -17 q 306 1 360 -17 q 213 59 253 18 q 148 169 172 100 q 124 343 124 239 l 124 915 l 188 915 l 188 350 q 206 202 188 261 q 256 108 225 143 q 329 57 288 72 q 417 42 371 42 q 506 57 464 42 q 581 108 549 72 q 631 202 613 143 q 650 350 650 261 l 650 915 l 710 915 l 710 343 q 685 169 710 239 q 621 59 661 100 q 528 1 581 18 q 417 -17 475 -17 m 383 981 l 356 1013 l 528 1183 l 568 1138 l 383 981 z "},"Û":{"ha":833,"x_min":124,"x_max":710,"o":"m 417 -17 q 306 1 360 -17 q 213 59 253 18 q 148 169 172 100 q 124 343 124 239 l 124 915 l 188 915 l 188 350 q 206 202 188 261 q 256 108 225 143 q 329 57 288 72 q 417 42 371 42 q 506 57 464 42 q 581 108 549 72 q 631 202 613 143 q 650 350 650 261 l 650 915 l 710 915 l 710 343 q 685 169 710 239 q 621 59 661 100 q 528 1 581 18 q 417 -17 475 -17 m 257 982 l 229 1008 l 386 1165 l 447 1165 l 604 1008 l 576 982 l 419 1118 l 414 1118 l 257 982 z "},"Ũ":{"ha":833,"x_min":124,"x_max":710,"o":"m 417 -17 q 306 1 360 -17 q 213 59 253 18 q 148 169 172 100 q 124 343 124 239 l 124 915 l 188 915 l 188 350 q 206 202 188 261 q 256 108 225 143 q 329 57 288 72 q 417 42 371 42 q 506 57 464 42 q 581 108 549 72 q 631 202 613 143 q 650 350 650 261 l 650 915 l 710 915 l 710 343 q 685 169 710 239 q 621 59 661 100 q 528 1 581 18 q 417 -17 475 -17 m 524 997 q 456 1015 483 997 q 405 1052 428 1032 q 360 1090 382 1072 q 310 1107 339 1107 q 258 1078 279 1107 q 233 1001 238 1050 l 188 1006 q 222 1115 190 1071 q 310 1158 253 1158 q 378 1141 350 1158 q 428 1103 406 1124 q 473 1066 451 1083 q 524 1049 494 1049 q 574 1078 554 1049 q 600 1156 593 1107 l 646 1151 q 612 1042 643 1086 q 524 997 581 997 z "},"Ü":{"ha":833,"x_min":124,"x_max":710,"o":"m 417 -17 q 306 1 360 -17 q 213 59 253 18 q 148 169 172 100 q 124 343 124 239 l 124 915 l 188 915 l 188 350 q 206 202 188 261 q 256 108 225 143 q 329 57 288 72 q 417 42 371 42 q 506 57 464 42 q 581 108 549 72 q 631 202 613 143 q 650 350 650 261 l 650 915 l 710 915 l 710 343 q 685 169 710 239 q 621 59 661 100 q 528 1 581 18 q 417 -17 475 -17 m 306 1007 q 269 1021 283 1007 q 254 1058 254 1035 q 269 1096 254 1082 q 306 1110 283 1110 q 342 1096 328 1110 q 357 1058 357 1082 q 342 1021 357 1035 q 306 1007 328 1007 m 528 1007 q 491 1021 506 1007 q 476 1058 476 1035 q 491 1096 476 1082 q 528 1110 506 1110 q 565 1096 550 1110 q 579 1058 579 1082 q 565 1021 579 1035 q 528 1007 550 1007 z "},"Ū":{"ha":833,"x_min":124,"x_max":710,"o":"m 417 -17 q 306 1 360 -17 q 213 59 253 18 q 148 169 172 100 q 124 343 124 239 l 124 915 l 188 915 l 188 350 q 206 202 188 261 q 256 108 225 143 q 329 57 288 72 q 417 42 371 42 q 506 57 464 42 q 581 108 549 72 q 631 202 613 143 q 650 350 650 261 l 650 915 l 710 915 l 710 343 q 685 169 710 239 q 621 59 661 100 q 528 1 581 18 q 417 -17 475 -17 m 244 1032 l 244 1082 l 589 1082 l 589 1032 l 244 1032 z "},"Ŭ":{"ha":833,"x_min":124,"x_max":710,"o":"m 417 -17 q 306 1 360 -17 q 213 59 253 18 q 148 169 172 100 q 124 343 124 239 l 124 915 l 188 915 l 188 350 q 206 202 188 261 q 256 108 225 143 q 329 57 288 72 q 417 42 371 42 q 506 57 464 42 q 581 108 549 72 q 631 202 613 143 q 650 350 650 261 l 650 915 l 710 915 l 710 343 q 685 169 710 239 q 621 59 661 100 q 528 1 581 18 q 417 -17 475 -17 m 417 986 q 337 1001 371 986 q 280 1042 303 1017 q 244 1097 257 1067 q 228 1158 232 1128 l 274 1165 q 288 1115 278 1139 q 315 1073 297 1092 q 358 1043 333 1054 q 417 1032 383 1032 q 475 1043 450 1032 q 518 1073 500 1054 q 546 1115 536 1092 q 560 1165 556 1139 l 606 1158 q 589 1097 601 1128 q 553 1042 576 1067 q 497 1001 531 1017 q 417 986 463 986 z "},"Ů":{"ha":833,"x_min":124,"x_max":710,"o":"m 417 -17 q 306 1 360 -17 q 213 59 253 18 q 148 169 172 100 q 124 343 124 239 l 124 915 l 188 915 l 188 350 q 206 202 188 261 q 256 108 225 143 q 329 57 288 72 q 417 42 371 42 q 506 57 464 42 q 581 108 549 72 q 631 202 613 143 q 650 350 650 261 l 650 915 l 710 915 l 710 343 q 685 169 710 239 q 621 59 661 100 q 528 1 581 18 q 417 -17 475 -17 m 417 972 q 330 1005 365 972 q 294 1090 294 1038 q 330 1178 294 1146 q 417 1210 365 1210 q 503 1178 467 1210 q 539 1090 539 1146 q 503 1005 539 1038 q 417 972 467 972 m 417 1008 q 472 1029 449 1008 q 494 1090 494 1050 q 472 1152 494 1131 q 417 1174 449 1174 q 360 1152 383 1174 q 336 1090 336 1131 q 360 1029 336 1050 q 417 1008 383 1008 z "},"Ű":{"ha":833,"x_min":124,"x_max":710,"o":"m 417 -17 q 306 1 360 -17 q 213 59 253 18 q 148 169 172 100 q 124 343 124 239 l 124 915 l 188 915 l 188 350 q 206 202 188 261 q 256 108 225 143 q 329 57 288 72 q 417 42 371 42 q 506 57 464 42 q 581 108 549 72 q 631 202 613 143 q 650 350 650 261 l 650 915 l 710 915 l 710 343 q 685 169 710 239 q 621 59 661 100 q 528 1 581 18 q 417 -17 475 -17 m 313 983 l 276 1001 l 399 1207 l 446 1178 l 313 983 m 513 983 l 476 1001 l 599 1207 l 646 1178 l 513 983 z "},"Ǔ":{"ha":833,"x_min":124,"x_max":710,"o":"m 417 -17 q 306 1 360 -17 q 213 59 253 18 q 148 169 172 100 q 124 343 124 239 l 124 915 l 188 915 l 188 350 q 206 202 188 261 q 256 108 225 143 q 329 57 288 72 q 417 42 371 42 q 506 57 464 42 q 581 108 549 72 q 631 202 613 143 q 650 350 650 261 l 650 915 l 710 915 l 710 343 q 685 169 710 239 q 621 59 661 100 q 528 1 581 18 q 417 -17 475 -17 m 386 985 l 229 1143 l 257 1168 l 414 1032 l 419 1032 l 576 1168 l 604 1143 l 447 985 l 386 985 z "},"Ų":{"ha":833,"x_min":124,"x_max":710,"o":"m 438 -311 q 343 -281 381 -311 q 306 -187 306 -251 q 336 -88 306 -131 q 401 -17 367 -46 q 289 8 340 -14 q 201 72 238 29 q 144 182 164 115 q 124 343 124 249 l 124 915 l 188 915 l 188 350 q 206 202 188 261 q 255 108 224 143 q 328 57 286 72 q 415 42 369 42 q 505 57 463 42 q 579 108 547 72 q 631 202 611 143 q 650 350 650 261 l 650 915 l 710 915 l 710 343 q 697 206 710 264 q 658 108 683 149 q 597 40 633 67 q 511 -6 560 13 q 394 -84 428 -37 q 360 -179 360 -131 q 386 -241 360 -221 q 446 -261 413 -261 q 490 -251 472 -261 q 524 -226 508 -242 l 551 -261 q 503 -297 529 -282 q 438 -311 478 -311 z "},"Ǖ":{"ha":833,"x_min":124,"x_max":710,"o":"m 417 -17 q 306 1 360 -17 q 213 59 253 18 q 148 169 172 100 q 124 343 124 239 l 124 915 l 188 915 l 188 350 q 206 202 188 261 q 256 108 225 143 q 329 57 288 72 q 417 42 371 42 q 506 57 464 42 q 581 108 549 72 q 631 202 613 143 q 650 350 650 261 l 650 915 l 710 915 l 710 343 q 685 169 710 239 q 621 59 661 100 q 528 1 581 18 q 417 -17 475 -17 m 281 1007 q 246 1019 260 1007 q 232 1056 232 1032 q 246 1092 232 1079 q 281 1106 260 1106 q 316 1092 301 1106 q 331 1056 331 1079 q 316 1019 331 1032 q 281 1007 301 1007 m 553 1007 q 517 1019 532 1007 q 503 1056 503 1032 q 517 1092 503 1079 q 553 1106 532 1106 q 588 1092 574 1106 q 601 1056 601 1079 q 588 1019 601 1032 q 553 1007 574 1007 m 244 1186 l 244 1232 l 589 1232 l 589 1186 l 244 1186 z "},"Ǘ":{"ha":833,"x_min":124,"x_max":710,"o":"m 417 -17 q 306 1 360 -17 q 213 59 253 18 q 148 169 172 100 q 124 343 124 239 l 124 915 l 188 915 l 188 350 q 206 202 188 261 q 256 108 225 143 q 329 57 288 72 q 417 42 371 42 q 506 57 464 42 q 581 108 549 72 q 631 202 613 143 q 650 350 650 261 l 650 915 l 710 915 l 710 343 q 685 169 710 239 q 621 59 661 100 q 528 1 581 18 q 417 -17 475 -17 m 281 1007 q 246 1019 260 1007 q 232 1056 232 1032 q 246 1092 232 1079 q 281 1106 260 1106 q 316 1092 301 1106 q 331 1056 331 1079 q 316 1019 331 1032 q 281 1007 301 1007 m 553 1007 q 517 1019 532 1007 q 503 1056 503 1032 q 517 1092 503 1079 q 553 1106 532 1106 q 588 1092 574 1106 q 601 1056 601 1079 q 588 1019 601 1032 q 553 1007 574 1007 m 408 1142 l 378 1165 l 508 1313 l 551 1278 l 408 1142 z "},"Ǚ":{"ha":833,"x_min":124,"x_max":710,"o":"m 417 -17 q 306 1 360 -17 q 213 59 253 18 q 148 169 172 100 q 124 343 124 239 l 124 915 l 188 915 l 188 350 q 206 202 188 261 q 256 108 225 143 q 329 57 288 72 q 417 42 371 42 q 506 57 464 42 q 581 108 549 72 q 631 202 613 143 q 650 350 650 261 l 650 915 l 710 915 l 710 343 q 685 169 710 239 q 621 59 661 100 q 528 1 581 18 q 417 -17 475 -17 m 281 1007 q 246 1019 260 1007 q 232 1056 232 1032 q 246 1092 232 1079 q 281 1106 260 1106 q 316 1092 301 1106 q 331 1056 331 1079 q 316 1019 331 1032 q 281 1007 301 1007 m 553 1007 q 517 1019 532 1007 q 503 1056 503 1032 q 517 1092 503 1079 q 553 1106 532 1106 q 588 1092 574 1106 q 601 1056 601 1079 q 588 1019 601 1032 q 553 1007 574 1007 m 389 1151 l 244 1282 l 271 1310 l 414 1203 l 419 1203 l 563 1310 l 589 1282 l 444 1151 l 389 1151 z "},"Ǜ":{"ha":833,"x_min":124,"x_max":710,"o":"m 417 -17 q 306 1 360 -17 q 213 59 253 18 q 148 169 172 100 q 124 343 124 239 l 124 915 l 188 915 l 188 350 q 206 202 188 261 q 256 108 225 143 q 329 57 288 72 q 417 42 371 42 q 506 57 464 42 q 581 108 549 72 q 631 202 613 143 q 650 350 650 261 l 650 915 l 710 915 l 710 343 q 685 169 710 239 q 621 59 661 100 q 528 1 581 18 q 417 -17 475 -17 m 281 1007 q 246 1019 260 1007 q 232 1056 232 1032 q 246 1092 232 1079 q 281 1106 260 1106 q 316 1092 301 1106 q 331 1056 331 1079 q 316 1019 331 1032 q 281 1007 301 1007 m 553 1007 q 517 1019 532 1007 q 503 1056 503 1032 q 517 1092 503 1079 q 553 1106 532 1106 q 588 1092 574 1106 q 601 1056 601 1079 q 588 1019 601 1032 q 553 1007 574 1007 m 425 1142 l 282 1278 l 325 1313 l 456 1165 l 425 1142 z "},"Ụ":{"ha":833,"x_min":124,"x_max":710,"o":"m 417 -17 q 306 1 360 -17 q 213 59 253 18 q 148 169 172 100 q 124 343 124 239 l 124 915 l 188 915 l 188 350 q 206 202 188 261 q 256 108 225 143 q 329 57 288 72 q 417 42 371 42 q 506 57 464 42 q 581 108 549 72 q 631 202 613 143 q 650 350 650 261 l 650 915 l 710 915 l 710 343 q 685 169 710 239 q 621 59 661 100 q 528 1 581 18 q 417 -17 475 -17 m 417 -272 q 370 -255 389 -272 q 351 -206 351 -237 q 370 -157 351 -175 q 417 -139 389 -139 q 463 -157 444 -139 q 482 -206 482 -175 q 463 -255 482 -237 q 417 -272 444 -272 z "},"Ủ":{"ha":833,"x_min":124,"x_max":710,"o":"m 417 -17 q 306 1 360 -17 q 213 59 253 18 q 148 169 172 100 q 124 343 124 239 l 124 915 l 188 915 l 188 350 q 206 202 188 261 q 256 108 225 143 q 329 57 288 72 q 417 42 371 42 q 506 57 464 42 q 581 108 549 72 q 631 202 613 143 q 650 350 650 261 l 650 915 l 710 915 l 710 343 q 685 169 710 239 q 621 59 661 100 q 528 1 581 18 q 417 -17 475 -17 m 382 975 l 371 1013 q 433 1041 408 1024 q 458 1088 458 1058 q 340 1154 458 1150 l 346 1199 q 411 1191 381 1197 q 465 1172 442 1185 q 501 1141 488 1160 q 514 1096 514 1122 q 503 1049 514 1068 q 473 1015 492 1029 q 431 992 454 1001 q 382 975 407 982 z "},"Ư":{"ha":833,"x_min":124,"x_max":851,"o":"m 417 -17 q 306 1 360 -17 q 213 59 253 18 q 148 169 172 100 q 124 343 124 239 l 124 915 l 188 915 l 188 350 q 206 202 188 261 q 256 108 225 143 q 329 57 288 72 q 417 42 371 42 q 506 57 464 42 q 581 108 549 72 q 631 202 613 143 q 650 350 650 261 l 650 915 l 664 915 q 760 953 731 925 q 789 1038 789 982 q 784 1074 789 1054 q 769 1113 779 1094 l 824 1139 q 851 1042 851 1092 q 840 976 851 1004 q 808 930 828 949 q 762 899 788 911 q 710 879 736 886 l 710 343 q 685 169 710 239 q 621 59 661 100 q 528 1 581 18 q 417 -17 475 -17 z "},"Ứ":{"ha":833,"x_min":124,"x_max":851,"o":"m 417 -17 q 306 1 360 -17 q 213 59 253 18 q 148 169 172 100 q 124 343 124 239 l 124 915 l 188 915 l 188 350 q 206 202 188 261 q 256 108 225 143 q 329 57 288 72 q 417 42 371 42 q 506 57 464 42 q 581 108 549 72 q 631 202 613 143 q 650 350 650 261 l 650 915 l 664 915 q 760 953 731 925 q 789 1038 789 982 q 784 1074 789 1054 q 769 1113 779 1094 l 824 1139 q 851 1042 851 1092 q 840 976 851 1004 q 808 930 828 949 q 762 899 788 911 q 710 879 736 886 l 710 343 q 685 169 710 239 q 621 59 661 100 q 528 1 581 18 q 417 -17 475 -17 m 383 981 l 356 1013 l 528 1183 l 568 1138 l 383 981 z "},"Ừ":{"ha":833,"x_min":124,"x_max":851,"o":"m 417 -17 q 306 1 360 -17 q 213 59 253 18 q 148 169 172 100 q 124 343 124 239 l 124 915 l 188 915 l 188 350 q 206 202 188 261 q 256 108 225 143 q 329 57 288 72 q 417 42 371 42 q 506 57 464 42 q 581 108 549 72 q 631 202 613 143 q 650 350 650 261 l 650 915 l 664 915 q 760 953 731 925 q 789 1038 789 982 q 784 1074 789 1054 q 769 1113 779 1094 l 824 1139 q 851 1042 851 1092 q 840 976 851 1004 q 808 930 828 949 q 762 899 788 911 q 710 879 736 886 l 710 343 q 685 169 710 239 q 621 59 661 100 q 528 1 581 18 q 417 -17 475 -17 m 450 981 l 265 1138 l 306 1183 l 478 1013 l 450 981 z "},"Ử":{"ha":833,"x_min":124,"x_max":851,"o":"m 417 -17 q 306 1 360 -17 q 213 59 253 18 q 148 169 172 100 q 124 343 124 239 l 124 915 l 188 915 l 188 350 q 206 202 188 261 q 256 108 225 143 q 329 57 288 72 q 417 42 371 42 q 506 57 464 42 q 581 108 549 72 q 631 202 613 143 q 650 350 650 261 l 650 915 l 664 915 q 760 953 731 925 q 789 1038 789 982 q 784 1074 789 1054 q 769 1113 779 1094 l 824 1139 q 851 1042 851 1092 q 840 976 851 1004 q 808 930 828 949 q 762 899 788 911 q 710 879 736 886 l 710 343 q 685 169 710 239 q 621 59 661 100 q 528 1 581 18 q 417 -17 475 -17 m 382 975 l 371 1013 q 433 1041 408 1024 q 458 1088 458 1058 q 340 1154 458 1150 l 346 1199 q 411 1191 381 1197 q 465 1172 442 1185 q 501 1141 488 1160 q 514 1096 514 1122 q 503 1049 514 1068 q 473 1015 492 1029 q 431 992 454 1001 q 382 975 407 982 z "},"Ữ":{"ha":833,"x_min":124,"x_max":851,"o":"m 417 -17 q 306 1 360 -17 q 213 59 253 18 q 148 169 172 100 q 124 343 124 239 l 124 915 l 188 915 l 188 350 q 206 202 188 261 q 256 108 225 143 q 329 57 288 72 q 417 42 371 42 q 506 57 464 42 q 581 108 549 72 q 631 202 613 143 q 650 350 650 261 l 650 915 l 664 915 q 760 953 731 925 q 789 1038 789 982 q 784 1074 789 1054 q 769 1113 779 1094 l 824 1139 q 851 1042 851 1092 q 840 976 851 1004 q 808 930 828 949 q 762 899 788 911 q 710 879 736 886 l 710 343 q 685 169 710 239 q 621 59 661 100 q 528 1 581 18 q 417 -17 475 -17 m 524 997 q 456 1015 483 997 q 405 1052 428 1032 q 360 1090 382 1072 q 310 1107 339 1107 q 258 1078 279 1107 q 233 1001 238 1050 l 188 1006 q 222 1115 190 1071 q 310 1158 253 1158 q 378 1141 350 1158 q 428 1103 406 1124 q 473 1066 451 1083 q 524 1049 494 1049 q 574 1078 554 1049 q 600 1156 593 1107 l 646 1151 q 612 1042 643 1086 q 524 997 581 997 z "},"Ự":{"ha":833,"x_min":124,"x_max":851,"o":"m 417 -17 q 306 1 360 -17 q 213 59 253 18 q 148 169 172 100 q 124 343 124 239 l 124 915 l 188 915 l 188 350 q 206 202 188 261 q 256 108 225 143 q 329 57 288 72 q 417 42 371 42 q 506 57 464 42 q 581 108 549 72 q 631 202 613 143 q 650 350 650 261 l 650 915 l 664 915 q 760 953 731 925 q 789 1038 789 982 q 784 1074 789 1054 q 769 1113 779 1094 l 824 1139 q 851 1042 851 1092 q 840 976 851 1004 q 808 930 828 949 q 762 899 788 911 q 710 879 736 886 l 710 343 q 685 169 710 239 q 621 59 661 100 q 528 1 581 18 q 417 -17 475 -17 m 417 -272 q 370 -255 389 -272 q 351 -206 351 -237 q 370 -157 351 -175 q 417 -139 389 -139 q 463 -157 444 -139 q 482 -206 482 -175 q 463 -255 482 -237 q 417 -272 444 -272 z "},"Ṿ":{"ha":833,"x_min":82,"x_max":751,"o":"m 383 0 l 82 915 l 150 915 l 319 381 q 344 301 332 339 q 367 227 356 264 q 390 153 378 190 q 415 74 401 115 l 421 74 q 470 227 449 157 q 518 381 492 297 l 688 915 l 751 915 l 453 0 l 383 0 m 421 -272 q 374 -255 393 -272 q 356 -206 356 -237 q 374 -157 356 -175 q 421 -139 393 -139 q 467 -157 449 -139 q 486 -206 486 -175 q 467 -255 486 -237 q 421 -272 449 -272 z "},"Ẁ":{"ha":833,"x_min":19,"x_max":814,"o":"m 169 0 l 19 917 l 83 917 l 181 290 q 195 183 188 235 q 208 74 203 132 l 213 74 q 242 183 228 132 q 272 290 257 235 l 386 678 l 451 678 l 565 290 q 595 183 581 235 q 625 74 610 132 l 631 74 q 644 183 638 132 q 658 290 651 235 l 751 917 l 814 917 l 667 0 l 585 0 l 458 435 q 439 515 447 475 q 419 594 431 554 l 415 594 q 395 515 404 554 q 374 435 386 475 l 251 0 l 169 0 m 450 981 l 265 1138 l 306 1183 l 478 1013 l 450 981 z "},"Ẃ":{"ha":833,"x_min":19,"x_max":814,"o":"m 169 0 l 19 917 l 83 917 l 181 290 q 195 183 188 235 q 208 74 203 132 l 213 74 q 242 183 228 132 q 272 290 257 235 l 386 678 l 451 678 l 565 290 q 595 183 581 235 q 625 74 610 132 l 631 74 q 644 183 638 132 q 658 290 651 235 l 751 917 l 814 917 l 667 0 l 585 0 l 458 435 q 439 515 447 475 q 419 594 431 554 l 415 594 q 395 515 404 554 q 374 435 386 475 l 251 0 l 169 0 m 383 981 l 356 1013 l 528 1183 l 568 1138 l 383 981 z "},"Ŵ":{"ha":833,"x_min":19,"x_max":814,"o":"m 169 0 l 19 917 l 83 917 l 181 290 q 195 183 188 235 q 208 74 203 132 l 213 74 q 242 183 228 132 q 272 290 257 235 l 386 678 l 451 678 l 565 290 q 595 183 581 235 q 625 74 610 132 l 631 74 q 644 183 638 132 q 658 290 651 235 l 751 917 l 814 917 l 667 0 l 585 0 l 458 435 q 439 515 447 475 q 419 594 431 554 l 415 594 q 395 515 404 554 q 374 435 386 475 l 251 0 l 169 0 m 257 982 l 229 1008 l 386 1165 l 447 1165 l 604 1008 l 576 982 l 419 1118 l 414 1118 l 257 982 z "},"Ẅ":{"ha":833,"x_min":19,"x_max":814,"o":"m 169 0 l 19 917 l 83 917 l 181 290 q 195 183 188 235 q 208 74 203 132 l 213 74 q 242 183 228 132 q 272 290 257 235 l 386 678 l 451 678 l 565 290 q 595 183 581 235 q 625 74 610 132 l 631 74 q 644 183 638 132 q 658 290 651 235 l 751 917 l 814 917 l 667 0 l 585 0 l 458 435 q 439 515 447 475 q 419 594 431 554 l 415 594 q 395 515 404 554 q 374 435 386 475 l 251 0 l 169 0 m 306 1007 q 269 1021 283 1007 q 254 1058 254 1035 q 269 1096 254 1082 q 306 1110 283 1110 q 342 1096 328 1110 q 357 1058 357 1082 q 342 1021 357 1035 q 306 1007 328 1007 m 528 1007 q 491 1021 506 1007 q 476 1058 476 1035 q 491 1096 476 1082 q 528 1110 506 1110 q 565 1096 550 1110 q 579 1058 579 1082 q 565 1021 579 1035 q 528 1007 550 1007 z "},"Ỳ":{"ha":833,"x_min":71,"x_max":763,"o":"m 385 0 l 385 336 l 71 915 l 136 915 l 299 613 q 358 506 331 560 q 417 397 385 453 l 422 397 q 484 507 454 453 q 542 614 514 561 l 700 915 l 763 915 l 449 336 l 449 0 l 385 0 m 450 981 l 265 1138 l 306 1183 l 478 1013 l 450 981 z "},"Ý":{"ha":833,"x_min":71,"x_max":763,"o":"m 385 0 l 385 336 l 71 915 l 136 915 l 299 613 q 358 506 331 560 q 417 397 385 453 l 422 397 q 484 507 454 453 q 542 614 514 561 l 700 915 l 763 915 l 449 336 l 449 0 l 385 0 m 383 981 l 356 1013 l 528 1183 l 568 1138 l 383 981 z "},"Ŷ":{"ha":833,"x_min":71,"x_max":763,"o":"m 385 0 l 385 336 l 71 915 l 136 915 l 299 613 q 358 506 331 560 q 417 397 385 453 l 422 397 q 484 507 454 453 q 542 614 514 561 l 700 915 l 763 915 l 449 336 l 449 0 l 385 0 m 257 982 l 229 1008 l 386 1165 l 447 1165 l 604 1008 l 576 982 l 419 1118 l 414 1118 l 257 982 z "},"Ÿ":{"ha":833,"x_min":71,"x_max":763,"o":"m 385 0 l 385 336 l 71 915 l 136 915 l 299 613 q 358 506 331 560 q 417 397 385 453 l 422 397 q 484 507 454 453 q 542 614 514 561 l 700 915 l 763 915 l 449 336 l 449 0 l 385 0 m 306 1007 q 269 1021 283 1007 q 254 1058 254 1035 q 269 1096 254 1082 q 306 1110 283 1110 q 342 1096 328 1110 q 357 1058 357 1082 q 342 1021 357 1035 q 306 1007 328 1007 m 528 1007 q 491 1021 506 1007 q 476 1058 476 1035 q 491 1096 476 1082 q 528 1110 506 1110 q 565 1096 550 1110 q 579 1058 579 1082 q 565 1021 579 1035 q 528 1007 550 1007 z "},"Ẏ":{"ha":833,"x_min":71,"x_max":763,"o":"m 385 0 l 385 336 l 71 915 l 136 915 l 299 613 q 358 506 331 560 q 417 397 385 453 l 422 397 q 484 507 454 453 q 542 614 514 561 l 700 915 l 763 915 l 449 336 l 449 0 l 385 0 m 417 1001 q 376 1017 393 1001 q 360 1060 360 1033 q 376 1100 360 1085 q 417 1115 393 1115 q 457 1100 440 1115 q 474 1060 474 1085 q 457 1017 474 1033 q 417 1001 440 1001 z "},"Ỵ":{"ha":833,"x_min":71,"x_max":763,"o":"m 385 0 l 385 336 l 71 915 l 136 915 l 299 613 q 358 506 331 560 q 417 397 385 453 l 422 397 q 484 507 454 453 q 542 614 514 561 l 700 915 l 763 915 l 449 336 l 449 0 l 385 0 m 417 -272 q 370 -255 389 -272 q 351 -206 351 -237 q 370 -157 351 -175 q 417 -139 389 -139 q 463 -157 444 -139 q 482 -206 482 -175 q 463 -255 482 -237 q 417 -272 444 -272 z "},"Ỷ":{"ha":833,"x_min":71,"x_max":763,"o":"m 385 0 l 385 336 l 71 915 l 136 915 l 299 613 q 358 506 331 560 q 417 397 385 453 l 422 397 q 484 507 454 453 q 542 614 514 561 l 700 915 l 763 915 l 449 336 l 449 0 l 385 0 m 382 975 l 371 1013 q 433 1041 408 1024 q 458 1088 458 1058 q 340 1154 458 1150 l 346 1199 q 411 1191 381 1197 q 465 1172 442 1185 q 501 1141 488 1160 q 514 1096 514 1122 q 503 1049 514 1068 q 473 1015 492 1029 q 431 992 454 1001 q 382 975 407 982 z "},"Ỹ":{"ha":833,"x_min":71,"x_max":763,"o":"m 385 0 l 385 336 l 71 915 l 136 915 l 299 613 q 358 506 331 560 q 417 397 385 453 l 422 397 q 484 507 454 453 q 542 614 514 561 l 700 915 l 763 915 l 449 336 l 449 0 l 385 0 m 524 997 q 456 1015 483 997 q 405 1052 428 1032 q 360 1090 382 1072 q 310 1107 339 1107 q 258 1078 279 1107 q 233 1001 238 1050 l 188 1006 q 222 1115 190 1071 q 310 1158 253 1158 q 378 1141 350 1158 q 428 1103 406 1124 q 473 1066 451 1083 q 524 1049 494 1049 q 574 1078 554 1049 q 600 1156 593 1107 l 646 1151 q 612 1042 643 1086 q 524 997 581 997 z "},"Ź":{"ha":833,"x_min":97,"x_max":743,"o":"m 97 0 l 97 39 l 657 863 l 144 863 l 144 917 l 733 917 l 733 878 l 174 56 l 743 56 l 743 0 l 97 0 m 406 981 l 378 1013 l 550 1183 l 590 1138 l 406 981 z "},"Ž":{"ha":833,"x_min":97,"x_max":743,"o":"m 97 0 l 97 39 l 657 863 l 144 863 l 144 917 l 733 917 l 733 878 l 174 56 l 743 56 l 743 0 l 97 0 m 408 985 l 251 1143 l 279 1168 l 436 1032 l 442 1032 l 599 1168 l 626 1143 l 469 985 l 408 985 z "},"Ż":{"ha":833,"x_min":97,"x_max":743,"o":"m 97 0 l 97 39 l 657 863 l 144 863 l 144 917 l 733 917 l 733 878 l 174 56 l 743 56 l 743 0 l 97 0 m 439 1001 q 399 1017 415 1001 q 382 1060 382 1033 q 399 1100 382 1085 q 439 1115 415 1115 q 479 1100 463 1115 q 496 1060 496 1085 q 479 1017 496 1033 q 439 1001 463 1001 z "},"Ẑ":{"ha":833,"x_min":97,"x_max":743,"o":"m 97 0 l 97 39 l 657 863 l 144 863 l 144 917 l 733 917 l 733 878 l 174 56 l 743 56 l 743 0 l 97 0 m 279 982 l 251 1008 l 408 1165 l 469 1165 l 626 1008 l 599 982 l 442 1118 l 436 1118 l 279 982 z "},"Ẓ":{"ha":833,"x_min":97,"x_max":743,"o":"m 97 0 l 97 39 l 657 863 l 144 863 l 144 917 l 733 917 l 733 878 l 174 56 l 743 56 l 743 0 l 97 0 m 431 -272 q 384 -255 403 -272 q 365 -206 365 -237 q 384 -157 365 -175 q 431 -139 403 -139 q 477 -157 458 -139 q 496 -206 496 -175 q 477 -255 496 -237 q 431 -272 458 -272 z "},"Ẕ":{"ha":833,"x_min":97,"x_max":743,"o":"m 97 0 l 97 39 l 657 863 l 144 863 l 144 917 l 733 917 l 733 878 l 174 56 l 743 56 l 743 0 l 97 0 m 260 -221 l 260 -171 l 601 -171 l 601 -221 l 260 -221 z "},"Ð":{"ha":833,"x_min":26,"x_max":758,"o":"m 133 0 l 133 460 l 26 460 l 26 506 l 133 513 l 133 915 l 344 915 q 528 883 450 915 q 657 792 606 851 q 733 649 708 732 q 758 461 758 565 q 733 272 758 357 q 657 126 708 186 q 528 33 606 65 q 346 0 450 0 l 133 0 m 197 54 l 339 54 q 497 84 431 54 q 607 168 564 114 q 671 297 650 222 q 692 461 692 371 q 671 624 692 550 q 607 750 650 697 q 497 832 564 803 q 339 861 431 861 l 197 861 l 197 513 l 426 513 l 426 460 l 197 460 l 197 54 z "},"Þ":{"ha":833,"x_min":164,"x_max":740,"o":"m 164 0 l 164 915 l 228 915 l 228 753 l 414 753 q 551 739 490 753 q 653 695 611 725 q 718 617 696 665 q 740 497 740 568 q 654 297 740 363 q 414 231 568 231 l 228 231 l 228 0 l 164 0 m 228 285 l 397 285 q 606 335 539 285 q 674 497 674 385 q 605 655 674 611 q 397 699 536 699 l 228 699 l 228 285 z "},"Ə":{"ha":833,"x_min":89,"x_max":756,"o":"m 415 -17 q 278 19 339 -17 q 176 117 218 54 q 111 266 133 179 q 89 457 89 353 l 89 468 l 692 468 q 673 637 690 561 q 621 766 656 713 q 536 848 586 819 q 419 876 486 876 q 308 852 358 876 q 218 786 257 828 l 185 829 q 283 903 225 874 q 419 932 342 932 q 563 899 500 932 q 668 805 625 867 q 733 656 711 743 q 756 460 756 568 q 731 263 756 351 q 661 113 706 175 q 554 17 617 51 q 415 -17 492 -17 m 415 39 q 524 65 475 39 q 609 140 574 92 q 665 258 644 189 q 690 415 686 328 l 153 415 q 229 139 160 239 q 415 39 299 39 z "},"Ŋ":{"ha":833,"x_min":133,"x_max":757,"o":"m 539 -17 q 488 -12 515 -17 q 440 1 460 -8 l 460 61 q 492 50 475 54 q 533 46 510 46 q 594 67 565 46 q 644 137 622 88 q 678 267 665 186 q 690 468 690 347 q 672 664 690 586 q 621 788 654 742 q 541 854 588 835 q 439 874 494 874 q 376 862 410 874 q 310 830 343 850 q 249 783 278 810 q 197 728 219 757 l 197 0 l 133 0 l 133 915 l 196 915 l 196 794 q 249 846 219 821 q 310 890 278 871 q 376 920 342 908 q 447 932 411 932 q 571 908 514 932 q 669 828 628 883 q 733 685 710 774 q 757 468 757 596 q 740 238 757 331 q 693 89 722 146 q 624 8 664 32 q 539 -17 585 -17 z "},"Ĳ":{"ha":833,"x_min":186,"x_max":647,"o":"m 186 0 l 186 915 l 250 915 l 250 0 l 186 0 m 494 -217 q 447 -211 471 -217 q 408 -199 424 -206 l 422 -144 q 455 -153 436 -149 q 493 -157 474 -157 q 567 -117 550 -157 q 583 -12 583 -76 l 583 915 l 647 915 l 647 -21 q 494 -217 647 -217 z "},"à":{"ha":833,"x_min":128,"x_max":700,"o":"m 360 -17 q 273 -6 315 -17 q 199 28 231 6 q 147 85 167 50 q 128 167 128 119 q 157 264 128 222 q 248 336 186 306 q 406 386 310 367 q 639 418 503 406 q 629 498 639 460 q 597 565 619 536 q 535 612 574 594 q 440 629 497 629 q 367 621 403 629 q 297 599 331 613 q 236 569 264 585 q 188 539 208 553 l 160 585 q 210 616 179 599 q 279 648 242 633 q 360 673 317 663 q 447 683 403 683 q 562 663 514 683 q 640 608 610 643 q 685 527 671 574 q 700 426 700 481 l 700 0 l 649 0 l 642 100 l 639 100 q 508 19 581 54 q 360 -17 435 -17 m 371 36 q 639 157 497 36 l 639 371 q 426 342 511 360 q 288 299 340 324 q 213 242 235 274 q 190 169 190 210 q 206 108 190 133 q 247 67 221 83 q 305 44 272 51 q 371 36 338 36 m 488 794 l 288 1004 l 335 1047 l 521 826 l 488 794 z "},"á":{"ha":833,"x_min":128,"x_max":700,"o":"m 360 -17 q 273 -6 315 -17 q 199 28 231 6 q 147 85 167 50 q 128 167 128 119 q 157 264 128 222 q 248 336 186 306 q 406 386 310 367 q 639 418 503 406 q 629 498 639 460 q 597 565 619 536 q 535 612 574 594 q 440 629 497 629 q 367 621 403 629 q 297 599 331 613 q 236 569 264 585 q 188 539 208 553 l 160 585 q 210 616 179 599 q 279 648 242 633 q 360 673 317 663 q 447 683 403 683 q 562 663 514 683 q 640 608 610 643 q 685 527 671 574 q 700 426 700 481 l 700 0 l 649 0 l 642 100 l 639 100 q 508 19 581 54 q 360 -17 435 -17 m 371 36 q 639 157 497 36 l 639 371 q 426 342 511 360 q 288 299 340 324 q 213 242 235 274 q 190 169 190 210 q 206 108 190 133 q 247 67 221 83 q 305 44 272 51 q 371 36 338 36 m 401 794 l 368 826 l 554 1047 l 601 1004 l 401 794 z "},"â":{"ha":833,"x_min":128,"x_max":700,"o":"m 360 -17 q 273 -6 315 -17 q 199 28 231 6 q 147 85 167 50 q 128 167 128 119 q 157 264 128 222 q 248 336 186 306 q 406 386 310 367 q 639 418 503 406 q 629 498 639 460 q 597 565 619 536 q 535 612 574 594 q 440 629 497 629 q 367 621 403 629 q 297 599 331 613 q 236 569 264 585 q 188 539 208 553 l 160 585 q 210 616 179 599 q 279 648 242 633 q 360 673 317 663 q 447 683 403 683 q 562 663 514 683 q 640 608 610 643 q 685 527 671 574 q 700 426 700 481 l 700 0 l 649 0 l 642 100 l 639 100 q 508 19 581 54 q 360 -17 435 -17 m 371 36 q 639 157 497 36 l 639 371 q 426 342 511 360 q 288 299 340 324 q 213 242 235 274 q 190 169 190 210 q 206 108 190 133 q 247 67 221 83 q 305 44 272 51 q 371 36 338 36 m 283 794 l 253 824 l 415 1024 l 474 1024 l 636 824 l 606 794 l 447 969 l 442 969 l 283 794 z "},"ã":{"ha":833,"x_min":128,"x_max":700,"o":"m 360 -17 q 273 -6 315 -17 q 199 28 231 6 q 147 85 167 50 q 128 167 128 119 q 157 264 128 222 q 248 336 186 306 q 406 386 310 367 q 639 418 503 406 q 629 498 639 460 q 597 565 619 536 q 535 612 574 594 q 440 629 497 629 q 367 621 403 629 q 297 599 331 613 q 236 569 264 585 q 188 539 208 553 l 160 585 q 210 616 179 599 q 279 648 242 633 q 360 673 317 663 q 447 683 403 683 q 562 663 514 683 q 640 608 610 643 q 685 527 671 574 q 700 426 700 481 l 700 0 l 649 0 l 642 100 l 639 100 q 508 19 581 54 q 360 -17 435 -17 m 371 36 q 639 157 497 36 l 639 371 q 426 342 511 360 q 288 299 340 324 q 213 242 235 274 q 190 169 190 210 q 206 108 190 133 q 247 67 221 83 q 305 44 272 51 q 371 36 338 36 m 550 804 q 483 825 510 804 q 433 871 456 846 q 390 917 411 896 q 339 938 368 938 q 284 900 301 938 q 264 808 267 863 l 217 811 q 225 876 218 844 q 247 931 232 907 q 284 971 261 956 q 340 986 307 986 q 406 965 379 986 q 456 919 433 944 q 500 874 478 894 q 551 853 522 853 q 605 891 588 853 q 625 982 622 929 l 672 979 q 663 916 669 947 q 642 860 657 885 q 606 819 628 835 q 550 804 583 804 z "},"ä":{"ha":833,"x_min":128,"x_max":700,"o":"m 360 -17 q 273 -6 315 -17 q 199 28 231 6 q 147 85 167 50 q 128 167 128 119 q 157 264 128 222 q 248 336 186 306 q 406 386 310 367 q 639 418 503 406 q 629 498 639 460 q 597 565 619 536 q 535 612 574 594 q 440 629 497 629 q 367 621 403 629 q 297 599 331 613 q 236 569 264 585 q 188 539 208 553 l 160 585 q 210 616 179 599 q 279 648 242 633 q 360 673 317 663 q 447 683 403 683 q 562 663 514 683 q 640 608 610 643 q 685 527 671 574 q 700 426 700 481 l 700 0 l 649 0 l 642 100 l 639 100 q 508 19 581 54 q 360 -17 435 -17 m 371 36 q 639 157 497 36 l 639 371 q 426 342 511 360 q 288 299 340 324 q 213 242 235 274 q 190 169 190 210 q 206 108 190 133 q 247 67 221 83 q 305 44 272 51 q 371 36 338 36 m 321 831 q 281 848 297 831 q 265 889 265 865 q 281 929 265 913 q 321 946 297 946 q 360 929 344 946 q 376 889 376 913 q 360 848 376 865 q 321 831 344 831 m 568 831 q 528 848 544 831 q 513 889 513 865 q 528 929 513 913 q 568 946 544 946 q 608 929 592 946 q 624 889 624 913 q 608 848 624 865 q 568 831 592 831 z "},"ā":{"ha":833,"x_min":128,"x_max":700,"o":"m 360 -17 q 273 -6 315 -17 q 199 28 231 6 q 147 85 167 50 q 128 167 128 119 q 157 264 128 222 q 248 336 186 306 q 406 386 310 367 q 639 418 503 406 q 629 498 639 460 q 597 565 619 536 q 535 612 574 594 q 440 629 497 629 q 367 621 403 629 q 297 599 331 613 q 236 569 264 585 q 188 539 208 553 l 160 585 q 210 616 179 599 q 279 648 242 633 q 360 673 317 663 q 447 683 403 683 q 562 663 514 683 q 640 608 610 643 q 685 527 671 574 q 700 426 700 481 l 700 0 l 649 0 l 642 100 l 639 100 q 508 19 581 54 q 360 -17 435 -17 m 371 36 q 639 157 497 36 l 639 371 q 426 342 511 360 q 288 299 340 324 q 213 242 235 274 q 190 169 190 210 q 206 108 190 133 q 247 67 221 83 q 305 44 272 51 q 371 36 338 36 m 274 842 l 274 892 l 615 892 l 615 842 l 274 842 z "},"ă":{"ha":833,"x_min":128,"x_max":700,"o":"m 360 -17 q 273 -6 315 -17 q 199 28 231 6 q 147 85 167 50 q 128 167 128 119 q 157 264 128 222 q 248 336 186 306 q 406 386 310 367 q 639 418 503 406 q 629 498 639 460 q 597 565 619 536 q 535 612 574 594 q 440 629 497 629 q 367 621 403 629 q 297 599 331 613 q 236 569 264 585 q 188 539 208 553 l 160 585 q 210 616 179 599 q 279 648 242 633 q 360 673 317 663 q 447 683 403 683 q 562 663 514 683 q 640 608 610 643 q 685 527 671 574 q 700 426 700 481 l 700 0 l 649 0 l 642 100 l 639 100 q 508 19 581 54 q 360 -17 435 -17 m 371 36 q 639 157 497 36 l 639 371 q 426 342 511 360 q 288 299 340 324 q 213 242 235 274 q 190 169 190 210 q 206 108 190 133 q 247 67 221 83 q 305 44 272 51 q 371 36 338 36 m 444 792 q 353 811 390 792 q 291 860 315 831 q 254 926 267 890 q 238 997 242 963 l 283 1004 q 299 946 288 975 q 331 892 311 917 q 378 853 350 868 q 444 839 407 839 q 510 853 482 839 q 558 892 539 868 q 590 946 578 917 q 606 1004 601 975 l 651 997 q 635 926 647 963 q 598 860 622 890 q 536 811 574 831 q 444 792 499 792 z "},"å":{"ha":833,"x_min":128,"x_max":700,"o":"m 360 -17 q 273 -6 315 -17 q 199 28 231 6 q 147 85 167 50 q 128 167 128 119 q 157 264 128 222 q 248 336 186 306 q 406 386 310 367 q 639 418 503 406 q 629 498 639 460 q 597 565 619 536 q 535 612 574 594 q 440 629 497 629 q 367 621 403 629 q 297 599 331 613 q 236 569 264 585 q 188 539 208 553 l 160 585 q 210 616 179 599 q 279 648 242 633 q 360 673 317 663 q 447 683 403 683 q 562 663 514 683 q 640 608 610 643 q 685 527 671 574 q 700 426 700 481 l 700 0 l 649 0 l 642 100 l 639 100 q 508 19 581 54 q 360 -17 435 -17 m 371 36 q 639 157 497 36 l 639 371 q 426 342 511 360 q 288 299 340 324 q 213 242 235 274 q 190 169 190 210 q 206 108 190 133 q 247 67 221 83 q 305 44 272 51 q 371 36 338 36 m 444 792 q 347 828 383 792 q 310 918 310 864 q 347 1010 310 974 q 444 1046 383 1046 q 542 1010 506 1046 q 579 918 579 974 q 542 828 579 864 q 444 792 506 792 m 444 828 q 508 854 482 828 q 535 918 535 881 q 508 983 535 957 q 444 1010 482 1010 q 381 983 407 1010 q 354 918 354 957 q 381 854 354 881 q 444 828 407 828 z "},"ǻ":{"ha":833,"x_min":128,"x_max":700,"o":"m 360 -17 q 273 -6 315 -17 q 199 28 231 6 q 147 85 167 50 q 128 167 128 119 q 157 264 128 222 q 248 336 186 306 q 406 386 310 367 q 639 418 503 406 q 629 498 639 460 q 597 565 619 536 q 535 612 574 594 q 440 629 497 629 q 367 621 403 629 q 297 599 331 613 q 236 569 264 585 q 188 539 208 553 l 160 585 q 210 616 179 599 q 279 648 242 633 q 360 673 317 663 q 447 683 403 683 q 562 663 514 683 q 640 608 610 643 q 685 527 671 574 q 700 426 700 481 l 700 0 l 649 0 l 642 100 l 639 100 q 508 19 581 54 q 360 -17 435 -17 m 371 36 q 639 157 497 36 l 639 371 q 426 342 511 360 q 288 299 340 324 q 213 242 235 274 q 190 169 190 210 q 206 108 190 133 q 247 67 221 83 q 305 44 272 51 q 371 36 338 36 m 444 792 q 347 828 383 792 q 310 918 310 864 q 327 985 310 956 q 375 1031 344 1014 l 543 1142 l 574 1092 l 475 1043 q 551 1000 524 1033 q 579 918 579 967 q 542 828 579 864 q 444 792 506 792 m 444 828 q 508 854 482 828 q 535 918 535 881 q 508 983 535 957 q 444 1010 482 1010 q 381 983 407 1010 q 354 918 354 957 q 381 854 354 881 q 444 828 407 828 z "},"ǎ":{"ha":833,"x_min":128,"x_max":700,"o":"m 360 -17 q 273 -6 315 -17 q 199 28 231 6 q 147 85 167 50 q 128 167 128 119 q 157 264 128 222 q 248 336 186 306 q 406 386 310 367 q 639 418 503 406 q 629 498 639 460 q 597 565 619 536 q 535 612 574 594 q 440 629 497 629 q 367 621 403 629 q 297 599 331 613 q 236 569 264 585 q 188 539 208 553 l 160 585 q 210 616 179 599 q 279 648 242 633 q 360 673 317 663 q 447 683 403 683 q 562 663 514 683 q 640 608 610 643 q 685 527 671 574 q 700 426 700 481 l 700 0 l 649 0 l 642 100 l 639 100 q 508 19 581 54 q 360 -17 435 -17 m 371 36 q 639 157 497 36 l 639 371 q 426 342 511 360 q 288 299 340 324 q 213 242 235 274 q 190 169 190 210 q 206 108 190 133 q 247 67 221 83 q 305 44 272 51 q 371 36 338 36 m 415 796 l 253 996 l 283 1024 l 442 850 l 447 850 l 606 1024 l 636 996 l 474 796 l 415 796 z "},"ą":{"ha":833,"x_min":128,"x_max":756,"o":"m 642 -311 q 547 -281 583 -311 q 510 -187 510 -251 q 547 -76 510 -125 q 649 13 585 -28 l 642 100 l 639 100 q 508 19 581 54 q 360 -17 435 -17 q 273 -6 315 -17 q 199 28 231 6 q 147 85 167 50 q 128 167 128 119 q 157 264 128 222 q 248 336 186 306 q 406 386 310 367 q 639 418 503 406 q 629 498 639 460 q 597 565 619 536 q 535 612 574 594 q 440 629 497 629 q 367 621 403 629 q 297 599 331 613 q 236 569 264 585 q 188 539 208 553 l 160 585 q 210 616 179 599 q 279 648 242 633 q 360 673 317 663 q 447 683 403 683 q 562 663 514 683 q 640 608 610 643 q 685 527 671 574 q 700 426 700 481 l 700 0 q 594 -85 626 -40 q 563 -179 563 -131 q 590 -242 563 -222 q 650 -262 617 -262 q 695 -253 676 -262 q 728 -229 714 -243 l 756 -261 q 708 -297 733 -283 q 642 -311 682 -311 m 371 36 q 639 157 497 36 l 639 371 q 426 342 511 360 q 288 299 340 324 q 213 242 235 274 q 190 169 190 210 q 206 108 190 133 q 247 67 221 83 q 305 44 272 51 q 371 36 338 36 z "},"ạ":{"ha":833,"x_min":128,"x_max":700,"o":"m 360 -17 q 273 -6 315 -17 q 199 28 231 6 q 147 85 167 50 q 128 167 128 119 q 157 264 128 222 q 248 336 186 306 q 406 386 310 367 q 639 418 503 406 q 629 498 639 460 q 597 565 619 536 q 535 612 574 594 q 440 629 497 629 q 367 621 403 629 q 297 599 331 613 q 236 569 264 585 q 188 539 208 553 l 160 585 q 210 616 179 599 q 279 648 242 633 q 360 673 317 663 q 447 683 403 683 q 562 663 514 683 q 640 608 610 643 q 685 527 671 574 q 700 426 700 481 l 700 0 l 649 0 l 642 100 l 639 100 q 508 19 581 54 q 360 -17 435 -17 m 371 36 q 639 157 497 36 l 639 371 q 426 342 511 360 q 288 299 340 324 q 213 242 235 274 q 190 169 190 210 q 206 108 190 133 q 247 67 221 83 q 305 44 272 51 q 371 36 338 36 m 417 -272 q 370 -255 389 -272 q 351 -206 351 -237 q 370 -157 351 -175 q 417 -139 389 -139 q 463 -157 444 -139 q 482 -206 482 -175 q 463 -255 482 -237 q 417 -272 444 -272 z "},"ả":{"ha":833,"x_min":128,"x_max":700,"o":"m 360 -17 q 273 -6 315 -17 q 199 28 231 6 q 147 85 167 50 q 128 167 128 119 q 157 264 128 222 q 248 336 186 306 q 406 386 310 367 q 639 418 503 406 q 629 498 639 460 q 597 565 619 536 q 535 612 574 594 q 440 629 497 629 q 367 621 403 629 q 297 599 331 613 q 236 569 264 585 q 188 539 208 553 l 160 585 q 210 616 179 599 q 279 648 242 633 q 360 673 317 663 q 447 683 403 683 q 562 663 514 683 q 640 608 610 643 q 685 527 671 574 q 700 426 700 481 l 700 0 l 649 0 l 642 100 l 639 100 q 508 19 581 54 q 360 -17 435 -17 m 371 36 q 639 157 497 36 l 639 371 q 426 342 511 360 q 288 299 340 324 q 213 242 235 274 q 190 169 190 210 q 206 108 190 133 q 247 67 221 83 q 305 44 272 51 q 371 36 338 36 m 410 799 l 399 838 q 461 866 436 849 q 486 914 486 883 q 368 982 486 978 l 372 1029 q 438 1022 407 1028 q 492 1002 469 1015 q 528 969 515 989 q 542 921 542 949 q 531 874 542 893 q 501 840 519 854 q 458 815 482 825 q 410 799 435 806 z "},"ấ":{"ha":833,"x_min":128,"x_max":735,"o":"m 360 -17 q 273 -6 315 -17 q 199 28 231 6 q 147 85 167 50 q 128 167 128 119 q 157 264 128 222 q 248 336 186 306 q 406 386 310 367 q 639 418 503 406 q 629 498 639 460 q 597 565 619 536 q 535 612 574 594 q 440 629 497 629 q 367 621 403 629 q 297 599 331 613 q 236 569 264 585 q 188 539 208 553 l 160 585 q 210 616 179 599 q 279 648 242 633 q 360 673 317 663 q 447 683 403 683 q 562 663 514 683 q 640 608 610 643 q 685 527 671 574 q 700 426 700 481 l 700 0 l 649 0 l 642 100 l 639 100 q 508 19 581 54 q 360 -17 435 -17 m 371 36 q 639 157 497 36 l 639 371 q 426 342 511 360 q 288 299 340 324 q 213 242 235 274 q 190 169 190 210 q 206 108 190 133 q 247 67 221 83 q 305 44 272 51 q 371 36 338 36 m 297 796 l 272 826 l 418 954 l 471 954 l 617 826 l 592 796 l 447 901 l 442 901 l 297 796 m 596 883 l 565 911 l 693 1071 l 735 1038 l 596 883 z "},"ầ":{"ha":833,"x_min":128,"x_max":700,"o":"m 360 -17 q 273 -6 315 -17 q 199 28 231 6 q 147 85 167 50 q 128 167 128 119 q 157 264 128 222 q 248 336 186 306 q 406 386 310 367 q 639 418 503 406 q 629 498 639 460 q 597 565 619 536 q 535 612 574 594 q 440 629 497 629 q 367 621 403 629 q 297 599 331 613 q 236 569 264 585 q 188 539 208 553 l 160 585 q 210 616 179 599 q 279 648 242 633 q 360 673 317 663 q 447 683 403 683 q 562 663 514 683 q 640 608 610 643 q 685 527 671 574 q 700 426 700 481 l 700 0 l 649 0 l 642 100 l 639 100 q 508 19 581 54 q 360 -17 435 -17 m 371 36 q 639 157 497 36 l 639 371 q 426 342 511 360 q 288 299 340 324 q 213 242 235 274 q 190 169 190 210 q 206 108 190 133 q 247 67 221 83 q 305 44 272 51 q 371 36 338 36 m 297 796 l 272 826 l 418 954 l 471 954 l 617 826 l 592 796 l 447 901 l 442 901 l 297 796 m 293 883 l 129 1033 l 171 1071 l 324 915 l 293 883 z "},"ẩ":{"ha":833,"x_min":128,"x_max":700,"o":"m 360 -17 q 273 -6 315 -17 q 199 28 231 6 q 147 85 167 50 q 128 167 128 119 q 157 264 128 222 q 248 336 186 306 q 406 386 310 367 q 639 418 503 406 q 629 498 639 460 q 597 565 619 536 q 535 612 574 594 q 440 629 497 629 q 367 621 403 629 q 297 599 331 613 q 236 569 264 585 q 188 539 208 553 l 160 585 q 210 616 179 599 q 279 648 242 633 q 360 673 317 663 q 447 683 403 683 q 562 663 514 683 q 640 608 610 643 q 685 527 671 574 q 700 426 700 481 l 700 0 l 649 0 l 642 100 l 639 100 q 508 19 581 54 q 360 -17 435 -17 m 371 36 q 639 157 497 36 l 639 371 q 426 342 511 360 q 288 299 340 324 q 213 242 235 274 q 190 169 190 210 q 206 108 190 133 q 247 67 221 83 q 305 44 272 51 q 371 36 338 36 m 297 796 l 272 826 l 418 954 l 471 954 l 617 826 l 592 796 l 447 901 l 442 901 l 297 796 m 588 875 l 576 910 q 625 935 606 921 q 644 974 644 950 q 546 1038 644 1033 l 550 1078 q 655 1053 613 1075 q 697 981 697 1031 q 688 940 697 957 q 662 910 678 922 q 626 889 646 897 q 588 875 607 881 z "},"ẫ":{"ha":833,"x_min":128,"x_max":700,"o":"m 360 -17 q 273 -6 315 -17 q 199 28 231 6 q 147 85 167 50 q 128 167 128 119 q 157 264 128 222 q 248 336 186 306 q 406 386 310 367 q 639 418 503 406 q 629 498 639 460 q 597 565 619 536 q 535 612 574 594 q 440 629 497 629 q 367 621 403 629 q 297 599 331 613 q 236 569 264 585 q 188 539 208 553 l 160 585 q 210 616 179 599 q 279 648 242 633 q 360 673 317 663 q 447 683 403 683 q 562 663 514 683 q 640 608 610 643 q 685 527 671 574 q 700 426 700 481 l 700 0 l 649 0 l 642 100 l 639 100 q 508 19 581 54 q 360 -17 435 -17 m 371 36 q 639 157 497 36 l 639 371 q 426 342 511 360 q 288 299 340 324 q 213 242 235 274 q 190 169 190 210 q 206 108 190 133 q 247 67 221 83 q 305 44 272 51 q 371 36 338 36 m 297 796 l 272 826 l 418 953 l 471 953 l 617 826 l 592 796 l 447 900 l 442 900 l 297 796 m 540 982 q 483 991 508 982 q 437 1011 458 1000 q 394 1031 415 1022 q 350 1040 372 1040 q 317 1025 326 1040 q 304 978 308 1010 l 264 982 q 270 1019 265 1000 q 285 1053 275 1038 q 310 1077 294 1068 q 349 1086 325 1086 q 406 1077 381 1086 q 453 1057 431 1068 q 495 1037 475 1046 q 539 1028 515 1028 q 572 1043 563 1028 q 585 1090 581 1058 l 625 1086 q 619 1049 624 1067 q 604 1015 614 1031 q 578 991 594 1000 q 540 982 563 982 z "},"ậ":{"ha":833,"x_min":128,"x_max":700,"o":"m 360 -17 q 273 -6 315 -17 q 199 28 231 6 q 147 85 167 50 q 128 167 128 119 q 157 264 128 222 q 248 336 186 306 q 406 386 310 367 q 639 418 503 406 q 629 498 639 460 q 597 565 619 536 q 535 612 574 594 q 440 629 497 629 q 367 621 403 629 q 297 599 331 613 q 236 569 264 585 q 188 539 208 553 l 160 585 q 210 616 179 599 q 279 648 242 633 q 360 673 317 663 q 447 683 403 683 q 562 663 514 683 q 640 608 610 643 q 685 527 671 574 q 700 426 700 481 l 700 0 l 649 0 l 642 100 l 639 100 q 508 19 581 54 q 360 -17 435 -17 m 371 36 q 639 157 497 36 l 639 371 q 426 342 511 360 q 288 299 340 324 q 213 242 235 274 q 190 169 190 210 q 206 108 190 133 q 247 67 221 83 q 305 44 272 51 q 371 36 338 36 m 283 794 l 253 824 l 415 1024 l 474 1024 l 636 824 l 606 794 l 447 969 l 442 969 l 283 794 m 417 -272 q 370 -255 389 -272 q 351 -206 351 -237 q 370 -157 351 -175 q 417 -139 389 -139 q 463 -157 444 -139 q 482 -206 482 -175 q 463 -255 482 -237 q 417 -272 444 -272 z "},"ắ":{"ha":833,"x_min":128,"x_max":700,"o":"m 360 -17 q 273 -6 315 -17 q 199 28 231 6 q 147 85 167 50 q 128 167 128 119 q 157 264 128 222 q 248 336 186 306 q 406 386 310 367 q 639 418 503 406 q 629 498 639 460 q 597 565 619 536 q 535 612 574 594 q 440 629 497 629 q 367 621 403 629 q 297 599 331 613 q 236 569 264 585 q 188 539 208 553 l 160 585 q 210 616 179 599 q 279 648 242 633 q 360 673 317 663 q 447 683 403 683 q 562 663 514 683 q 640 608 610 643 q 685 527 671 574 q 700 426 700 481 l 700 0 l 649 0 l 642 100 l 639 100 q 508 19 581 54 q 360 -17 435 -17 m 371 36 q 639 157 497 36 l 639 371 q 426 342 511 360 q 288 299 340 324 q 213 242 235 274 q 190 169 190 210 q 206 108 190 133 q 247 67 221 83 q 305 44 272 51 q 371 36 338 36 m 444 792 q 353 811 390 792 q 291 860 315 831 q 254 926 267 890 q 238 997 242 963 l 282 1004 q 298 945 286 975 q 329 891 310 915 q 378 852 349 867 q 444 838 407 838 q 511 852 482 838 q 560 891 540 867 q 591 945 579 915 q 607 1004 603 975 l 651 997 q 635 926 647 963 q 598 860 622 890 q 536 811 574 831 q 444 792 499 792 m 426 928 l 393 956 l 510 1113 l 553 1078 l 426 928 z "},"ằ":{"ha":833,"x_min":128,"x_max":700,"o":"m 360 -17 q 273 -6 315 -17 q 199 28 231 6 q 147 85 167 50 q 128 167 128 119 q 157 264 128 222 q 248 336 186 306 q 406 386 310 367 q 639 418 503 406 q 629 498 639 460 q 597 565 619 536 q 535 612 574 594 q 440 629 497 629 q 367 621 403 629 q 297 599 331 613 q 236 569 264 585 q 188 539 208 553 l 160 585 q 210 616 179 599 q 279 648 242 633 q 360 673 317 663 q 447 683 403 683 q 562 663 514 683 q 640 608 610 643 q 685 527 671 574 q 700 426 700 481 l 700 0 l 649 0 l 642 100 l 639 100 q 508 19 581 54 q 360 -17 435 -17 m 371 36 q 639 157 497 36 l 639 371 q 426 342 511 360 q 288 299 340 324 q 213 242 235 274 q 190 169 190 210 q 206 108 190 133 q 247 67 221 83 q 305 44 272 51 q 371 36 338 36 m 444 792 q 353 811 390 792 q 291 860 315 831 q 254 926 267 890 q 238 997 242 963 l 282 1004 q 298 945 286 975 q 329 891 310 915 q 378 852 349 867 q 444 838 407 838 q 511 852 482 838 q 560 891 540 867 q 591 945 579 915 q 607 1004 603 975 l 651 997 q 635 926 647 963 q 598 860 622 890 q 536 811 574 831 q 444 792 499 792 m 463 928 l 336 1078 l 379 1113 l 496 956 l 463 928 z "},"ẳ":{"ha":833,"x_min":128,"x_max":700,"o":"m 360 -17 q 273 -6 315 -17 q 199 28 231 6 q 147 85 167 50 q 128 167 128 119 q 157 264 128 222 q 248 336 186 306 q 406 386 310 367 q 639 418 503 406 q 629 498 639 460 q 597 565 619 536 q 535 612 574 594 q 440 629 497 629 q 367 621 403 629 q 297 599 331 613 q 236 569 264 585 q 188 539 208 553 l 160 585 q 210 616 179 599 q 279 648 242 633 q 360 673 317 663 q 447 683 403 683 q 562 663 514 683 q 640 608 610 643 q 685 527 671 574 q 700 426 700 481 l 700 0 l 649 0 l 642 100 l 639 100 q 508 19 581 54 q 360 -17 435 -17 m 371 36 q 639 157 497 36 l 639 371 q 426 342 511 360 q 288 299 340 324 q 213 242 235 274 q 190 169 190 210 q 206 108 190 133 q 247 67 221 83 q 305 44 272 51 q 371 36 338 36 m 444 792 q 353 811 390 792 q 291 860 315 831 q 254 926 267 890 q 238 997 242 963 l 282 1004 q 298 945 286 975 q 329 891 310 915 q 378 852 349 867 q 444 838 407 838 q 511 852 482 838 q 560 891 540 867 q 591 945 579 915 q 607 1004 603 975 l 651 997 q 635 926 647 963 q 598 860 622 890 q 536 811 574 831 q 444 792 499 792 m 414 935 l 403 974 q 460 997 438 981 q 483 1036 483 1013 q 456 1083 483 1068 q 369 1100 428 1097 l 375 1146 q 489 1119 442 1143 q 536 1044 536 1096 q 525 1001 536 1019 q 497 969 514 982 q 457 947 479 956 q 414 935 435 939 z "},"ẵ":{"ha":833,"x_min":128,"x_max":700,"o":"m 360 -17 q 273 -6 315 -17 q 199 28 231 6 q 147 85 167 50 q 128 167 128 119 q 157 264 128 222 q 248 336 186 306 q 406 386 310 367 q 639 418 503 406 q 629 498 639 460 q 597 565 619 536 q 535 612 574 594 q 440 629 497 629 q 367 621 403 629 q 297 599 331 613 q 236 569 264 585 q 188 539 208 553 l 160 585 q 210 616 179 599 q 279 648 242 633 q 360 673 317 663 q 447 683 403 683 q 562 663 514 683 q 640 608 610 643 q 685 527 671 574 q 700 426 700 481 l 700 0 l 649 0 l 642 100 l 639 100 q 508 19 581 54 q 360 -17 435 -17 m 371 36 q 639 157 497 36 l 639 371 q 426 342 511 360 q 288 299 340 324 q 213 242 235 274 q 190 169 190 210 q 206 108 190 133 q 247 67 221 83 q 305 44 272 51 q 371 36 338 36 m 444 792 q 360 806 394 792 q 302 840 325 819 q 267 887 279 861 q 253 936 256 913 l 296 943 q 338 870 301 904 q 444 836 375 836 q 506 846 479 836 q 551 871 532 856 q 580 905 569 886 q 593 943 590 924 l 636 936 q 622 887 633 913 q 587 840 610 861 q 529 806 564 819 q 444 792 494 792 m 540 982 q 483 991 508 982 q 437 1011 458 1000 q 394 1031 415 1022 q 350 1040 372 1040 q 317 1025 326 1040 q 304 978 308 1010 l 263 982 q 269 1019 264 1000 q 283 1053 274 1038 q 309 1077 293 1068 q 349 1086 325 1086 q 406 1077 381 1086 q 453 1057 431 1068 q 495 1037 475 1046 q 539 1028 515 1028 q 572 1043 563 1028 q 585 1090 581 1058 l 626 1086 q 620 1049 625 1067 q 606 1015 615 1031 q 580 991 596 1000 q 540 982 564 982 z "},"ặ":{"ha":833,"x_min":128,"x_max":700,"o":"m 360 -17 q 273 -6 315 -17 q 199 28 231 6 q 147 85 167 50 q 128 167 128 119 q 157 264 128 222 q 248 336 186 306 q 406 386 310 367 q 639 418 503 406 q 629 498 639 460 q 597 565 619 536 q 535 612 574 594 q 440 629 497 629 q 367 621 403 629 q 297 599 331 613 q 236 569 264 585 q 188 539 208 553 l 160 585 q 210 616 179 599 q 279 648 242 633 q 360 673 317 663 q 447 683 403 683 q 562 663 514 683 q 640 608 610 643 q 685 527 671 574 q 700 426 700 481 l 700 0 l 649 0 l 642 100 l 639 100 q 508 19 581 54 q 360 -17 435 -17 m 371 36 q 639 157 497 36 l 639 371 q 426 342 511 360 q 288 299 340 324 q 213 242 235 274 q 190 169 190 210 q 206 108 190 133 q 247 67 221 83 q 305 44 272 51 q 371 36 338 36 m 444 792 q 353 811 390 792 q 291 860 315 831 q 254 926 267 890 q 238 997 242 963 l 283 1004 q 299 946 288 975 q 331 892 311 917 q 378 853 350 868 q 444 839 407 839 q 510 853 482 839 q 558 892 539 868 q 590 946 578 917 q 606 1004 601 975 l 651 997 q 635 926 647 963 q 598 860 622 890 q 536 811 574 831 q 444 792 499 792 m 417 -272 q 370 -255 389 -272 q 351 -206 351 -237 q 370 -157 351 -175 q 417 -139 389 -139 q 463 -157 444 -139 q 482 -206 482 -175 q 463 -255 482 -237 q 417 -272 444 -272 z "},"æ":{"ha":833,"x_min":25,"x_max":832,"o":"m 199 -17 q 74 28 124 -17 q 25 158 25 74 q 44 249 25 208 q 108 321 64 289 q 220 375 151 353 q 388 410 289 397 q 348 580 386 531 q 246 629 310 629 q 200 624 224 629 q 153 610 176 618 q 110 591 131 601 q 75 569 90 581 l 49 614 q 135 660 82 636 q 251 683 189 683 q 363 644 318 683 q 426 521 407 606 q 514 644 458 606 q 632 683 569 683 q 721 660 683 683 q 783 595 758 636 q 820 501 808 554 q 832 389 832 447 q 832 358 832 374 q 829 324 832 343 l 443 324 q 457 207 444 260 q 494 117 469 154 q 554 58 518 79 q 640 38 590 38 q 722 52 685 38 q 788 86 760 67 l 813 40 q 738 1 781 18 q 638 -17 696 -17 q 515 19 567 -17 q 432 117 464 54 q 325 21 383 58 q 199 -17 267 -17 m 210 36 q 317 70 261 36 q 414 163 374 104 q 388 338 388 238 l 388 363 q 240 331 299 350 q 148 288 182 313 q 100 231 114 263 q 86 161 86 199 q 120 69 86 101 q 210 36 154 36 m 631 631 q 566 617 597 631 q 509 573 535 603 q 466 494 483 543 q 444 376 449 446 l 779 376 q 740 567 776 503 q 631 631 704 631 z "},"ǽ":{"ha":833,"x_min":25,"x_max":832,"o":"m 199 -17 q 74 28 124 -17 q 25 158 25 74 q 44 249 25 208 q 108 321 64 289 q 220 375 151 353 q 388 410 289 397 q 348 580 386 531 q 246 629 310 629 q 200 624 224 629 q 153 610 176 618 q 110 591 131 601 q 75 569 90 581 l 49 614 q 135 660 82 636 q 251 683 189 683 q 363 644 318 683 q 426 521 407 606 q 514 644 458 606 q 632 683 569 683 q 721 660 683 683 q 783 595 758 636 q 820 501 808 554 q 832 389 832 447 q 832 358 832 374 q 829 324 832 343 l 443 324 q 457 207 444 260 q 494 117 469 154 q 554 58 518 79 q 640 38 590 38 q 722 52 685 38 q 788 86 760 67 l 813 40 q 738 1 781 18 q 638 -17 696 -17 q 515 19 567 -17 q 432 117 464 54 q 325 21 383 58 q 199 -17 267 -17 m 210 36 q 317 70 261 36 q 414 163 374 104 q 388 338 388 238 l 388 363 q 240 331 299 350 q 148 288 182 313 q 100 231 114 263 q 86 161 86 199 q 120 69 86 101 q 210 36 154 36 m 631 631 q 566 617 597 631 q 509 573 535 603 q 466 494 483 543 q 444 376 449 446 l 779 376 q 740 567 776 503 q 631 631 704 631 m 400 794 l 367 826 l 553 1047 l 600 1004 l 400 794 z "},"ǣ":{"ha":833,"x_min":25,"x_max":832,"o":"m 199 -17 q 74 28 124 -17 q 25 158 25 74 q 44 249 25 208 q 108 321 64 289 q 220 375 151 353 q 388 410 289 397 q 348 580 386 531 q 246 629 310 629 q 200 624 224 629 q 153 610 176 618 q 110 591 131 601 q 75 569 90 581 l 49 614 q 135 660 82 636 q 251 683 189 683 q 363 644 318 683 q 426 521 407 606 q 514 644 458 606 q 632 683 569 683 q 721 660 683 683 q 783 595 758 636 q 820 501 808 554 q 832 389 832 447 q 832 358 832 374 q 829 324 832 343 l 443 324 q 457 207 444 260 q 494 117 469 154 q 554 58 518 79 q 640 38 590 38 q 722 52 685 38 q 788 86 760 67 l 813 40 q 738 1 781 18 q 638 -17 696 -17 q 515 19 567 -17 q 432 117 464 54 q 325 21 383 58 q 199 -17 267 -17 m 210 36 q 317 70 261 36 q 414 163 374 104 q 388 338 388 238 l 388 363 q 240 331 299 350 q 148 288 182 313 q 100 231 114 263 q 86 161 86 199 q 120 69 86 101 q 210 36 154 36 m 631 631 q 566 617 597 631 q 509 573 535 603 q 466 494 483 543 q 444 376 449 446 l 779 376 q 740 567 776 503 q 631 631 704 631 m 272 842 l 272 892 l 614 892 l 614 842 l 272 842 z "},"ƀ":{"ha":833,"x_min":40,"x_max":740,"o":"m 431 -17 q 319 8 379 -17 q 207 75 258 33 l 204 75 l 197 0 l 146 0 l 146 803 l 40 803 l 40 850 l 146 856 l 146 999 l 208 999 l 208 856 l 526 856 l 526 803 l 208 803 l 208 681 l 204 539 l 208 539 q 325 624 258 592 q 457 656 392 656 q 581 633 528 656 q 669 567 633 610 q 722 464 704 524 q 740 329 740 404 q 715 183 740 247 q 647 75 689 119 q 548 7 604 31 q 431 -17 492 -17 m 428 38 q 527 59 482 38 q 605 119 572 81 q 656 210 638 157 q 675 329 675 264 q 663 438 675 388 q 623 524 650 488 q 552 581 596 560 q 447 601 508 601 q 333 572 394 601 q 208 479 271 542 l 208 136 q 326 60 267 83 q 428 38 386 38 z "},"ḇ":{"ha":833,"x_min":146,"x_max":740,"o":"m 431 -17 q 318 8 379 -17 q 207 75 257 33 l 204 75 l 197 0 l 146 0 l 146 999 l 208 999 l 208 710 l 204 567 l 207 567 q 325 651 258 619 q 457 683 392 683 q 669 591 599 683 q 740 343 740 499 q 715 192 740 258 q 647 78 689 125 q 548 8 604 32 q 431 -17 492 -17 m 428 38 q 527 60 482 38 q 605 122 572 82 q 656 219 638 163 q 675 343 675 275 q 663 457 675 404 q 623 548 650 510 q 552 608 596 586 q 447 629 508 629 q 333 599 394 629 q 208 507 271 569 l 208 136 q 326 60 267 83 q 428 38 386 38 m 260 -221 l 260 -171 l 601 -171 l 601 -221 l 260 -221 z "},"ç":{"ha":833,"x_min":121,"x_max":742,"o":"m 482 -17 q 338 7 404 -17 q 224 75 272 31 q 148 184 175 119 q 121 332 121 249 q 149 481 121 415 q 228 592 178 547 q 344 660 278 636 q 485 683 410 683 q 626 653 568 683 q 725 582 683 622 l 689 540 q 597 605 646 581 q 486 629 549 629 q 364 608 419 629 q 269 547 308 586 q 208 453 229 507 q 186 332 186 399 q 208 213 186 267 q 268 119 229 158 q 363 59 307 81 q 485 38 418 38 q 609 65 553 38 q 710 133 665 92 l 742 90 q 625 13 689 42 q 482 -17 561 -17 m 378 -304 l 368 -262 q 492 -239 458 -257 q 525 -189 525 -221 q 500 -142 525 -158 q 417 -118 475 -126 l 464 10 l 513 10 l 481 -90 q 552 -123 525 -101 q 579 -186 579 -144 q 528 -269 579 -240 q 378 -304 476 -297 z "},"ć":{"ha":833,"x_min":121,"x_max":742,"o":"m 482 -17 q 338 7 404 -17 q 224 75 272 31 q 148 184 175 119 q 121 332 121 249 q 149 481 121 415 q 228 592 178 547 q 344 660 278 636 q 485 683 410 683 q 626 653 568 683 q 725 582 683 622 l 689 540 q 597 605 646 581 q 486 629 549 629 q 364 608 419 629 q 269 547 308 586 q 208 453 229 507 q 186 332 186 399 q 208 213 186 267 q 268 119 229 158 q 363 59 307 81 q 485 38 418 38 q 609 65 553 38 q 710 133 665 92 l 742 90 q 625 13 689 42 q 482 -17 561 -17 m 442 794 l 408 826 l 594 1047 l 642 1004 l 442 794 z "},"ĉ":{"ha":833,"x_min":121,"x_max":742,"o":"m 482 -17 q 338 7 404 -17 q 224 75 272 31 q 148 184 175 119 q 121 332 121 249 q 149 481 121 415 q 228 592 178 547 q 344 660 278 636 q 485 683 410 683 q 626 653 568 683 q 725 582 683 622 l 689 540 q 597 605 646 581 q 486 629 549 629 q 364 608 419 629 q 269 547 308 586 q 208 453 229 507 q 186 332 186 399 q 208 213 186 267 q 268 119 229 158 q 363 59 307 81 q 485 38 418 38 q 609 65 553 38 q 710 133 665 92 l 742 90 q 625 13 689 42 q 482 -17 561 -17 m 324 794 l 293 824 l 456 1024 l 514 1024 l 676 824 l 646 794 l 488 969 l 482 969 l 324 794 z "},"č":{"ha":833,"x_min":121,"x_max":742,"o":"m 482 -17 q 338 7 404 -17 q 224 75 272 31 q 148 184 175 119 q 121 332 121 249 q 149 481 121 415 q 228 592 178 547 q 344 660 278 636 q 485 683 410 683 q 626 653 568 683 q 725 582 683 622 l 689 540 q 597 605 646 581 q 486 629 549 629 q 364 608 419 629 q 269 547 308 586 q 208 453 229 507 q 186 332 186 399 q 208 213 186 267 q 268 119 229 158 q 363 59 307 81 q 485 38 418 38 q 609 65 553 38 q 710 133 665 92 l 742 90 q 625 13 689 42 q 482 -17 561 -17 m 456 796 l 293 996 l 324 1024 l 482 850 l 488 850 l 646 1024 l 676 996 l 514 796 l 456 796 z "},"ċ":{"ha":833,"x_min":121,"x_max":742,"o":"m 482 -17 q 338 7 404 -17 q 224 75 272 31 q 148 184 175 119 q 121 332 121 249 q 149 481 121 415 q 228 592 178 547 q 344 660 278 636 q 485 683 410 683 q 626 653 568 683 q 725 582 683 622 l 689 540 q 597 605 646 581 q 486 629 549 629 q 364 608 419 629 q 269 547 308 586 q 208 453 229 507 q 186 332 186 399 q 208 213 186 267 q 268 119 229 158 q 363 59 307 81 q 485 38 418 38 q 609 65 553 38 q 710 133 665 92 l 742 90 q 625 13 689 42 q 482 -17 561 -17 m 485 829 q 438 847 457 829 q 419 896 419 864 q 438 944 419 926 q 485 963 457 963 q 531 944 513 963 q 550 896 550 926 q 531 847 550 864 q 485 829 513 829 z "},"ď":{"ha":833,"x_min":92,"x_max":849,"o":"m 381 -17 q 263 6 315 -17 q 172 74 210 29 q 113 183 133 118 q 92 332 92 247 q 117 478 92 413 q 185 589 142 543 q 284 659 228 635 q 401 683 340 683 q 515 658 464 683 q 617 589 567 633 l 619 589 l 617 724 l 617 999 l 676 999 l 676 0 l 626 0 l 619 99 l 617 99 q 512 19 572 54 q 381 -17 451 -17 m 390 38 q 505 69 449 38 q 617 160 561 101 l 617 531 q 508 606 560 583 q 406 629 457 629 q 307 606 353 629 q 227 544 261 583 q 174 449 193 504 q 154 332 154 394 q 170 211 154 265 q 217 119 186 157 q 291 59 247 81 q 390 38 335 38 m 793 761 l 790 1129 l 849 1129 l 849 1031 l 838 761 l 793 761 z "},"ḍ":{"ha":833,"x_min":93,"x_max":688,"o":"m 388 -17 q 268 6 322 -17 q 175 74 214 29 q 115 183 136 118 q 93 332 93 247 q 119 478 93 413 q 188 589 144 543 q 288 659 232 635 q 407 683 344 683 q 524 658 471 683 q 626 589 576 633 l 629 589 l 625 724 l 625 999 l 688 999 l 688 0 l 635 0 l 628 99 l 625 99 q 519 18 581 53 q 388 -17 458 -17 m 396 38 q 512 69 454 38 q 625 160 569 101 l 625 531 q 516 607 568 585 q 411 629 464 629 q 313 606 358 629 q 232 544 267 583 q 178 449 197 504 q 158 332 158 394 q 174 211 158 265 q 221 119 190 157 q 296 59 251 81 q 396 38 340 38 m 418 -272 q 372 -255 390 -272 q 353 -206 353 -237 q 372 -157 353 -175 q 418 -139 390 -139 q 465 -157 446 -139 q 483 -206 483 -175 q 465 -255 483 -237 q 418 -272 446 -272 z "},"ḏ":{"ha":833,"x_min":93,"x_max":688,"o":"m 388 -17 q 268 6 322 -17 q 175 74 214 29 q 115 183 136 118 q 93 332 93 247 q 119 478 93 413 q 188 589 144 543 q 288 659 232 635 q 407 683 344 683 q 524 658 471 683 q 626 589 576 633 l 629 589 l 625 724 l 625 999 l 688 999 l 688 0 l 635 0 l 628 99 l 625 99 q 519 18 581 53 q 388 -17 458 -17 m 396 38 q 512 69 454 38 q 625 160 569 101 l 625 531 q 516 607 568 585 q 411 629 464 629 q 313 606 358 629 q 232 544 267 583 q 178 449 197 504 q 158 332 158 394 q 174 211 158 265 q 221 119 190 157 q 296 59 251 81 q 396 38 340 38 m 247 -221 l 247 -171 l 589 -171 l 589 -221 l 247 -221 z "},"ḑ":{"ha":833,"x_min":93,"x_max":688,"o":"m 388 -17 q 268 6 322 -17 q 175 74 214 29 q 115 183 136 118 q 93 332 93 247 q 119 478 93 413 q 188 589 144 543 q 288 659 232 635 q 407 683 344 683 q 524 658 471 683 q 626 589 576 633 l 629 589 l 625 724 l 625 999 l 688 999 l 688 0 l 635 0 l 628 99 l 625 99 q 519 18 581 53 q 388 -17 458 -17 m 396 38 q 512 69 454 38 q 625 160 569 101 l 625 531 q 516 607 568 585 q 411 629 464 629 q 313 606 358 629 q 232 544 267 583 q 178 449 197 504 q 158 332 158 394 q 174 211 158 265 q 221 119 190 157 q 296 59 251 81 q 396 38 340 38 m 318 -304 l 308 -262 q 432 -239 399 -257 q 465 -189 465 -221 q 440 -142 465 -158 q 357 -118 415 -126 l 404 10 l 453 10 l 421 -90 q 492 -123 465 -101 q 519 -186 519 -144 q 468 -269 519 -240 q 318 -304 417 -297 z "},"đ":{"ha":833,"x_min":93,"x_max":792,"o":"m 388 -17 q 268 5 322 -17 q 175 69 214 26 q 115 174 136 113 q 93 318 93 236 q 119 458 93 396 q 188 565 144 521 q 288 632 232 608 q 407 656 344 656 q 524 631 472 656 q 626 561 576 606 l 629 561 l 625 696 l 625 803 l 369 803 l 369 856 l 625 856 l 625 999 l 688 999 l 688 856 l 792 856 l 792 810 l 688 803 l 688 0 l 635 0 l 628 99 l 625 99 q 519 18 581 53 q 388 -17 458 -17 m 396 38 q 512 69 454 38 q 625 160 569 101 l 625 503 q 516 578 568 556 q 413 601 464 601 q 313 579 360 601 q 232 519 267 557 q 178 429 197 481 q 158 318 158 378 q 221 115 158 192 q 396 38 283 38 z "},"è":{"ha":833,"x_min":107,"x_max":739,"o":"m 458 -17 q 322 7 386 -17 q 210 76 258 31 q 135 186 163 121 q 107 333 107 251 q 135 479 107 414 q 208 590 163 544 q 315 659 254 635 q 440 683 375 683 q 564 662 508 683 q 658 601 619 640 q 718 504 697 561 q 739 375 739 447 q 739 349 739 363 q 736 324 739 336 l 169 324 q 195 200 171 254 q 260 110 219 146 q 352 55 300 74 q 463 36 404 36 q 585 56 531 36 q 686 108 639 76 l 711 63 q 607 8 667 32 q 458 -17 547 -17 m 442 631 q 348 614 393 631 q 266 565 303 597 q 204 485 229 532 q 172 376 179 438 l 683 376 q 610 568 676 506 q 442 631 543 631 m 486 794 l 286 1004 l 333 1047 l 519 826 l 486 794 z "},"é":{"ha":833,"x_min":107,"x_max":739,"o":"m 458 -17 q 322 7 386 -17 q 210 76 258 31 q 135 186 163 121 q 107 333 107 251 q 135 479 107 414 q 208 590 163 544 q 315 659 254 635 q 440 683 375 683 q 564 662 508 683 q 658 601 619 640 q 718 504 697 561 q 739 375 739 447 q 739 349 739 363 q 736 324 739 336 l 169 324 q 195 200 171 254 q 260 110 219 146 q 352 55 300 74 q 463 36 404 36 q 585 56 531 36 q 686 108 639 76 l 711 63 q 607 8 667 32 q 458 -17 547 -17 m 442 631 q 348 614 393 631 q 266 565 303 597 q 204 485 229 532 q 172 376 179 438 l 683 376 q 610 568 676 506 q 442 631 543 631 m 400 794 l 367 826 l 553 1047 l 600 1004 l 400 794 z "},"ê":{"ha":833,"x_min":107,"x_max":739,"o":"m 458 -17 q 322 7 386 -17 q 210 76 258 31 q 135 186 163 121 q 107 333 107 251 q 135 479 107 414 q 208 590 163 544 q 315 659 254 635 q 440 683 375 683 q 564 662 508 683 q 658 601 619 640 q 718 504 697 561 q 739 375 739 447 q 739 349 739 363 q 736 324 739 336 l 169 324 q 195 200 171 254 q 260 110 219 146 q 352 55 300 74 q 463 36 404 36 q 585 56 531 36 q 686 108 639 76 l 711 63 q 607 8 667 32 q 458 -17 547 -17 m 442 631 q 348 614 393 631 q 266 565 303 597 q 204 485 229 532 q 172 376 179 438 l 683 376 q 610 568 676 506 q 442 631 543 631 m 282 794 l 251 824 l 414 1024 l 472 1024 l 635 824 l 604 794 l 446 969 l 440 969 l 282 794 z "},"ě":{"ha":833,"x_min":107,"x_max":739,"o":"m 458 -17 q 322 7 386 -17 q 210 76 258 31 q 135 186 163 121 q 107 333 107 251 q 135 479 107 414 q 208 590 163 544 q 315 659 254 635 q 440 683 375 683 q 564 662 508 683 q 658 601 619 640 q 718 504 697 561 q 739 375 739 447 q 739 349 739 363 q 736 324 739 336 l 169 324 q 195 200 171 254 q 260 110 219 146 q 352 55 300 74 q 463 36 404 36 q 585 56 531 36 q 686 108 639 76 l 711 63 q 607 8 667 32 q 458 -17 547 -17 m 442 631 q 348 614 393 631 q 266 565 303 597 q 204 485 229 532 q 172 376 179 438 l 683 376 q 610 568 676 506 q 442 631 543 631 m 414 796 l 251 996 l 282 1024 l 440 850 l 446 850 l 604 1024 l 635 996 l 472 796 l 414 796 z "},"ë":{"ha":833,"x_min":107,"x_max":739,"o":"m 458 -17 q 322 7 386 -17 q 210 76 258 31 q 135 186 163 121 q 107 333 107 251 q 135 479 107 414 q 208 590 163 544 q 315 659 254 635 q 440 683 375 683 q 564 662 508 683 q 658 601 619 640 q 718 504 697 561 q 739 375 739 447 q 739 349 739 363 q 736 324 739 336 l 169 324 q 195 200 171 254 q 260 110 219 146 q 352 55 300 74 q 463 36 404 36 q 585 56 531 36 q 686 108 639 76 l 711 63 q 607 8 667 32 q 458 -17 547 -17 m 442 631 q 348 614 393 631 q 266 565 303 597 q 204 485 229 532 q 172 376 179 438 l 683 376 q 610 568 676 506 q 442 631 543 631 m 319 831 q 280 848 296 831 q 264 889 264 865 q 280 929 264 913 q 319 946 296 946 q 359 929 343 946 q 375 889 375 913 q 359 848 375 865 q 319 831 343 831 m 567 831 q 527 848 543 831 q 511 889 511 865 q 527 929 511 913 q 567 946 543 946 q 606 929 590 946 q 622 889 622 913 q 606 848 622 865 q 567 831 590 831 z "},"ē":{"ha":833,"x_min":107,"x_max":739,"o":"m 458 -17 q 322 7 386 -17 q 210 76 258 31 q 135 186 163 121 q 107 333 107 251 q 135 479 107 414 q 208 590 163 544 q 315 659 254 635 q 440 683 375 683 q 564 662 508 683 q 658 601 619 640 q 718 504 697 561 q 739 375 739 447 q 739 349 739 363 q 736 324 739 336 l 169 324 q 195 200 171 254 q 260 110 219 146 q 352 55 300 74 q 463 36 404 36 q 585 56 531 36 q 686 108 639 76 l 711 63 q 607 8 667 32 q 458 -17 547 -17 m 442 631 q 348 614 393 631 q 266 565 303 597 q 204 485 229 532 q 172 376 179 438 l 683 376 q 610 568 676 506 q 442 631 543 631 m 272 842 l 272 892 l 614 892 l 614 842 l 272 842 z "},"ĕ":{"ha":833,"x_min":107,"x_max":739,"o":"m 458 -17 q 322 7 386 -17 q 210 76 258 31 q 135 186 163 121 q 107 333 107 251 q 135 479 107 414 q 208 590 163 544 q 315 659 254 635 q 440 683 375 683 q 564 662 508 683 q 658 601 619 640 q 718 504 697 561 q 739 375 739 447 q 739 349 739 363 q 736 324 739 336 l 169 324 q 195 200 171 254 q 260 110 219 146 q 352 55 300 74 q 463 36 404 36 q 585 56 531 36 q 686 108 639 76 l 711 63 q 607 8 667 32 q 458 -17 547 -17 m 442 631 q 348 614 393 631 q 266 565 303 597 q 204 485 229 532 q 172 376 179 438 l 683 376 q 610 568 676 506 q 442 631 543 631 m 443 792 q 351 811 389 792 q 290 860 314 831 q 253 926 265 890 q 236 997 240 963 l 282 1004 q 298 946 286 975 q 329 892 310 917 q 377 853 349 868 q 443 839 406 839 q 509 853 481 839 q 557 892 538 868 q 588 946 576 917 q 604 1004 600 975 l 650 997 q 633 926 646 963 q 597 860 621 890 q 535 811 572 831 q 443 792 497 792 z "},"ę":{"ha":833,"x_min":107,"x_max":739,"o":"m 592 -311 q 498 -281 536 -311 q 460 -187 460 -251 q 492 -83 460 -129 q 575 1 525 -37 q 509 -15 536 -14 q 458 -17 482 -17 q 322 7 386 -17 q 210 76 258 31 q 135 185 163 121 q 107 332 107 250 q 135 479 107 414 q 208 590 163 544 q 315 659 254 635 q 440 683 375 683 q 564 662 508 683 q 658 601 619 640 q 718 504 697 561 q 739 375 739 447 q 739 349 739 363 q 736 324 739 336 l 169 324 q 195 200 171 254 q 260 110 219 146 q 352 55 300 74 q 463 36 404 36 q 587 56 532 36 q 686 108 642 76 l 711 63 q 621 -8 658 24 q 560 -67 583 -39 q 525 -122 536 -94 q 514 -179 514 -149 q 541 -242 514 -222 q 600 -262 568 -262 q 647 -253 628 -262 q 679 -229 667 -243 l 707 -261 q 660 -297 686 -283 q 592 -311 633 -311 m 442 631 q 348 614 393 631 q 266 565 303 597 q 204 485 229 532 q 172 376 179 438 l 683 376 q 610 568 676 506 q 442 631 543 631 z "},"ė":{"ha":833,"x_min":107,"x_max":739,"o":"m 458 -17 q 322 7 386 -17 q 210 76 258 31 q 135 186 163 121 q 107 333 107 251 q 135 479 107 414 q 208 590 163 544 q 315 659 254 635 q 440 683 375 683 q 564 662 508 683 q 658 601 619 640 q 718 504 697 561 q 739 375 739 447 q 739 349 739 363 q 736 324 739 336 l 169 324 q 195 200 171 254 q 260 110 219 146 q 352 55 300 74 q 463 36 404 36 q 585 56 531 36 q 686 108 639 76 l 711 63 q 607 8 667 32 q 458 -17 547 -17 m 442 631 q 348 614 393 631 q 266 565 303 597 q 204 485 229 532 q 172 376 179 438 l 683 376 q 610 568 676 506 q 442 631 543 631 m 443 829 q 397 847 415 829 q 378 896 378 864 q 397 944 378 926 q 443 963 415 963 q 490 944 471 963 q 508 896 508 926 q 490 847 508 864 q 443 829 471 829 z "},"ẹ":{"ha":833,"x_min":107,"x_max":739,"o":"m 458 -17 q 322 7 386 -17 q 210 76 258 31 q 135 186 163 121 q 107 333 107 251 q 135 479 107 414 q 208 590 163 544 q 315 659 254 635 q 440 683 375 683 q 564 662 508 683 q 658 601 619 640 q 718 504 697 561 q 739 375 739 447 q 739 349 739 363 q 736 324 739 336 l 169 324 q 195 200 171 254 q 260 110 219 146 q 352 55 300 74 q 463 36 404 36 q 585 56 531 36 q 686 108 639 76 l 711 63 q 607 8 667 32 q 458 -17 547 -17 m 442 631 q 348 614 393 631 q 266 565 303 597 q 204 485 229 532 q 172 376 179 438 l 683 376 q 610 568 676 506 q 442 631 543 631 m 443 -272 q 397 -255 415 -272 q 378 -206 378 -237 q 397 -157 378 -175 q 443 -139 415 -139 q 490 -157 471 -139 q 508 -206 508 -175 q 490 -255 508 -237 q 443 -272 471 -272 z "},"ẻ":{"ha":833,"x_min":107,"x_max":739,"o":"m 458 -17 q 322 7 386 -17 q 210 76 258 31 q 135 186 163 121 q 107 333 107 251 q 135 479 107 414 q 208 590 163 544 q 315 659 254 635 q 440 683 375 683 q 564 662 508 683 q 658 601 619 640 q 718 504 697 561 q 739 375 739 447 q 739 349 739 363 q 736 324 739 336 l 169 324 q 195 200 171 254 q 260 110 219 146 q 352 55 300 74 q 463 36 404 36 q 585 56 531 36 q 686 108 639 76 l 711 63 q 607 8 667 32 q 458 -17 547 -17 m 442 631 q 348 614 393 631 q 266 565 303 597 q 204 485 229 532 q 172 376 179 438 l 683 376 q 610 568 676 506 q 442 631 543 631 m 408 799 l 397 838 q 460 866 435 849 q 485 914 485 883 q 367 982 485 978 l 371 1029 q 437 1022 406 1028 q 491 1002 468 1015 q 527 969 514 989 q 540 921 540 949 q 529 874 540 893 q 499 840 518 854 q 457 815 481 825 q 408 799 433 806 z "},"ẽ":{"ha":833,"x_min":107,"x_max":739,"o":"m 458 -17 q 322 7 386 -17 q 210 76 258 31 q 135 186 163 121 q 107 333 107 251 q 135 479 107 414 q 208 590 163 544 q 315 659 254 635 q 440 683 375 683 q 564 662 508 683 q 658 601 619 640 q 718 504 697 561 q 739 375 739 447 q 739 349 739 363 q 736 324 739 336 l 169 324 q 195 200 171 254 q 260 110 219 146 q 352 55 300 74 q 463 36 404 36 q 585 56 531 36 q 686 108 639 76 l 711 63 q 607 8 667 32 q 458 -17 547 -17 m 442 631 q 348 614 393 631 q 266 565 303 597 q 204 485 229 532 q 172 376 179 438 l 683 376 q 610 568 676 506 q 442 631 543 631 m 549 804 q 481 825 508 804 q 432 871 454 846 q 388 917 410 896 q 338 938 367 938 q 283 900 300 938 q 263 808 265 863 l 215 811 q 224 876 217 844 q 245 931 231 907 q 283 971 260 956 q 339 986 306 986 q 405 965 378 986 q 454 919 432 944 q 499 874 476 894 q 550 853 521 853 q 603 891 586 853 q 624 982 621 929 l 671 979 q 662 916 668 947 q 641 860 656 885 q 604 819 626 835 q 549 804 582 804 z "},"ế":{"ha":833,"x_min":107,"x_max":739,"o":"m 458 -17 q 322 7 386 -17 q 210 76 258 31 q 135 186 163 121 q 107 333 107 251 q 135 479 107 414 q 208 590 163 544 q 315 659 254 635 q 440 683 375 683 q 564 662 508 683 q 658 601 619 640 q 718 504 697 561 q 739 375 739 447 q 739 349 739 363 q 736 324 739 336 l 169 324 q 195 200 171 254 q 260 110 219 146 q 352 55 300 74 q 463 36 404 36 q 585 56 531 36 q 686 108 639 76 l 711 63 q 607 8 667 32 q 458 -17 547 -17 m 442 631 q 348 614 393 631 q 266 565 303 597 q 204 485 229 532 q 172 376 179 438 l 683 376 q 610 568 676 506 q 442 631 543 631 m 296 796 l 271 826 l 417 954 l 469 954 l 615 826 l 590 796 l 446 901 l 440 901 l 296 796 m 594 883 l 564 911 l 692 1071 l 733 1038 l 594 883 z "},"ề":{"ha":833,"x_min":107,"x_max":739,"o":"m 458 -17 q 322 7 386 -17 q 210 76 258 31 q 135 186 163 121 q 107 333 107 251 q 135 479 107 414 q 208 590 163 544 q 315 659 254 635 q 440 683 375 683 q 564 662 508 683 q 658 601 619 640 q 718 504 697 561 q 739 375 739 447 q 739 349 739 363 q 736 324 739 336 l 169 324 q 195 200 171 254 q 260 110 219 146 q 352 55 300 74 q 463 36 404 36 q 585 56 531 36 q 686 108 639 76 l 711 63 q 607 8 667 32 q 458 -17 547 -17 m 442 631 q 348 614 393 631 q 266 565 303 597 q 204 485 229 532 q 172 376 179 438 l 683 376 q 610 568 676 506 q 442 631 543 631 m 296 796 l 271 826 l 417 954 l 469 954 l 615 826 l 590 796 l 446 901 l 440 901 l 296 796 m 292 883 l 128 1033 l 169 1071 l 322 915 l 292 883 z "},"ể":{"ha":833,"x_min":107,"x_max":739,"o":"m 458 -17 q 322 7 386 -17 q 210 76 258 31 q 135 186 163 121 q 107 333 107 251 q 135 479 107 414 q 208 590 163 544 q 315 659 254 635 q 440 683 375 683 q 564 662 508 683 q 658 601 619 640 q 718 504 697 561 q 739 375 739 447 q 739 349 739 363 q 736 324 739 336 l 169 324 q 195 200 171 254 q 260 110 219 146 q 352 55 300 74 q 463 36 404 36 q 585 56 531 36 q 686 108 639 76 l 711 63 q 607 8 667 32 q 458 -17 547 -17 m 442 631 q 348 614 393 631 q 266 565 303 597 q 204 485 229 532 q 172 376 179 438 l 683 376 q 610 568 676 506 q 442 631 543 631 m 296 796 l 271 826 l 417 954 l 469 954 l 615 826 l 590 796 l 446 901 l 440 901 l 296 796 m 586 875 l 575 910 q 624 935 604 921 q 643 974 643 950 q 544 1038 643 1033 l 549 1078 q 653 1053 611 1075 q 696 981 696 1031 q 686 940 696 957 q 660 910 676 922 q 625 889 644 897 q 586 875 606 881 z "},"ễ":{"ha":833,"x_min":107,"x_max":739,"o":"m 458 -17 q 322 7 386 -17 q 210 76 258 31 q 135 186 163 121 q 107 333 107 251 q 135 479 107 414 q 208 590 163 544 q 315 659 254 635 q 440 683 375 683 q 564 662 508 683 q 658 601 619 640 q 718 504 697 561 q 739 375 739 447 q 739 349 739 363 q 736 324 739 336 l 169 324 q 195 200 171 254 q 260 110 219 146 q 352 55 300 74 q 463 36 404 36 q 585 56 531 36 q 686 108 639 76 l 711 63 q 607 8 667 32 q 458 -17 547 -17 m 442 631 q 348 614 393 631 q 266 565 303 597 q 204 485 229 532 q 172 376 179 438 l 683 376 q 610 568 676 506 q 442 631 543 631 m 296 796 l 271 826 l 417 953 l 469 953 l 615 826 l 590 796 l 446 900 l 440 900 l 296 796 m 539 982 q 482 991 507 982 q 435 1011 457 1000 q 392 1031 414 1022 q 349 1040 371 1040 q 316 1025 325 1040 q 303 978 307 1010 l 263 982 q 269 1019 264 1000 q 283 1053 274 1038 q 308 1077 293 1068 q 347 1086 324 1086 q 404 1077 379 1086 q 451 1057 429 1068 q 494 1037 474 1046 q 538 1028 514 1028 q 570 1043 561 1028 q 583 1090 579 1058 l 624 1086 q 617 1049 622 1067 q 603 1015 613 1031 q 577 991 593 1000 q 539 982 561 982 z "},"ệ":{"ha":833,"x_min":107,"x_max":739,"o":"m 458 -17 q 322 7 386 -17 q 210 76 258 31 q 135 186 163 121 q 107 333 107 251 q 135 479 107 414 q 208 590 163 544 q 315 659 254 635 q 440 683 375 683 q 564 662 508 683 q 658 601 619 640 q 718 504 697 561 q 739 375 739 447 q 739 349 739 363 q 736 324 739 336 l 169 324 q 195 200 171 254 q 260 110 219 146 q 352 55 300 74 q 463 36 404 36 q 585 56 531 36 q 686 108 639 76 l 711 63 q 607 8 667 32 q 458 -17 547 -17 m 442 631 q 348 614 393 631 q 266 565 303 597 q 204 485 229 532 q 172 376 179 438 l 683 376 q 610 568 676 506 q 442 631 543 631 m 282 794 l 251 824 l 414 1024 l 472 1024 l 635 824 l 604 794 l 446 969 l 440 969 l 282 794 m 443 -272 q 397 -255 415 -272 q 378 -206 378 -237 q 397 -157 378 -175 q 443 -139 415 -139 q 490 -157 471 -139 q 508 -206 508 -175 q 490 -255 508 -237 q 443 -272 471 -272 z "},"ḗ":{"ha":833,"x_min":107,"x_max":739,"o":"m 458 -17 q 322 7 386 -17 q 210 76 258 31 q 135 186 163 121 q 107 333 107 251 q 135 479 107 414 q 208 590 163 544 q 315 659 254 635 q 440 683 375 683 q 564 662 508 683 q 658 601 619 640 q 718 504 697 561 q 739 375 739 447 q 739 349 739 363 q 736 324 739 336 l 169 324 q 195 200 171 254 q 260 110 219 146 q 352 55 300 74 q 463 36 404 36 q 585 56 531 36 q 686 108 639 76 l 711 63 q 607 8 667 32 q 458 -17 547 -17 m 442 631 q 348 614 393 631 q 266 565 303 597 q 204 485 229 532 q 172 376 179 438 l 683 376 q 610 568 676 506 q 442 631 543 631 m 272 842 l 272 892 l 614 892 l 614 842 l 272 842 m 392 972 l 361 1008 l 540 1142 l 576 1094 l 392 972 z "},"ǵ":{"ha":833,"x_min":117,"x_max":781,"o":"m 428 -321 q 194 -268 271 -321 q 117 -128 117 -215 q 146 -46 117 -87 q 229 29 175 -4 l 229 35 q 182 74 204 47 q 160 142 160 100 q 180 207 160 174 q 240 268 200 240 l 240 274 q 185 342 208 300 q 161 446 161 385 q 181 541 161 497 q 234 616 200 585 q 313 665 268 647 q 410 683 358 683 q 501 667 461 683 l 779 667 l 779 614 l 578 614 q 632 540 608 583 q 656 444 656 497 q 636 351 656 393 q 583 278 617 308 q 506 230 550 247 q 410 213 461 213 q 347 220 379 213 q 283 243 314 228 q 236 201 254 225 q 218 150 218 178 q 260 79 218 101 q 372 57 301 57 l 538 57 q 723 23 665 57 q 781 -93 781 -11 q 756 -177 781 -136 q 685 -250 731 -218 q 574 -301 639 -282 q 428 -321 508 -321 m 410 261 q 481 274 447 261 q 540 312 515 288 q 580 370 565 336 q 594 446 594 404 q 580 520 594 486 q 540 579 565 554 q 481 618 515 604 q 410 632 447 632 q 337 618 371 632 q 278 579 303 604 q 238 520 253 554 q 224 446 224 486 q 238 370 224 404 q 278 312 253 336 q 337 274 303 288 q 410 261 371 261 m 424 -271 q 547 -256 492 -271 q 639 -217 601 -240 q 697 -162 676 -193 q 717 -100 717 -132 q 674 -22 717 -43 q 543 -1 631 -1 l 385 -1 q 333 1 360 -1 q 283 11 307 4 q 199 -57 222 -21 q 175 -129 175 -93 q 236 -231 175 -190 q 424 -271 297 -271 m 386 794 l 353 826 l 539 1047 l 586 1004 l 386 794 z "},"ĝ":{"ha":833,"x_min":117,"x_max":781,"o":"m 428 -321 q 194 -268 271 -321 q 117 -128 117 -215 q 146 -46 117 -87 q 229 29 175 -4 l 229 35 q 182 74 204 47 q 160 142 160 100 q 180 207 160 174 q 240 268 200 240 l 240 274 q 185 342 208 300 q 161 446 161 385 q 181 541 161 497 q 234 616 200 585 q 313 665 268 647 q 410 683 358 683 q 501 667 461 683 l 779 667 l 779 614 l 578 614 q 632 540 608 583 q 656 444 656 497 q 636 351 656 393 q 583 278 617 308 q 506 230 550 247 q 410 213 461 213 q 347 220 379 213 q 283 243 314 228 q 236 201 254 225 q 218 150 218 178 q 260 79 218 101 q 372 57 301 57 l 538 57 q 723 23 665 57 q 781 -93 781 -11 q 756 -177 781 -136 q 685 -250 731 -218 q 574 -301 639 -282 q 428 -321 508 -321 m 410 261 q 481 274 447 261 q 540 312 515 288 q 580 370 565 336 q 594 446 594 404 q 580 520 594 486 q 540 579 565 554 q 481 618 515 604 q 410 632 447 632 q 337 618 371 632 q 278 579 303 604 q 238 520 253 554 q 224 446 224 486 q 238 370 224 404 q 278 312 253 336 q 337 274 303 288 q 410 261 371 261 m 424 -271 q 547 -256 492 -271 q 639 -217 601 -240 q 697 -162 676 -193 q 717 -100 717 -132 q 674 -22 717 -43 q 543 -1 631 -1 l 385 -1 q 333 1 360 -1 q 283 11 307 4 q 199 -57 222 -21 q 175 -129 175 -93 q 236 -231 175 -190 q 424 -271 297 -271 m 268 794 l 238 824 l 400 1024 l 458 1024 l 621 824 l 590 794 l 432 969 l 426 969 l 268 794 z "},"ğ":{"ha":833,"x_min":117,"x_max":781,"o":"m 428 -321 q 194 -268 271 -321 q 117 -128 117 -215 q 146 -46 117 -87 q 229 29 175 -4 l 229 35 q 182 74 204 47 q 160 142 160 100 q 180 207 160 174 q 240 268 200 240 l 240 274 q 185 342 208 300 q 161 446 161 385 q 181 541 161 497 q 234 616 200 585 q 313 665 268 647 q 410 683 358 683 q 501 667 461 683 l 779 667 l 779 614 l 578 614 q 632 540 608 583 q 656 444 656 497 q 636 351 656 393 q 583 278 617 308 q 506 230 550 247 q 410 213 461 213 q 347 220 379 213 q 283 243 314 228 q 236 201 254 225 q 218 150 218 178 q 260 79 218 101 q 372 57 301 57 l 538 57 q 723 23 665 57 q 781 -93 781 -11 q 756 -177 781 -136 q 685 -250 731 -218 q 574 -301 639 -282 q 428 -321 508 -321 m 410 261 q 481 274 447 261 q 540 312 515 288 q 580 370 565 336 q 594 446 594 404 q 580 520 594 486 q 540 579 565 554 q 481 618 515 604 q 410 632 447 632 q 337 618 371 632 q 278 579 303 604 q 238 520 253 554 q 224 446 224 486 q 238 370 224 404 q 278 312 253 336 q 337 274 303 288 q 410 261 371 261 m 424 -271 q 547 -256 492 -271 q 639 -217 601 -240 q 697 -162 676 -193 q 717 -100 717 -132 q 674 -22 717 -43 q 543 -1 631 -1 l 385 -1 q 333 1 360 -1 q 283 11 307 4 q 199 -57 222 -21 q 175 -129 175 -93 q 236 -231 175 -190 q 424 -271 297 -271 m 429 792 q 338 811 375 792 q 276 860 300 831 q 239 926 251 890 q 222 997 226 963 l 268 1004 q 284 946 272 975 q 315 892 296 917 q 363 853 335 868 q 429 839 392 839 q 495 853 467 839 q 543 892 524 868 q 574 946 563 917 q 590 1004 586 975 l 636 997 q 619 926 632 963 q 583 860 607 890 q 521 811 558 831 q 429 792 483 792 z "},"ġ":{"ha":833,"x_min":117,"x_max":781,"o":"m 428 -321 q 194 -268 271 -321 q 117 -128 117 -215 q 146 -46 117 -87 q 229 29 175 -4 l 229 35 q 182 74 204 47 q 160 142 160 100 q 180 207 160 174 q 240 268 200 240 l 240 274 q 185 342 208 300 q 161 446 161 385 q 181 541 161 497 q 234 616 200 585 q 313 665 268 647 q 410 683 358 683 q 501 667 461 683 l 779 667 l 779 614 l 578 614 q 632 540 608 583 q 656 444 656 497 q 636 351 656 393 q 583 278 617 308 q 506 230 550 247 q 410 213 461 213 q 347 220 379 213 q 283 243 314 228 q 236 201 254 225 q 218 150 218 178 q 260 79 218 101 q 372 57 301 57 l 538 57 q 723 23 665 57 q 781 -93 781 -11 q 756 -177 781 -136 q 685 -250 731 -218 q 574 -301 639 -282 q 428 -321 508 -321 m 410 261 q 481 274 447 261 q 540 312 515 288 q 580 370 565 336 q 594 446 594 404 q 580 520 594 486 q 540 579 565 554 q 481 618 515 604 q 410 632 447 632 q 337 618 371 632 q 278 579 303 604 q 238 520 253 554 q 224 446 224 486 q 238 370 224 404 q 278 312 253 336 q 337 274 303 288 q 410 261 371 261 m 424 -271 q 547 -256 492 -271 q 639 -217 601 -240 q 697 -162 676 -193 q 717 -100 717 -132 q 674 -22 717 -43 q 543 -1 631 -1 l 385 -1 q 333 1 360 -1 q 283 11 307 4 q 199 -57 222 -21 q 175 -129 175 -93 q 236 -231 175 -190 q 424 -271 297 -271 m 429 829 q 383 847 401 829 q 364 896 364 864 q 383 944 364 926 q 429 963 401 963 q 476 944 457 963 q 494 896 494 926 q 476 847 494 864 q 429 829 457 829 z "},"ģ":{"ha":833,"x_min":117,"x_max":781,"o":"m 428 -321 q 194 -268 271 -321 q 117 -128 117 -215 q 146 -46 117 -87 q 229 29 175 -4 l 229 35 q 182 74 204 47 q 160 142 160 100 q 180 207 160 174 q 240 268 200 240 l 240 274 q 185 342 208 300 q 161 446 161 385 q 181 541 161 497 q 234 616 200 585 q 313 665 268 647 q 410 683 358 683 q 501 667 461 683 l 779 667 l 779 614 l 578 614 q 632 540 608 583 q 656 444 656 497 q 636 351 656 393 q 583 278 617 308 q 506 230 550 247 q 410 213 461 213 q 347 220 379 213 q 283 243 314 228 q 236 201 254 225 q 218 150 218 178 q 260 79 218 101 q 372 57 301 57 l 538 57 q 723 23 665 57 q 781 -93 781 -11 q 756 -177 781 -136 q 685 -250 731 -218 q 574 -301 639 -282 q 428 -321 508 -321 m 410 261 q 481 274 447 261 q 540 312 515 288 q 580 370 565 336 q 594 446 594 404 q 580 520 594 486 q 540 579 565 554 q 481 618 515 604 q 410 632 447 632 q 337 618 371 632 q 278 579 303 604 q 238 520 253 554 q 224 446 224 486 q 238 370 224 404 q 278 312 253 336 q 337 274 303 288 q 410 261 371 261 m 424 -271 q 547 -256 492 -271 q 639 -217 601 -240 q 697 -162 676 -193 q 717 -100 717 -132 q 674 -22 717 -43 q 543 -1 631 -1 l 385 -1 q 333 1 360 -1 q 283 11 307 4 q 199 -57 222 -21 q 175 -129 175 -93 q 236 -231 175 -190 q 424 -271 297 -271 m 478 804 q 367 838 399 815 q 335 906 335 861 q 386 988 335 960 q 536 1024 438 1017 l 546 982 q 422 957 456 975 q 389 908 389 939 q 417 863 389 876 q 496 844 446 849 l 478 804 z "},"ǧ":{"ha":833,"x_min":117,"x_max":781,"o":"m 428 -321 q 194 -268 271 -321 q 117 -128 117 -215 q 146 -46 117 -87 q 229 29 175 -4 l 229 35 q 182 74 204 47 q 160 142 160 100 q 180 207 160 174 q 240 268 200 240 l 240 274 q 185 342 208 300 q 161 446 161 385 q 181 541 161 497 q 234 616 200 585 q 313 665 268 647 q 410 683 358 683 q 501 667 461 683 l 779 667 l 779 614 l 578 614 q 632 540 608 583 q 656 444 656 497 q 636 351 656 393 q 583 278 617 308 q 506 230 550 247 q 410 213 461 213 q 347 220 379 213 q 283 243 314 228 q 236 201 254 225 q 218 150 218 178 q 260 79 218 101 q 372 57 301 57 l 538 57 q 723 23 665 57 q 781 -93 781 -11 q 756 -177 781 -136 q 685 -250 731 -218 q 574 -301 639 -282 q 428 -321 508 -321 m 410 261 q 481 274 447 261 q 540 312 515 288 q 580 370 565 336 q 594 446 594 404 q 580 520 594 486 q 540 579 565 554 q 481 618 515 604 q 410 632 447 632 q 337 618 371 632 q 278 579 303 604 q 238 520 253 554 q 224 446 224 486 q 238 370 224 404 q 278 312 253 336 q 337 274 303 288 q 410 261 371 261 m 424 -271 q 547 -256 492 -271 q 639 -217 601 -240 q 697 -162 676 -193 q 717 -100 717 -132 q 674 -22 717 -43 q 543 -1 631 -1 l 385 -1 q 333 1 360 -1 q 283 11 307 4 q 199 -57 222 -21 q 175 -129 175 -93 q 236 -231 175 -190 q 424 -271 297 -271 m 400 796 l 238 996 l 268 1024 l 426 850 l 432 850 l 590 1024 l 621 996 l 458 796 l 400 796 z "},"ḡ":{"ha":833,"x_min":117,"x_max":781,"o":"m 428 -321 q 194 -268 271 -321 q 117 -128 117 -215 q 146 -46 117 -87 q 229 29 175 -4 l 229 35 q 182 74 204 47 q 160 142 160 100 q 180 207 160 174 q 240 268 200 240 l 240 274 q 185 342 208 300 q 161 446 161 385 q 181 541 161 497 q 234 616 200 585 q 313 665 268 647 q 410 683 358 683 q 501 667 461 683 l 779 667 l 779 614 l 578 614 q 632 540 608 583 q 656 444 656 497 q 636 351 656 393 q 583 278 617 308 q 506 230 550 247 q 410 213 461 213 q 347 220 379 213 q 283 243 314 228 q 236 201 254 225 q 218 150 218 178 q 260 79 218 101 q 372 57 301 57 l 538 57 q 723 23 665 57 q 781 -93 781 -11 q 756 -177 781 -136 q 685 -250 731 -218 q 574 -301 639 -282 q 428 -321 508 -321 m 410 261 q 481 274 447 261 q 540 312 515 288 q 580 370 565 336 q 594 446 594 404 q 580 520 594 486 q 540 579 565 554 q 481 618 515 604 q 410 632 447 632 q 337 618 371 632 q 278 579 303 604 q 238 520 253 554 q 224 446 224 486 q 238 370 224 404 q 278 312 253 336 q 337 274 303 288 q 410 261 371 261 m 424 -271 q 547 -256 492 -271 q 639 -217 601 -240 q 697 -162 676 -193 q 717 -100 717 -132 q 674 -22 717 -43 q 543 -1 631 -1 l 385 -1 q 333 1 360 -1 q 283 11 307 4 q 199 -57 222 -21 q 175 -129 175 -93 q 236 -231 175 -190 q 424 -271 297 -271 m 258 842 l 258 892 l 600 892 l 600 842 l 258 842 z "},"ĥ":{"ha":833,"x_min":-15,"x_max":714,"o":"m 146 0 l 146 999 l 208 999 l 208 710 l 204 535 l 207 535 q 331 642 267 600 q 474 683 394 683 q 714 415 714 683 l 714 0 l 651 0 l 651 407 q 608 574 651 519 q 464 628 564 628 q 397 619 428 628 q 337 591 367 610 q 276 544 307 572 q 208 478 244 515 l 208 0 l 146 0 m 13 1065 l -15 1092 l 142 1249 l 203 1249 l 360 1092 l 332 1065 l 175 1201 l 169 1201 l 13 1065 z "},"ḧ":{"ha":833,"x_min":10,"x_max":714,"o":"m 146 0 l 146 999 l 208 999 l 208 710 l 204 535 l 207 535 q 331 642 267 600 q 474 683 394 683 q 714 415 714 683 l 714 0 l 651 0 l 651 407 q 608 574 651 519 q 464 628 564 628 q 397 619 428 628 q 337 591 367 610 q 276 544 307 572 q 208 478 244 515 l 208 0 l 146 0 m 61 1090 q 24 1104 39 1090 q 10 1142 10 1118 q 24 1179 10 1165 q 61 1193 39 1193 q 98 1179 83 1193 q 113 1142 113 1165 q 98 1104 113 1118 q 61 1090 83 1090 m 283 1090 q 247 1104 261 1090 q 232 1142 232 1118 q 247 1179 232 1165 q 283 1193 261 1193 q 320 1179 306 1193 q 335 1142 335 1165 q 320 1104 335 1118 q 283 1090 306 1090 z "},"ḥ":{"ha":833,"x_min":146,"x_max":714,"o":"m 146 0 l 146 999 l 208 999 l 208 710 l 204 535 l 207 535 q 331 642 267 600 q 474 683 394 683 q 714 415 714 683 l 714 0 l 651 0 l 651 407 q 608 574 651 519 q 464 628 564 628 q 397 619 428 628 q 337 591 367 610 q 276 544 307 572 q 208 478 244 515 l 208 0 l 146 0 m 442 -272 q 395 -255 414 -272 q 376 -206 376 -237 q 395 -157 376 -175 q 442 -139 414 -139 q 488 -157 469 -139 q 507 -206 507 -175 q 488 -255 507 -237 q 442 -272 469 -272 z "},"ẖ":{"ha":833,"x_min":146,"x_max":714,"o":"m 146 0 l 146 999 l 208 999 l 208 710 l 204 535 l 207 535 q 331 642 267 600 q 474 683 394 683 q 714 415 714 683 l 714 0 l 651 0 l 651 407 q 608 574 651 519 q 464 628 564 628 q 397 619 428 628 q 337 591 367 610 q 276 544 307 572 q 208 478 244 515 l 208 0 l 146 0 m 271 -221 l 271 -171 l 613 -171 l 613 -221 l 271 -221 z "},"ḩ":{"ha":833,"x_min":61,"x_max":714,"o":"m 146 0 l 146 999 l 208 999 l 208 710 l 204 535 l 207 535 q 331 642 267 600 q 474 683 394 683 q 714 415 714 683 l 714 0 l 651 0 l 651 407 q 608 574 651 519 q 464 628 564 628 q 397 619 428 628 q 337 591 367 610 q 276 544 307 572 q 208 478 244 515 l 208 0 l 146 0 m 71 -304 l 61 -262 q 185 -239 151 -257 q 218 -189 218 -221 q 193 -142 218 -158 q 110 -118 168 -126 l 157 10 l 206 10 l 174 -90 q 245 -123 218 -101 q 272 -186 272 -144 q 221 -269 272 -240 q 71 -304 169 -297 z "},"ḫ":{"ha":833,"x_min":146,"x_max":714,"o":"m 146 0 l 146 999 l 208 999 l 208 710 l 204 535 l 207 535 q 331 642 267 600 q 474 683 394 683 q 714 415 714 683 l 714 0 l 651 0 l 651 407 q 608 574 651 519 q 464 628 564 628 q 397 619 428 628 q 337 591 367 610 q 276 544 307 572 q 208 478 244 515 l 208 0 l 146 0 m 442 -319 q 350 -300 388 -319 q 288 -251 313 -281 q 251 -185 264 -221 q 235 -114 239 -149 l 281 -107 q 297 -165 285 -136 q 328 -219 308 -194 q 376 -258 347 -243 q 442 -272 404 -272 q 508 -258 479 -272 q 556 -219 536 -243 q 587 -165 575 -194 q 603 -107 599 -136 l 649 -114 q 632 -185 644 -149 q 595 -251 619 -221 q 533 -300 571 -281 q 442 -319 496 -319 z "},"ħ":{"ha":833,"x_min":40,"x_max":714,"o":"m 146 0 l 146 803 l 40 803 l 40 849 l 146 856 l 146 999 l 208 999 l 208 856 l 526 856 l 526 803 l 208 803 l 208 682 l 204 507 l 207 507 q 330 615 267 574 q 474 656 393 656 q 714 388 714 656 l 714 0 l 651 0 l 651 379 q 608 546 651 492 q 464 600 564 600 q 397 591 428 600 q 337 563 367 582 q 276 516 307 544 q 208 450 244 488 l 208 0 l 146 0 z "},"ì":{"ha":833,"x_min":135,"x_max":561,"o":"m 469 0 l 469 614 l 135 614 l 135 667 l 531 667 l 531 0 l 469 0 m 528 794 l 328 1004 l 375 1047 l 561 826 l 528 794 z "},"í":{"ha":833,"x_min":135,"x_max":642,"o":"m 469 0 l 469 614 l 135 614 l 135 667 l 531 667 l 531 0 l 469 0 m 442 794 l 408 826 l 594 1047 l 642 1004 l 442 794 z "},"î":{"ha":833,"x_min":135,"x_max":676,"o":"m 469 0 l 469 614 l 135 614 l 135 667 l 531 667 l 531 0 l 469 0 m 324 794 l 293 824 l 456 1024 l 514 1024 l 676 824 l 646 794 l 488 969 l 482 969 l 324 794 z "},"ĩ":{"ha":833,"x_min":135,"x_max":713,"o":"m 469 0 l 469 614 l 135 614 l 135 667 l 531 667 l 531 0 l 469 0 m 590 804 q 523 825 550 804 q 474 871 496 846 q 430 917 451 896 q 379 938 408 938 q 324 900 342 938 q 304 808 307 863 l 257 811 q 265 876 258 844 q 287 931 272 907 q 324 971 301 956 q 381 986 347 986 q 447 965 419 986 q 496 919 474 944 q 540 874 518 894 q 592 853 563 853 q 645 891 628 853 q 665 982 663 929 l 713 979 q 703 916 710 947 q 683 860 697 885 q 646 819 668 835 q 590 804 624 804 z "},"ï":{"ha":833,"x_min":135,"x_max":664,"o":"m 469 0 l 469 614 l 135 614 l 135 667 l 531 667 l 531 0 l 469 0 m 361 831 q 322 848 338 831 q 306 889 306 865 q 322 929 306 913 q 361 946 338 946 q 401 929 385 946 q 417 889 417 913 q 401 848 417 865 q 361 831 385 831 m 608 831 q 569 848 585 831 q 553 889 553 865 q 569 929 553 913 q 608 946 585 946 q 648 929 632 946 q 664 889 664 913 q 648 848 664 865 q 608 831 632 831 z "},"ī":{"ha":833,"x_min":135,"x_max":656,"o":"m 469 0 l 469 614 l 135 614 l 135 667 l 531 667 l 531 0 l 469 0 m 314 842 l 314 892 l 656 892 l 656 842 l 314 842 z "},"ǐ":{"ha":833,"x_min":135,"x_max":676,"o":"m 469 0 l 469 614 l 135 614 l 135 667 l 531 667 l 531 0 l 469 0 m 456 796 l 293 996 l 324 1024 l 482 850 l 488 850 l 646 1024 l 676 996 l 514 796 l 456 796 z "},"į":{"ha":833,"x_min":135,"x_max":606,"o":"m 492 -311 q 397 -281 433 -311 q 360 -187 360 -251 q 393 -85 360 -132 q 479 0 426 -37 l 469 0 l 469 614 l 135 614 l 135 667 l 531 667 l 531 -10 q 443 -90 474 -44 q 413 -179 413 -135 q 439 -242 413 -222 q 500 -262 465 -262 q 544 -253 526 -262 q 578 -229 563 -243 l 606 -261 q 558 -297 583 -283 q 492 -311 532 -311 m 485 829 q 438 847 457 829 q 419 896 419 864 q 438 944 419 926 q 485 963 457 963 q 531 944 513 963 q 550 896 550 926 q 531 847 550 864 q 485 829 513 829 z "},"ỉ":{"ha":833,"x_min":135,"x_max":582,"o":"m 469 0 l 469 614 l 135 614 l 135 667 l 531 667 l 531 0 l 469 0 m 450 799 l 439 838 q 501 866 476 849 q 526 914 526 883 q 408 982 526 978 l 413 1029 q 478 1022 447 1028 q 533 1002 510 1015 q 569 969 556 989 q 582 921 582 949 q 571 874 582 893 q 541 840 560 854 q 499 815 522 825 q 450 799 475 806 z "},"ị":{"ha":833,"x_min":135,"x_max":550,"o":"m 469 0 l 469 614 l 135 614 l 135 667 l 531 667 l 531 0 l 469 0 m 485 829 q 438 847 457 829 q 419 896 419 864 q 438 944 419 926 q 485 963 457 963 q 531 944 513 963 q 550 896 550 926 q 531 847 550 864 q 485 829 513 829 m 485 -272 q 438 -255 457 -272 q 419 -206 419 -237 q 438 -157 419 -175 q 485 -139 457 -139 q 531 -157 513 -139 q 550 -206 550 -175 q 531 -255 550 -237 q 485 -272 513 -272 z "},"ĭ":{"ha":833,"x_min":135,"x_max":692,"o":"m 469 0 l 469 614 l 135 614 l 135 667 l 531 667 l 531 0 l 469 0 m 485 792 q 393 811 431 792 q 331 860 356 831 q 294 926 307 890 q 278 997 282 963 l 324 1004 q 340 946 328 975 q 371 892 351 917 q 419 853 390 868 q 485 839 447 839 q 551 853 522 839 q 599 892 579 868 q 630 946 618 917 q 646 1004 642 975 l 692 997 q 675 926 688 963 q 638 860 663 890 q 576 811 614 831 q 485 792 539 792 z "},"ı":{"ha":833,"x_min":135,"x_max":531,"o":"m 469 0 l 469 614 l 135 614 l 135 667 l 531 667 l 531 0 l 469 0 z "},"ĵ":{"ha":833,"x_min":88,"x_max":676,"o":"m 269 -318 q 174 -306 222 -318 q 88 -274 125 -293 l 113 -225 q 188 -253 146 -242 q 274 -265 231 -265 q 370 -251 332 -265 q 430 -209 408 -236 q 460 -144 451 -182 q 469 -60 469 -106 l 469 614 l 135 614 l 135 667 l 531 667 l 531 -51 q 517 -162 531 -112 q 474 -246 504 -211 q 394 -299 444 -281 q 269 -318 344 -318 m 324 794 l 293 824 l 456 1024 l 514 1024 l 676 824 l 646 794 l 488 969 l 482 969 l 324 794 z "},"ķ":{"ha":833,"x_min":171,"x_max":788,"o":"m 171 0 l 171 999 l 233 999 l 233 265 l 239 265 l 667 667 l 743 667 l 469 410 l 788 0 l 717 0 l 428 371 l 233 189 l 233 0 l 171 0 m 368 -304 l 358 -262 q 482 -239 449 -257 q 515 -190 515 -221 q 487 -144 515 -158 q 408 -125 458 -129 l 426 -85 q 538 -119 506 -96 q 569 -186 569 -142 q 518 -269 569 -240 q 368 -304 467 -297 z "},"ḳ":{"ha":833,"x_min":171,"x_max":788,"o":"m 171 0 l 171 999 l 233 999 l 233 265 l 239 265 l 667 667 l 743 667 l 469 410 l 788 0 l 717 0 l 428 371 l 233 189 l 233 0 l 171 0 m 475 -272 q 428 -255 447 -272 q 410 -206 410 -237 q 428 -157 410 -175 q 475 -139 447 -139 q 522 -157 503 -139 q 540 -206 540 -175 q 522 -255 540 -237 q 475 -272 503 -272 z "},"ḵ":{"ha":833,"x_min":171,"x_max":788,"o":"m 171 0 l 171 999 l 233 999 l 233 265 l 239 265 l 667 667 l 743 667 l 469 410 l 788 0 l 717 0 l 428 371 l 233 189 l 233 0 l 171 0 m 304 -221 l 304 -171 l 646 -171 l 646 -221 l 304 -221 z "},"ĸ":{"ha":833,"x_min":171,"x_max":788,"o":"m 171 0 l 171 667 l 233 667 l 233 263 l 236 265 l 667 667 l 743 667 l 469 408 l 788 0 l 717 0 l 426 369 l 233 186 l 233 0 l 171 0 z "},"ĺ":{"ha":833,"x_min":124,"x_max":740,"o":"m 575 -17 q 428 35 479 -17 q 376 201 376 88 l 376 946 l 124 946 l 124 999 l 438 999 l 438 193 q 475 76 438 114 q 583 38 513 38 q 721 72 650 38 l 740 25 q 660 -6 697 4 q 575 -17 624 -17 m 374 1064 l 346 1096 l 518 1267 l 558 1221 l 374 1064 z "},"ľ":{"ha":833,"x_min":124,"x_max":740,"o":"m 575 -17 q 428 35 479 -17 q 376 201 376 88 l 376 946 l 124 946 l 124 999 l 438 999 l 438 193 q 475 76 438 114 q 583 38 513 38 q 721 72 650 38 l 740 25 q 660 -6 697 4 q 575 -17 624 -17 m 553 761 l 550 1129 l 608 1129 l 608 1031 l 597 761 l 553 761 z "}}}
